<svg width="645" height="395" viewBox="0 0 645 395" fill="none" xmlns="http://www.w3.org/2000/svg" shape-rendering="crispEdges">
<line x1="345" y1="2.5" x2="580" y2="2.5" stroke="#EFC018" stroke-width="5"/>
<line x1="360" y1="17.5" x2="566" y2="17.5" stroke="#EFC018" stroke-width="5"/>
<line x1="345" y1="262.5" x2="580" y2="262.5" stroke="#EFC018" stroke-width="5"/>
<line x1="300" y1="287.5" x2="625" y2="287.5" stroke="#EFC018" stroke-width="5"/>
<line x1="298" y1="387.5" x2="623" y2="387.5" stroke="#EFC018" stroke-width="5"/>
<line x1="2.18557e-07" y1="392.5" x2="645" y2="392.5" stroke="#EFC018" stroke-width="5"/>
<line x1="360" y1="227.5" x2="566" y2="227.5" stroke="#EFC018" stroke-width="5"/>
<line x1="450" y1="297.5" x2="610" y2="297.5" stroke="#EFC018" stroke-width="5"/>
<line x1="455" y1="332.5" x2="490" y2="332.5" stroke="#EFC018" stroke-width="5"/>
<line x1="535" y1="332.5" x2="570" y2="332.5" stroke="#EFC018" stroke-width="5"/>
<line x1="490" y1="327.5" x2="535" y2="327.5" stroke="#EFC018" stroke-width="5"/>
<line x1="490" y1="337.5" x2="535" y2="337.5" stroke="#EFC018" stroke-width="5"/>
<line x1="585" y1="322.5" x2="605" y2="322.5" stroke="#EFC018" stroke-width="5"/>
<line x1="425" y1="267.5" x2="493" y2="267.5" stroke="#EFC018" stroke-width="5"/>
<line x1="415" y1="272.5" x2="503" y2="272.5" stroke="#EFC018" stroke-width="5"/>
<line x1="405" y1="277.5" x2="513" y2="277.5" stroke="#EFC018" stroke-width="5"/>
<line x1="395" y1="282.5" x2="523" y2="282.5" stroke="#EFC018" stroke-width="5"/>
<line x1="585" y1="332.5" x2="605" y2="332.5" stroke="#EFC018" stroke-width="5"/>
<line x1="457.5" y1="370" x2="457.5" y2="355" stroke="#D0666F" stroke-width="5"/>
<line x1="467.5" y1="370" x2="467.5" y2="355" stroke="#4FC485" stroke-width="5"/>
<line x1="585" y1="342.5" x2="605" y2="342.5" stroke="#EFC018" stroke-width="5"/>
<line x1="450" y1="377.5" x2="610" y2="377.5" stroke="#EFC018" stroke-width="5"/>
<line x1="342.5" y1="260" x2="342.5" y2="5" stroke="#EFC018" stroke-width="5"/>
<line x1="297.5" y1="385" x2="297.5" y2="290" stroke="#EFC018" stroke-width="5"/>
<line x1="174.5" y1="335" x2="174.5" y2="329" stroke="#EFC018" stroke-width="5"/>
<line x1="169.5" y1="325" x2="169.5" y2="320" stroke="#EFC018" stroke-width="5"/>
<line x1="234.5" y1="326" x2="234.5" y2="320" stroke="#EFC018" stroke-width="5"/>
<line x1="229.5" y1="335" x2="229.5" y2="329" stroke="#EFC018" stroke-width="5"/>
<line x1="242" y1="327.5" x2="162" y2="327.5" stroke="#EFC018" stroke-width="5"/>
<line x1="232" y1="317.5" x2="172" y2="317.5" stroke="#EFC018" stroke-width="5"/>
<line x1="232" y1="345.5" x2="172" y2="345.5" stroke="#EFC018" stroke-width="5"/>
<line x1="174.5" y1="345" x2="174.5" y2="335" stroke="#EFC018" stroke-width="5"/>
<line y1="-2.5" x2="10" y2="-2.5" transform="matrix(-4.37114e-08 -1 -1 4.37114e-08 227 345)" stroke="#EFC018" stroke-width="5"/>
<line x1="174.5" y1="355" x2="174.5" y2="345" stroke="#EFC018" stroke-width="5"/>
<line y1="-2.5" x2="10" y2="-2.5" transform="matrix(-4.37114e-08 -1 -1 4.37114e-08 227 355)" stroke="#EFC018" stroke-width="5"/>
<line x1="179.5" y1="370" x2="179.5" y2="355" stroke="#EFC018" stroke-width="5"/>
<line x1="184.5" y1="305" x2="184.5" y2="300" stroke="#EFC018" stroke-width="5"/>
<line x1="214.5" y1="305" x2="214.5" y2="300" stroke="#EFC018" stroke-width="5"/>
<line x1="189.5" y1="300" x2="189.5" y2="295" stroke="#EFC018" stroke-width="5"/>
<line x1="209.5" y1="300" x2="209.5" y2="295" stroke="#EFC018" stroke-width="5"/>
<line x1="183.5" y1="295" x2="183.5" y2="290" stroke="#EFC018" stroke-width="5"/>
<line x1="214.5" y1="295" x2="214.5" y2="290" stroke="#EFC018" stroke-width="5"/>
<line x1="184.5" y1="285" x2="184.5" y2="280" stroke="#EFC018" stroke-width="5"/>
<line x1="214.5" y1="285" x2="214.5" y2="280" stroke="#EFC018" stroke-width="5"/>
<line x1="189.5" y1="280" x2="189.5" y2="275" stroke="#EFC018" stroke-width="5"/>
<line x1="209.5" y1="280" x2="209.5" y2="275" stroke="#EFC018" stroke-width="5"/>
<line x1="189.5" y1="290" x2="189.5" y2="285" stroke="#EFC018" stroke-width="5"/>
<line x1="209.5" y1="290" x2="209.5" y2="285" stroke="#EFC018" stroke-width="5"/>
<line y1="-2.5" x2="15" y2="-2.5" transform="matrix(-4.37114e-08 -1 -1 4.37114e-08 222 370)" stroke="#EFC018" stroke-width="5"/>
<line x1="184.5" y1="385" x2="184.5" y2="370" stroke="#EFC018" stroke-width="5"/>
<line x1="187" y1="387.5" x2="217" y2="387.5" stroke="#EFC018" stroke-width="5"/>
<line y1="-2.5" x2="15" y2="-2.5" transform="matrix(-4.37114e-08 -1 -1 4.37114e-08 217 385)" stroke="#EFC018" stroke-width="5"/>
<line x1="447.5" y1="375" x2="447.5" y2="300" stroke="#EFC018" stroke-width="5"/>
<line x1="307.5" y1="375" x2="307.5" y2="340" stroke="#EFC018" stroke-width="5"/>
<line x1="317.5" y1="375" x2="317.5" y2="340" stroke="#EFC018" stroke-width="5"/>
<line x1="327.5" y1="375" x2="327.5" y2="340" stroke="#EFC018" stroke-width="5"/>
<line x1="337.5" y1="375" x2="337.5" y2="340" stroke="#EFC018" stroke-width="5"/>
<line x1="347.5" y1="375" x2="347.5" y2="340" stroke="#EFC018" stroke-width="5"/>
<line x1="357.5" y1="375" x2="357.5" y2="340" stroke="#EFC018" stroke-width="5"/>
<line x1="367.5" y1="375" x2="367.5" y2="340" stroke="#EFC018" stroke-width="5"/>
<line x1="377.5" y1="375" x2="377.5" y2="340" stroke="#EFC018" stroke-width="5"/>
<line x1="387.5" y1="375" x2="387.5" y2="340" stroke="#EFC018" stroke-width="5"/>
<line x1="397.5" y1="375" x2="397.5" y2="340" stroke="#EFC018" stroke-width="5"/>
<line x1="407.5" y1="375" x2="407.5" y2="340" stroke="#EFC018" stroke-width="5"/>
<line x1="417.5" y1="375" x2="417.5" y2="340" stroke="#EFC018" stroke-width="5"/>
<line x1="427.5" y1="375" x2="427.5" y2="340" stroke="#EFC018" stroke-width="5"/>
<line x1="437.5" y1="375" x2="437.5" y2="340" stroke="#EFC018" stroke-width="5"/>
<line x1="612.5" y1="375" x2="612.5" y2="300" stroke="#EFC018" stroke-width="5"/>
<line x1="627.5" y1="385" x2="627.5" y2="290" stroke="#EFC018" stroke-width="5"/>
<line x1="357.5" y1="226" x2="357.5" y2="20" stroke="#EFC018" stroke-width="5"/>
<line x1="582.5" y1="260" x2="582.5" y2="5" stroke="#EFC018" stroke-width="5"/>
<line x1="568.5" y1="226" x2="568.5" y2="20" stroke="#EFC018" stroke-width="5"/>
<path d="M182 362.5H222V355H229.5V343H174.5V355H182V362.5Z" fill="#56B6C2" stroke="#56B6C2" stroke-width="5"/>
<rect x="90" y="382" width="5" height="8" fill="#D0666F"/>
<rect x="105" y="382" width="5" height="8" fill="#D0666F"/>
<rect x="85" y="387" width="5" height="3" fill="#D0666F"/>
<rect x="100" y="387" width="5" height="3" fill="#D0666F"/>
<rect x="70" y="347" width="5" height="5" fill="#EFC018"/>
<rect x="95" y="347" width="5" height="5" fill="#EFC018"/>
<rect x="70" y="342" width="5" height="5" fill="#EFC018"/>
<rect x="95" y="342" width="5" height="5" fill="#EFC018"/>
<rect x="75" y="337" width="5" height="5" fill="#EFC018"/>
<rect x="80" y="337" width="5" height="5" fill="#EFC018"/>
<rect x="77" y="347" width="5" height="5" fill="#EFC018"/>
<rect x="75" y="360" width="5" height="7" fill="#EFC018"/>
<rect x="75" y="367" width="5" height="5" fill="#EFC018"/>
<rect x="80" y="372" width="5" height="5" fill="#EFC018"/>
<rect x="90" y="365" width="5" height="5" fill="#EFC018"/>
<rect x="95" y="370" width="15" height="5" fill="#EFC018"/>
<rect x="110" y="365" width="5" height="5" fill="#EFC018"/>
<rect x="85" y="377" width="30" height="5" fill="#EFC018"/>
<rect x="100" y="352" width="5" height="5" fill="#EFC018"/>
<rect x="105" y="352" width="5" height="5" fill="#EFC018"/>
<rect x="110" y="352" width="5" height="5" fill="#EFC018"/>
<rect x="120" y="347" width="5" height="5" fill="#EFC018"/>
<rect x="120" y="352" width="5" height="5" fill="#EFC018"/>
<rect x="115" y="352" width="5" height="5" fill="#EFC018"/>
<rect x="120" y="357" width="5" height="15" fill="#EFC018"/>
<rect x="115" y="372" width="5" height="5" fill="#EFC018"/>
<rect x="86" y="347" width="5" height="5" fill="#EFC018"/>
<rect x="85" y="337" width="5" height="5" fill="#EFC018"/>
<rect x="90" y="337" width="5" height="5" fill="#EFC018"/>
<rect x="60" y="350" width="30" height="5" fill="#D0666F"/>
<rect x="65" y="355" width="25" height="5" fill="#D0666F"/>
<line x1="563.5" y1="255" x2="563.5" y2="250" stroke="#4FC485" stroke-width="5"/>
<path d="M379.2 56.2C379.253 56.4133 379.28 56.68 379.28 57C379.28 57.3067 379.253 57.5733 379.2 57.8H378.2C378.253 58.0133 378.28 58.28 378.28 58.6C378.28 58.9067 378.253 59.1733 378.2 59.4H376.6C376.547 59.1733 376.52 58.9067 376.52 58.6C376.52 58.28 376.547 58.0133 376.6 57.8H375.4C375.453 58.0133 375.48 58.28 375.48 58.6C375.48 58.9067 375.453 59.1733 375.4 59.4H373.8C373.747 59.1733 373.72 58.9067 373.72 58.6C373.72 58.28 373.747 58.0133 373.8 57.8H372.8C372.747 57.5733 372.72 57.3067 372.72 57C372.72 56.68 372.747 56.4133 372.8 56.2H373.8C373.747 55.9733 373.72 55.7067 373.72 55.4C373.72 55.08 373.747 54.8133 373.8 54.6C373.747 54.3733 373.72 54.1067 373.72 53.8C373.72 53.48 373.747 53.2133 373.8 53H372.8C372.747 52.7733 372.72 52.5067 372.72 52.2C372.72 51.88 372.747 51.6133 372.8 51.4H373.8C373.747 51.1733 373.72 50.9067 373.72 50.6C373.72 50.28 373.747 50.0133 373.8 49.8H375.4C375.453 50.0133 375.48 50.28 375.48 50.6C375.48 50.9067 375.453 51.1733 375.4 51.4H376.6C376.547 51.1733 376.52 50.9067 376.52 50.6C376.52 50.28 376.547 50.0133 376.6 49.8H378.2C378.253 50.0133 378.28 50.28 378.28 50.6C378.28 50.9067 378.253 51.1733 378.2 51.4H379.2C379.253 51.6133 379.28 51.88 379.28 52.2C379.28 52.5067 379.253 52.7733 379.2 53H378.2C378.253 53.2133 378.28 53.48 378.28 53.8C378.28 54.1067 378.253 54.3733 378.2 54.6C378.253 54.8133 378.28 55.08 378.28 55.4C378.28 55.7067 378.253 55.9733 378.2 56.2H379.2ZM376.6 56.2C376.547 55.9733 376.52 55.7067 376.52 55.4C376.52 55.08 376.547 54.8133 376.6 54.6C376.547 54.3733 376.52 54.1067 376.52 53.8C376.52 53.48 376.547 53.2133 376.6 53H375.4C375.453 53.2133 375.48 53.48 375.48 53.8C375.48 54.1067 375.453 54.3733 375.4 54.6C375.453 54.8133 375.48 55.08 375.48 55.4C375.48 55.7067 375.453 55.9733 375.4 56.2H376.6ZM383.208 51.4C383.154 51.1733 383.128 50.9067 383.128 50.6C383.128 50.28 383.154 50.0133 383.208 49.8H384.808C384.861 50.0133 384.888 50.28 384.888 50.6C384.888 50.9067 384.861 51.1733 384.808 51.4H383.208ZM386.408 59.4C386.461 59.6133 386.488 59.88 386.488 60.2C386.488 60.5067 386.461 60.7733 386.408 61H381.608C381.554 60.7733 381.528 60.5067 381.528 60.2C381.528 59.88 381.554 59.6133 381.608 59.4H383.208C383.154 59.1733 383.128 58.9067 383.128 58.6C383.128 58.28 383.154 58.0133 383.208 57.8C383.154 57.5733 383.128 57.3067 383.128 57C383.128 56.68 383.154 56.4133 383.208 56.2C383.154 55.9733 383.128 55.7067 383.128 55.4C383.128 55.08 383.154 54.8133 383.208 54.6H382.008C381.954 54.3733 381.928 54.1067 381.928 53.8C381.928 53.48 381.954 53.2133 382.008 53H384.808C384.861 53.2133 384.888 53.48 384.888 53.8C384.888 54.1067 384.861 54.3733 384.808 54.6C384.861 54.8133 384.888 55.08 384.888 55.4C384.888 55.7067 384.861 55.9733 384.808 56.2C384.861 56.4133 384.888 56.68 384.888 57C384.888 57.3067 384.861 57.5733 384.808 57.8C384.861 58.0133 384.888 58.28 384.888 58.6C384.888 58.9067 384.861 59.1733 384.808 59.4H386.408ZM390.296 53.8C390.296 54.1067 390.269 54.3733 390.216 54.6H391.016C391.069 54.8133 391.096 55.08 391.096 55.4C391.096 55.7067 391.069 55.9733 391.016 56.2H390.416C390.469 56.4133 390.496 56.68 390.496 57C390.496 57.3067 390.469 57.5733 390.416 57.8C390.469 58.0133 390.496 58.28 390.496 58.6C390.496 58.9067 390.469 59.1733 390.416 59.4C390.469 59.6133 390.496 59.88 390.496 60.2C390.496 60.5067 390.469 60.7733 390.416 61H388.816C388.762 60.7733 388.736 60.5067 388.736 60.2C388.736 59.88 388.762 59.6133 388.816 59.4C388.762 59.1733 388.736 58.9067 388.736 58.6C388.736 58.28 388.762 58.0133 388.816 57.8C388.762 57.5733 388.736 57.3067 388.736 57C388.736 56.68 388.762 56.4133 388.816 56.2C388.762 55.9733 388.736 55.7067 388.736 55.4C388.736 55.08 388.762 54.8133 388.816 54.6C388.762 54.3733 388.736 54.1067 388.736 53.8C388.736 53.48 388.762 53.2133 388.816 53H390.216C390.269 53.2133 390.296 53.48 390.296 53.8ZM395.216 56.2C395.269 56.4133 395.296 56.68 395.296 57C395.296 57.3067 395.269 57.5733 395.216 57.8C395.269 58.0133 395.296 58.28 395.296 58.6C395.296 58.9067 395.269 59.1733 395.216 59.4C395.269 59.6133 395.296 59.88 395.296 60.2C395.296 60.5067 395.269 60.7733 395.216 61H393.616C393.562 60.7733 393.536 60.5067 393.536 60.2C393.536 59.88 393.562 59.6133 393.616 59.4C393.562 59.1733 393.536 58.9067 393.536 58.6C393.536 58.28 393.562 58.0133 393.616 57.8C393.562 57.5733 393.536 57.3067 393.536 57C393.536 56.68 393.562 56.4133 393.616 56.2C393.562 55.9733 393.536 55.7067 393.536 55.4C393.536 55.08 393.562 54.8133 393.616 54.6H391.016C390.962 54.3733 390.936 54.1067 390.936 53.8C390.936 53.48 390.962 53.2133 391.016 53H394.216C394.269 53.2133 394.296 53.48 394.296 53.8C394.296 54.1067 394.269 54.3733 394.216 54.6H395.216C395.269 54.8133 395.296 55.08 395.296 55.4C395.296 55.7067 395.269 55.9733 395.216 56.2ZM403.223 57.8C403.277 58.0133 403.303 58.28 403.303 58.6C403.303 58.9067 403.277 59.1733 403.223 59.4H402.423C402.477 59.6133 402.503 59.88 402.503 60.2C402.503 60.5067 402.477 60.7733 402.423 61H398.423C398.37 60.7733 398.343 60.5067 398.343 60.2C398.343 59.88 398.37 59.6133 398.423 59.4H397.623C397.57 59.1733 397.543 58.9067 397.543 58.6C397.543 58.28 397.57 58.0133 397.623 57.8H396.823C396.77 57.5733 396.743 57.3067 396.743 57C396.743 56.68 396.77 56.4133 396.823 56.2H397.623C397.57 55.9733 397.543 55.7067 397.543 55.4C397.543 55.08 397.57 54.8133 397.623 54.6H398.423C398.37 54.3733 398.343 54.1067 398.343 53.8C398.343 53.48 398.37 53.2133 398.423 53H402.423C402.477 53.2133 402.503 53.48 402.503 53.8C402.503 54.1067 402.477 54.3733 402.423 54.6H403.223C403.277 54.8133 403.303 55.08 403.303 55.4C403.303 55.7067 403.277 55.9733 403.223 56.2H401.623C401.57 55.9733 401.543 55.7067 401.543 55.4C401.543 55.08 401.57 54.8133 401.623 54.6H399.223C399.277 54.8133 399.303 55.08 399.303 55.4C399.303 55.7067 399.277 55.9733 399.223 56.2H398.423C398.477 56.4133 398.503 56.68 398.503 57C398.503 57.3067 398.477 57.5733 398.423 57.8H399.223C399.277 58.0133 399.303 58.28 399.303 58.6C399.303 58.9067 399.277 59.1733 399.223 59.4H401.623C401.57 59.1733 401.543 58.9067 401.543 58.6C401.543 58.28 401.57 58.0133 401.623 57.8H403.223ZM410.431 59.4C410.485 59.6133 410.511 59.88 410.511 60.2C410.511 60.5067 410.485 60.7733 410.431 61H405.631C405.578 60.7733 405.551 60.5067 405.551 60.2C405.551 59.88 405.578 59.6133 405.631 59.4H407.231C407.178 59.1733 407.151 58.9067 407.151 58.6C407.151 58.28 407.178 58.0133 407.231 57.8C407.178 57.5733 407.151 57.3067 407.151 57C407.151 56.68 407.178 56.4133 407.231 56.2C407.178 55.9733 407.151 55.7067 407.151 55.4C407.151 55.08 407.178 54.8133 407.231 54.6C407.178 54.3733 407.151 54.1067 407.151 53.8C407.151 53.48 407.178 53.2133 407.231 53C407.178 52.7733 407.151 52.5067 407.151 52.2C407.151 51.88 407.178 51.6133 407.231 51.4H406.031C405.978 51.1733 405.951 50.9067 405.951 50.6C405.951 50.28 405.978 50.0133 406.031 49.8H408.831C408.885 50.0133 408.911 50.28 408.911 50.6C408.911 50.9067 408.885 51.1733 408.831 51.4C408.885 51.6133 408.911 51.88 408.911 52.2C408.911 52.5067 408.885 52.7733 408.831 53C408.885 53.2133 408.911 53.48 408.911 53.8C408.911 54.1067 408.885 54.3733 408.831 54.6C408.885 54.8133 408.911 55.08 408.911 55.4C408.911 55.7067 408.885 55.9733 408.831 56.2C408.885 56.4133 408.911 56.68 408.911 57C408.911 57.3067 408.885 57.5733 408.831 57.8C408.885 58.0133 408.911 58.28 408.911 58.6C408.911 58.9067 408.885 59.1733 408.831 59.4H410.431ZM415.119 58.6C415.119 58.9067 415.092 59.1733 415.039 59.4H417.039C417.092 59.6133 417.119 59.88 417.119 60.2C417.119 60.5067 417.092 60.7733 417.039 61H413.839C413.786 60.7733 413.759 60.5067 413.759 60.2C413.759 59.88 413.786 59.6133 413.839 59.4H412.839C412.786 59.1733 412.759 58.9067 412.759 58.6C412.759 58.28 412.786 58.0133 412.839 57.8C412.786 57.5733 412.759 57.3067 412.759 57C412.759 56.68 412.786 56.4133 412.839 56.2C412.786 55.9733 412.759 55.7067 412.759 55.4C412.759 55.08 412.786 54.8133 412.839 54.6C412.786 54.3733 412.759 54.1067 412.759 53.8C412.759 53.48 412.786 53.2133 412.839 53H414.439C414.492 53.2133 414.519 53.48 414.519 53.8C414.519 54.1067 414.492 54.3733 414.439 54.6C414.492 54.8133 414.519 55.08 414.519 55.4C414.519 55.7067 414.492 55.9733 414.439 56.2C414.492 56.4133 414.519 56.68 414.519 57C414.519 57.3067 414.492 57.5733 414.439 57.8H415.039C415.092 58.0133 415.119 58.28 415.119 58.6ZM419.239 54.6C419.292 54.8133 419.319 55.08 419.319 55.4C419.319 55.7067 419.292 55.9733 419.239 56.2C419.292 56.4133 419.319 56.68 419.319 57C419.319 57.3067 419.292 57.5733 419.239 57.8C419.292 58.0133 419.319 58.28 419.319 58.6C419.319 58.9067 419.292 59.1733 419.239 59.4C419.292 59.6133 419.319 59.88 419.319 60.2C419.319 60.5067 419.292 60.7733 419.239 61H417.639C417.586 60.7733 417.559 60.5067 417.559 60.2C417.559 59.88 417.586 59.6133 417.639 59.4H417.039C416.986 59.1733 416.959 58.9067 416.959 58.6C416.959 58.28 416.986 58.0133 417.039 57.8H417.639C417.586 57.5733 417.559 57.3067 417.559 57C417.559 56.68 417.586 56.4133 417.639 56.2C417.586 55.9733 417.559 55.7067 417.559 55.4C417.559 55.08 417.586 54.8133 417.639 54.6C417.586 54.3733 417.559 54.1067 417.559 53.8C417.559 53.48 417.586 53.2133 417.639 53H419.239C419.292 53.2133 419.319 53.48 419.319 53.8C419.319 54.1067 419.292 54.3733 419.239 54.6ZM427.247 51.4C427.3 51.6133 427.327 51.88 427.327 52.2C427.327 52.5067 427.3 52.7733 427.247 53C427.3 53.2133 427.327 53.48 427.327 53.8C427.327 54.1067 427.3 54.3733 427.247 54.6C427.3 54.8133 427.327 55.08 427.327 55.4C427.327 55.7067 427.3 55.9733 427.247 56.2C427.3 56.4133 427.327 56.68 427.327 57C427.327 57.3067 427.3 57.5733 427.247 57.8C427.3 58.0133 427.327 58.28 427.327 58.6C427.327 58.9067 427.3 59.1733 427.247 59.4C427.3 59.6133 427.327 59.88 427.327 60.2C427.327 60.5067 427.3 60.7733 427.247 61H425.647C425.594 60.7733 425.567 60.5067 425.567 60.2C425.567 59.88 425.594 59.6133 425.647 59.4H425.047C424.994 59.1733 424.967 58.9067 424.967 58.6C424.967 58.28 424.994 58.0133 425.047 57.8H425.647C425.594 57.5733 425.567 57.3067 425.567 57C425.567 56.68 425.594 56.4133 425.647 56.2H425.047C424.994 55.9733 424.967 55.7067 424.967 55.4C424.967 55.08 424.994 54.8133 425.047 54.6H425.647C425.594 54.3733 425.567 54.1067 425.567 53.8C425.567 53.48 425.594 53.2133 425.647 53C425.594 52.7733 425.567 52.5067 425.567 52.2C425.567 51.88 425.594 51.6133 425.647 51.4C425.594 51.1733 425.567 50.9067 425.567 50.6C425.567 50.28 425.594 50.0133 425.647 49.8H427.247C427.3 50.0133 427.327 50.28 427.327 50.6C427.327 50.9067 427.3 51.1733 427.247 51.4ZM424.727 53.8C424.727 54.1067 424.7 54.3733 424.647 54.6H422.647C422.7 54.8133 422.727 55.08 422.727 55.4C422.727 55.7067 422.7 55.9733 422.647 56.2H422.047C422.1 56.4133 422.127 56.68 422.127 57C422.127 57.3067 422.1 57.5733 422.047 57.8H422.647C422.7 58.0133 422.727 58.28 422.727 58.6C422.727 58.9067 422.7 59.1733 422.647 59.4H424.647C424.7 59.6133 424.727 59.88 424.727 60.2C424.727 60.5067 424.7 60.7733 424.647 61H422.447C422.394 60.7733 422.367 60.5067 422.367 60.2C422.367 59.88 422.394 59.6133 422.447 59.4H421.447C421.394 59.1733 421.367 58.9067 421.367 58.6C421.367 58.28 421.394 58.0133 421.447 57.8H420.847C420.794 57.5733 420.767 57.3067 420.767 57C420.767 56.68 420.794 56.4133 420.847 56.2H421.447C421.394 55.9733 421.367 55.7067 421.367 55.4C421.367 55.08 421.394 54.8133 421.447 54.6H422.447C422.394 54.3733 422.367 54.1067 422.367 53.8C422.367 53.48 422.394 53.2133 422.447 53H424.647C424.7 53.2133 424.727 53.48 424.727 53.8ZM435.335 55.4C435.335 55.7067 435.308 55.9733 435.255 56.2C435.308 56.4133 435.335 56.68 435.335 57C435.335 57.3067 435.308 57.5733 435.255 57.8H431.055C431.108 58.0133 431.135 58.28 431.135 58.6C431.135 58.9067 431.108 59.1733 431.055 59.4H434.455C434.508 59.6133 434.535 59.88 434.535 60.2C434.535 60.5067 434.508 60.7733 434.455 61H430.455C430.401 60.7733 430.375 60.5067 430.375 60.2C430.375 59.88 430.401 59.6133 430.455 59.4H429.455C429.401 59.1733 429.375 58.9067 429.375 58.6C429.375 58.28 429.401 58.0133 429.455 57.8H428.855C428.801 57.5733 428.775 57.3067 428.775 57C428.775 56.68 428.801 56.4133 428.855 56.2H429.455C429.401 55.9733 429.375 55.7067 429.375 55.4C429.375 55.08 429.401 54.8133 429.455 54.6H430.455C430.401 54.3733 430.375 54.1067 430.375 53.8C430.375 53.48 430.401 53.2133 430.455 53H434.455C434.508 53.2133 434.535 53.48 434.535 53.8C434.535 54.1067 434.508 54.3733 434.455 54.6H435.255C435.308 54.8133 435.335 55.08 435.335 55.4ZM433.655 56.2C433.601 55.9733 433.575 55.7067 433.575 55.4C433.575 55.08 433.601 54.8133 433.655 54.6H431.055C431.108 54.8133 431.135 55.08 431.135 55.4C431.135 55.7067 431.108 55.9733 431.055 56.2H433.655ZM450.37 59.4C450.424 59.6133 450.45 59.88 450.45 60.2C450.45 60.5067 450.424 60.7733 450.37 61H448.77C448.717 60.7733 448.69 60.5067 448.69 60.2C448.69 59.88 448.717 59.6133 448.77 59.4H447.77C447.717 59.1733 447.69 58.9067 447.69 58.6C447.69 58.28 447.717 58.0133 447.77 57.8H446.77C446.717 57.5733 446.69 57.3067 446.69 57C446.69 56.68 446.717 56.4133 446.77 56.2H445.77C445.717 55.9733 445.69 55.7067 445.69 55.4C445.69 55.08 445.717 54.8133 445.77 54.6H446.77C446.717 54.3733 446.69 54.1067 446.69 53.8C446.69 53.48 446.717 53.2133 446.77 53H447.77C447.717 52.7733 447.69 52.5067 447.69 52.2C447.69 51.88 447.717 51.6133 447.77 51.4H448.77C448.717 51.1733 448.69 50.9067 448.69 50.6C448.69 50.28 448.717 50.0133 448.77 49.8H450.37C450.424 50.0133 450.45 50.28 450.45 50.6C450.45 50.9067 450.424 51.1733 450.37 51.4H449.37C449.424 51.6133 449.45 51.88 449.45 52.2C449.45 52.5067 449.424 52.7733 449.37 53H448.37C448.424 53.2133 448.45 53.48 448.45 53.8C448.45 54.1067 448.424 54.3733 448.37 54.6H447.37C447.424 54.8133 447.45 55.08 447.45 55.4C447.45 55.7067 447.424 55.9733 447.37 56.2H448.37C448.424 56.4133 448.45 56.68 448.45 57C448.45 57.3067 448.424 57.5733 448.37 57.8H449.37C449.424 58.0133 449.45 58.28 449.45 58.6C449.45 58.9067 449.424 59.1733 449.37 59.4H450.37ZM458.958 58.6C458.958 58.9067 458.931 59.1733 458.878 59.4H458.078C458.131 59.6133 458.158 59.88 458.158 60.2C458.158 60.5067 458.131 60.7733 458.078 61H453.678C453.625 60.7733 453.598 60.5067 453.598 60.2C453.598 59.88 453.625 59.6133 453.678 59.4H457.278C457.225 59.1733 457.198 58.9067 457.198 58.6C457.198 58.28 457.225 58.0133 457.278 57.8H454.078C454.025 57.5733 453.998 57.3067 453.998 57C453.998 56.68 454.025 56.4133 454.078 56.2H453.278C453.225 55.9733 453.198 55.7067 453.198 55.4C453.198 55.08 453.225 54.8133 453.278 54.6H454.078C454.025 54.3733 453.998 54.1067 453.998 53.8C453.998 53.48 454.025 53.2133 454.078 53H458.478C458.531 53.2133 458.558 53.48 458.558 53.8C458.558 54.1067 458.531 54.3733 458.478 54.6H454.878C454.931 54.8133 454.958 55.08 454.958 55.4C454.958 55.7067 454.931 55.9733 454.878 56.2H458.078C458.131 56.4133 458.158 56.68 458.158 57C458.158 57.3067 458.131 57.5733 458.078 57.8H458.878C458.931 58.0133 458.958 58.28 458.958 58.6ZM466.486 59.4C466.539 59.6133 466.566 59.88 466.566 60.2C466.566 60.5067 466.539 60.7733 466.486 61H463.286C463.233 60.7733 463.206 60.5067 463.206 60.2C463.206 59.88 463.233 59.6133 463.286 59.4H462.486C462.433 59.1733 462.406 58.9067 462.406 58.6C462.406 58.28 462.433 58.0133 462.486 57.8C462.433 57.5733 462.406 57.3067 462.406 57C462.406 56.68 462.433 56.4133 462.486 56.2C462.433 55.9733 462.406 55.7067 462.406 55.4C462.406 55.08 462.433 54.8133 462.486 54.6H460.886C460.833 54.3733 460.806 54.1067 460.806 53.8C460.806 53.48 460.833 53.2133 460.886 53H462.486C462.433 52.7733 462.406 52.5067 462.406 52.2C462.406 51.88 462.433 51.6133 462.486 51.4C462.433 51.1733 462.406 50.9067 462.406 50.6C462.406 50.28 462.433 50.0133 462.486 49.8H464.086C464.139 50.0133 464.166 50.28 464.166 50.6C464.166 50.9067 464.139 51.1733 464.086 51.4C464.139 51.6133 464.166 51.88 464.166 52.2C464.166 52.5067 464.139 52.7733 464.086 53H466.486C466.539 53.2133 466.566 53.48 466.566 53.8C466.566 54.1067 466.539 54.3733 466.486 54.6H464.086C464.139 54.8133 464.166 55.08 464.166 55.4C464.166 55.7067 464.139 55.9733 464.086 56.2C464.139 56.4133 464.166 56.68 464.166 57C464.166 57.3067 464.139 57.5733 464.086 57.8C464.139 58.0133 464.166 58.28 464.166 58.6C464.166 58.9067 464.139 59.1733 464.086 59.4H466.486ZM475.294 51.4C475.347 51.6133 475.374 51.88 475.374 52.2C475.374 52.5067 475.347 52.7733 475.294 53C475.347 53.2133 475.374 53.48 475.374 53.8C475.374 54.1067 475.347 54.3733 475.294 54.6C475.347 54.8133 475.374 55.08 475.374 55.4C475.374 55.7067 475.347 55.9733 475.294 56.2C475.347 56.4133 475.374 56.68 475.374 57C475.374 57.3067 475.347 57.5733 475.294 57.8C475.347 58.0133 475.374 58.28 475.374 58.6C475.374 58.9067 475.347 59.1733 475.294 59.4C475.347 59.6133 475.374 59.88 475.374 60.2C475.374 60.5067 475.347 60.7733 475.294 61H473.694C473.64 60.7733 473.614 60.5067 473.614 60.2C473.614 59.88 473.64 59.6133 473.694 59.4H473.094C473.04 59.1733 473.014 58.9067 473.014 58.6C473.014 58.28 473.04 58.0133 473.094 57.8H473.694C473.64 57.5733 473.614 57.3067 473.614 57C473.614 56.68 473.64 56.4133 473.694 56.2H473.094C473.04 55.9733 473.014 55.7067 473.014 55.4C473.014 55.08 473.04 54.8133 473.094 54.6H473.694C473.64 54.3733 473.614 54.1067 473.614 53.8C473.614 53.48 473.64 53.2133 473.694 53C473.64 52.7733 473.614 52.5067 473.614 52.2C473.614 51.88 473.64 51.6133 473.694 51.4C473.64 51.1733 473.614 50.9067 473.614 50.6C473.614 50.28 473.64 50.0133 473.694 49.8H475.294C475.347 50.0133 475.374 50.28 475.374 50.6C475.374 50.9067 475.347 51.1733 475.294 51.4ZM472.774 53.8C472.774 54.1067 472.747 54.3733 472.694 54.6H470.694C470.747 54.8133 470.774 55.08 470.774 55.4C470.774 55.7067 470.747 55.9733 470.694 56.2H470.094C470.147 56.4133 470.174 56.68 470.174 57C470.174 57.3067 470.147 57.5733 470.094 57.8H470.694C470.747 58.0133 470.774 58.28 470.774 58.6C470.774 58.9067 470.747 59.1733 470.694 59.4H472.694C472.747 59.6133 472.774 59.88 472.774 60.2C472.774 60.5067 472.747 60.7733 472.694 61H470.494C470.44 60.7733 470.414 60.5067 470.414 60.2C470.414 59.88 470.44 59.6133 470.494 59.4H469.494C469.44 59.1733 469.414 58.9067 469.414 58.6C469.414 58.28 469.44 58.0133 469.494 57.8H468.894C468.84 57.5733 468.814 57.3067 468.814 57C468.814 56.68 468.84 56.4133 468.894 56.2H469.494C469.44 55.9733 469.414 55.7067 469.414 55.4C469.414 55.08 469.44 54.8133 469.494 54.6H470.494C470.44 54.3733 470.414 54.1067 470.414 53.8C470.414 53.48 470.44 53.2133 470.494 53H472.694C472.747 53.2133 472.774 53.48 472.774 53.8ZM479.302 51.4C479.248 51.1733 479.222 50.9067 479.222 50.6C479.222 50.28 479.248 50.0133 479.302 49.8H480.902C480.955 50.0133 480.982 50.28 480.982 50.6C480.982 50.9067 480.955 51.1733 480.902 51.4H479.302ZM482.502 59.4C482.555 59.6133 482.582 59.88 482.582 60.2C482.582 60.5067 482.555 60.7733 482.502 61H477.702C477.648 60.7733 477.622 60.5067 477.622 60.2C477.622 59.88 477.648 59.6133 477.702 59.4H479.302C479.248 59.1733 479.222 58.9067 479.222 58.6C479.222 58.28 479.248 58.0133 479.302 57.8C479.248 57.5733 479.222 57.3067 479.222 57C479.222 56.68 479.248 56.4133 479.302 56.2C479.248 55.9733 479.222 55.7067 479.222 55.4C479.222 55.08 479.248 54.8133 479.302 54.6H478.102C478.048 54.3733 478.022 54.1067 478.022 53.8C478.022 53.48 478.048 53.2133 478.102 53H480.902C480.955 53.2133 480.982 53.48 480.982 53.8C480.982 54.1067 480.955 54.3733 480.902 54.6C480.955 54.8133 480.982 55.08 480.982 55.4C480.982 55.7067 480.955 55.9733 480.902 56.2C480.955 56.4133 480.982 56.68 480.982 57C480.982 57.3067 480.955 57.5733 480.902 57.8C480.955 58.0133 480.982 58.28 480.982 58.6C480.982 58.9067 480.955 59.1733 480.902 59.4H482.502ZM491.389 57C491.389 57.3067 491.363 57.5733 491.309 57.8H490.709C490.763 58.0133 490.789 58.28 490.789 58.6C490.789 58.9067 490.763 59.1733 490.709 59.4H489.709C489.763 59.6133 489.789 59.88 489.789 60.2C489.789 60.5067 489.763 60.7733 489.709 61H486.509C486.456 60.7733 486.429 60.5067 486.429 60.2C486.429 59.88 486.456 59.6133 486.509 59.4H485.509C485.456 59.1733 485.429 58.9067 485.429 58.6C485.429 58.28 485.456 58.0133 485.509 57.8H484.909C484.856 57.5733 484.829 57.3067 484.829 57C484.829 56.68 484.856 56.4133 484.909 56.2H485.509C485.456 55.9733 485.429 55.7067 485.429 55.4C485.429 55.08 485.456 54.8133 485.509 54.6H486.509C486.456 54.3733 486.429 54.1067 486.429 53.8C486.429 53.48 486.456 53.2133 486.509 53H489.709C489.763 53.2133 489.789 53.48 489.789 53.8C489.789 54.1067 489.763 54.3733 489.709 54.6H490.709C490.763 54.8133 490.789 55.08 490.789 55.4C490.789 55.7067 490.763 55.9733 490.709 56.2H491.309C491.363 56.4133 491.389 56.68 491.389 57ZM489.709 57.8C489.656 57.5733 489.629 57.3067 489.629 57C489.629 56.68 489.656 56.4133 489.709 56.2H489.109C489.056 55.9733 489.029 55.7067 489.029 55.4C489.029 55.08 489.056 54.8133 489.109 54.6H487.109C487.163 54.8133 487.189 55.08 487.189 55.4C487.189 55.7067 487.163 55.9733 487.109 56.2H486.509C486.563 56.4133 486.589 56.68 486.589 57C486.589 57.3067 486.563 57.5733 486.509 57.8H487.109C487.163 58.0133 487.189 58.28 487.189 58.6C487.189 58.9067 487.163 59.1733 487.109 59.4H489.109C489.056 59.1733 489.029 58.9067 489.029 58.6C489.029 58.28 489.056 58.0133 489.109 57.8H489.709ZM497.197 58.6C497.197 58.9067 497.171 59.1733 497.117 59.4C497.171 59.6133 497.197 59.88 497.197 60.2C497.197 60.5067 497.171 60.7733 497.117 61H495.117C495.064 60.7733 495.037 60.5067 495.037 60.2C495.037 59.88 495.064 59.6133 495.117 59.4C495.064 59.1733 495.037 58.9067 495.037 58.6C495.037 58.28 495.064 58.0133 495.117 57.8H497.117C497.171 58.0133 497.197 58.28 497.197 58.6ZM502.605 53.8C502.605 54.1067 502.578 54.3733 502.525 54.6H503.125C503.178 54.8133 503.205 55.08 503.205 55.4C503.205 55.7067 503.178 55.9733 503.125 56.2H502.525C502.578 56.4133 502.605 56.68 502.605 57C502.605 57.3067 502.578 57.5733 502.525 57.8C502.578 58.0133 502.605 58.28 502.605 58.6C502.605 58.9067 502.578 59.1733 502.525 59.4C502.578 59.6133 502.605 59.88 502.605 60.2C502.605 60.5067 502.578 60.7733 502.525 61H500.925C500.872 60.7733 500.845 60.5067 500.845 60.2C500.845 59.88 500.872 59.6133 500.925 59.4C500.872 59.1733 500.845 58.9067 500.845 58.6C500.845 58.28 500.872 58.0133 500.925 57.8C500.872 57.5733 500.845 57.3067 500.845 57C500.845 56.68 500.872 56.4133 500.925 56.2C500.872 55.9733 500.845 55.7067 500.845 55.4C500.845 55.08 500.872 54.8133 500.925 54.6C500.872 54.3733 500.845 54.1067 500.845 53.8C500.845 53.48 500.872 53.2133 500.925 53C500.872 52.7733 500.845 52.5067 500.845 52.2C500.845 51.88 500.872 51.6133 500.925 51.4C500.872 51.1733 500.845 50.9067 500.845 50.6C500.845 50.28 500.872 50.0133 500.925 49.8H502.525C502.578 50.0133 502.605 50.28 502.605 50.6C502.605 50.9067 502.578 51.1733 502.525 51.4C502.578 51.6133 502.605 51.88 502.605 52.2C502.605 52.5067 502.578 52.7733 502.525 53C502.578 53.2133 502.605 53.48 502.605 53.8ZM507.325 56.2C507.378 56.4133 507.405 56.68 507.405 57C507.405 57.3067 507.378 57.5733 507.325 57.8C507.378 58.0133 507.405 58.28 507.405 58.6C507.405 58.9067 507.378 59.1733 507.325 59.4C507.378 59.6133 507.405 59.88 507.405 60.2C507.405 60.5067 507.378 60.7733 507.325 61H505.725C505.672 60.7733 505.645 60.5067 505.645 60.2C505.645 59.88 505.672 59.6133 505.725 59.4C505.672 59.1733 505.645 58.9067 505.645 58.6C505.645 58.28 505.672 58.0133 505.725 57.8C505.672 57.5733 505.645 57.3067 505.645 57C505.645 56.68 505.672 56.4133 505.725 56.2C505.672 55.9733 505.645 55.7067 505.645 55.4C505.645 55.08 505.672 54.8133 505.725 54.6H503.125C503.072 54.3733 503.045 54.1067 503.045 53.8C503.045 53.48 503.072 53.2133 503.125 53H506.325C506.378 53.2133 506.405 53.48 506.405 53.8C506.405 54.1067 506.378 54.3733 506.325 54.6H507.325C507.378 54.8133 507.405 55.08 507.405 55.4C507.405 55.7067 507.378 55.9733 507.325 56.2ZM514.513 55.4C514.513 55.7067 514.486 55.9733 514.433 56.2H513.433C513.486 56.4133 513.513 56.68 513.513 57C513.513 57.3067 513.486 57.5733 513.433 57.8H512.433C512.486 58.0133 512.513 58.28 512.513 58.6C512.513 58.9067 512.486 59.1733 512.433 59.4H511.433C511.486 59.6133 511.513 59.88 511.513 60.2C511.513 60.5067 511.486 60.7733 511.433 61H509.833C509.779 60.7733 509.753 60.5067 509.753 60.2C509.753 59.88 509.779 59.6133 509.833 59.4H510.833C510.779 59.1733 510.753 58.9067 510.753 58.6C510.753 58.28 510.779 58.0133 510.833 57.8H511.833C511.779 57.5733 511.753 57.3067 511.753 57C511.753 56.68 511.779 56.4133 511.833 56.2H512.833C512.779 55.9733 512.753 55.7067 512.753 55.4C512.753 55.08 512.779 54.8133 512.833 54.6H511.833C511.779 54.3733 511.753 54.1067 511.753 53.8C511.753 53.48 511.779 53.2133 511.833 53H510.833C510.779 52.7733 510.753 52.5067 510.753 52.2C510.753 51.88 510.779 51.6133 510.833 51.4H509.833C509.779 51.1733 509.753 50.9067 509.753 50.6C509.753 50.28 509.779 50.0133 509.833 49.8H511.433C511.486 50.0133 511.513 50.28 511.513 50.6C511.513 50.9067 511.486 51.1733 511.433 51.4H512.433C512.486 51.6133 512.513 51.88 512.513 52.2C512.513 52.5067 512.486 52.7733 512.433 53H513.433C513.486 53.2133 513.513 53.48 513.513 53.8C513.513 54.1067 513.486 54.3733 513.433 54.6H514.433C514.486 54.8133 514.513 55.08 514.513 55.4ZM375.2 101.4C375.147 101.173 375.12 100.907 375.12 100.6C375.12 100.28 375.147 100.013 375.2 99.8H376.8C376.853 100.013 376.88 100.28 376.88 100.6C376.88 100.907 376.853 101.173 376.8 101.4H375.2ZM378.4 109.4C378.453 109.613 378.48 109.88 378.48 110.2C378.48 110.507 378.453 110.773 378.4 111H373.6C373.547 110.773 373.52 110.507 373.52 110.2C373.52 109.88 373.547 109.613 373.6 109.4H375.2C375.147 109.173 375.12 108.907 375.12 108.6C375.12 108.28 375.147 108.013 375.2 107.8C375.147 107.573 375.12 107.307 375.12 107C375.12 106.68 375.147 106.413 375.2 106.2C375.147 105.973 375.12 105.707 375.12 105.4C375.12 105.08 375.147 104.813 375.2 104.6H374C373.947 104.373 373.92 104.107 373.92 103.8C373.92 103.48 373.947 103.213 374 103H376.8C376.853 103.213 376.88 103.48 376.88 103.8C376.88 104.107 376.853 104.373 376.8 104.6C376.853 104.813 376.88 105.08 376.88 105.4C376.88 105.707 376.853 105.973 376.8 106.2C376.853 106.413 376.88 106.68 376.88 107C376.88 107.307 376.853 107.573 376.8 107.8C376.853 108.013 376.88 108.28 376.88 108.6C376.88 108.907 376.853 109.173 376.8 109.4H378.4ZM382.288 103.8C382.288 104.107 382.261 104.373 382.208 104.6H383.008C383.061 104.813 383.088 105.08 383.088 105.4C383.088 105.707 383.061 105.973 383.008 106.2H382.408C382.461 106.413 382.488 106.68 382.488 107C382.488 107.307 382.461 107.573 382.408 107.8C382.461 108.013 382.488 108.28 382.488 108.6C382.488 108.907 382.461 109.173 382.408 109.4C382.461 109.613 382.488 109.88 382.488 110.2C382.488 110.507 382.461 110.773 382.408 111H380.808C380.754 110.773 380.728 110.507 380.728 110.2C380.728 109.88 380.754 109.613 380.808 109.4C380.754 109.173 380.728 108.907 380.728 108.6C380.728 108.28 380.754 108.013 380.808 107.8C380.754 107.573 380.728 107.307 380.728 107C380.728 106.68 380.754 106.413 380.808 106.2C380.754 105.973 380.728 105.707 380.728 105.4C380.728 105.08 380.754 104.813 380.808 104.6C380.754 104.373 380.728 104.107 380.728 103.8C380.728 103.48 380.754 103.213 380.808 103H382.208C382.261 103.213 382.288 103.48 382.288 103.8ZM387.208 106.2C387.261 106.413 387.288 106.68 387.288 107C387.288 107.307 387.261 107.573 387.208 107.8C387.261 108.013 387.288 108.28 387.288 108.6C387.288 108.907 387.261 109.173 387.208 109.4C387.261 109.613 387.288 109.88 387.288 110.2C387.288 110.507 387.261 110.773 387.208 111H385.608C385.554 110.773 385.528 110.507 385.528 110.2C385.528 109.88 385.554 109.613 385.608 109.4C385.554 109.173 385.528 108.907 385.528 108.6C385.528 108.28 385.554 108.013 385.608 107.8C385.554 107.573 385.528 107.307 385.528 107C385.528 106.68 385.554 106.413 385.608 106.2C385.554 105.973 385.528 105.707 385.528 105.4C385.528 105.08 385.554 104.813 385.608 104.6H383.008C382.954 104.373 382.928 104.107 382.928 103.8C382.928 103.48 382.954 103.213 383.008 103H386.208C386.261 103.213 386.288 103.48 386.288 103.8C386.288 104.107 386.261 104.373 386.208 104.6H387.208C387.261 104.813 387.288 105.08 387.288 105.4C387.288 105.707 387.261 105.973 387.208 106.2ZM394.416 109.4C394.469 109.613 394.496 109.88 394.496 110.2C394.496 110.507 394.469 110.773 394.416 111H391.216C391.162 110.773 391.136 110.507 391.136 110.2C391.136 109.88 391.162 109.613 391.216 109.4H390.416C390.362 109.173 390.336 108.907 390.336 108.6C390.336 108.28 390.362 108.013 390.416 107.8C390.362 107.573 390.336 107.307 390.336 107C390.336 106.68 390.362 106.413 390.416 106.2C390.362 105.973 390.336 105.707 390.336 105.4C390.336 105.08 390.362 104.813 390.416 104.6H388.816C388.762 104.373 388.736 104.107 388.736 103.8C388.736 103.48 388.762 103.213 388.816 103H390.416C390.362 102.773 390.336 102.507 390.336 102.2C390.336 101.88 390.362 101.613 390.416 101.4C390.362 101.173 390.336 100.907 390.336 100.6C390.336 100.28 390.362 100.013 390.416 99.8H392.016C392.069 100.013 392.096 100.28 392.096 100.6C392.096 100.907 392.069 101.173 392.016 101.4C392.069 101.613 392.096 101.88 392.096 102.2C392.096 102.507 392.069 102.773 392.016 103H394.416C394.469 103.213 394.496 103.48 394.496 103.8C394.496 104.107 394.469 104.373 394.416 104.6H392.016C392.069 104.813 392.096 105.08 392.096 105.4C392.096 105.707 392.069 105.973 392.016 106.2C392.069 106.413 392.096 106.68 392.096 107C392.096 107.307 392.069 107.573 392.016 107.8C392.069 108.013 392.096 108.28 392.096 108.6C392.096 108.907 392.069 109.173 392.016 109.4H394.416ZM405.911 103.8C405.911 104.107 405.885 104.373 405.831 104.6H406.431C406.485 104.813 406.511 105.08 406.511 105.4C406.511 105.707 406.485 105.973 406.431 106.2C406.485 106.413 406.511 106.68 406.511 107C406.511 107.307 406.485 107.573 406.431 107.8C406.485 108.013 406.511 108.28 406.511 108.6C406.511 108.907 406.485 109.173 406.431 109.4C406.485 109.613 406.511 109.88 406.511 110.2C406.511 110.507 406.485 110.773 406.431 111H404.831C404.778 110.773 404.751 110.507 404.751 110.2C404.751 109.88 404.778 109.613 404.831 109.4C404.778 109.173 404.751 108.907 404.751 108.6C404.751 108.28 404.778 108.013 404.831 107.8C404.778 107.573 404.751 107.307 404.751 107C404.751 106.68 404.778 106.413 404.831 106.2C404.778 105.973 404.751 105.707 404.751 105.4C404.751 105.08 404.778 104.813 404.831 104.6C404.778 104.373 404.751 104.107 404.751 103.8C404.751 103.48 404.778 103.213 404.831 103H405.831C405.885 103.213 405.911 103.48 405.911 103.8ZM408.111 103.8C408.111 104.107 408.085 104.373 408.031 104.6H408.631C408.685 104.813 408.711 105.08 408.711 105.4C408.711 105.707 408.685 105.973 408.631 106.2C408.685 106.413 408.711 106.68 408.711 107C408.711 107.307 408.685 107.573 408.631 107.8C408.685 108.013 408.711 108.28 408.711 108.6C408.711 108.907 408.685 109.173 408.631 109.4C408.685 109.613 408.711 109.88 408.711 110.2C408.711 110.507 408.685 110.773 408.631 111H407.431C407.378 110.773 407.351 110.507 407.351 110.2C407.351 109.88 407.378 109.613 407.431 109.4C407.378 109.173 407.351 108.907 407.351 108.6C407.351 108.28 407.378 108.013 407.431 107.8C407.378 107.573 407.351 107.307 407.351 107C407.351 106.68 407.378 106.413 407.431 106.2C407.378 105.973 407.351 105.707 407.351 105.4C407.351 105.08 407.378 104.813 407.431 104.6H406.431C406.378 104.373 406.351 104.107 406.351 103.8C406.351 103.48 406.378 103.213 406.431 103H408.031C408.085 103.213 408.111 103.48 408.111 103.8ZM411.231 106.2C411.285 106.413 411.311 106.68 411.311 107C411.311 107.307 411.285 107.573 411.231 107.8C411.285 108.013 411.311 108.28 411.311 108.6C411.311 108.907 411.285 109.173 411.231 109.4C411.285 109.613 411.311 109.88 411.311 110.2C411.311 110.507 411.285 110.773 411.231 111H409.631C409.578 110.773 409.551 110.507 409.551 110.2C409.551 109.88 409.578 109.613 409.631 109.4C409.578 109.173 409.551 108.907 409.551 108.6C409.551 108.28 409.578 108.013 409.631 107.8C409.578 107.573 409.551 107.307 409.551 107C409.551 106.68 409.578 106.413 409.631 106.2C409.578 105.973 409.551 105.707 409.551 105.4C409.551 105.08 409.578 104.813 409.631 104.6H408.631C408.578 104.373 408.551 104.107 408.551 103.8C408.551 103.48 408.578 103.213 408.631 103H410.431C410.485 103.213 410.511 103.48 410.511 103.8C410.511 104.107 410.485 104.373 410.431 104.6H411.231C411.285 104.813 411.311 105.08 411.311 105.4C411.311 105.707 411.285 105.973 411.231 106.2ZM419.239 109.4C419.292 109.613 419.319 109.88 419.319 110.2C419.319 110.507 419.292 110.773 419.239 111H417.639C417.586 110.773 417.559 110.507 417.559 110.2C417.559 109.88 417.586 109.613 417.639 109.4H416.839C416.786 109.173 416.759 108.907 416.759 108.6C416.759 108.28 416.786 108.013 416.839 107.8H414.439C414.492 108.013 414.519 108.28 414.519 108.6C414.519 108.907 414.492 109.173 414.439 109.4H416.839C416.892 109.613 416.919 109.88 416.919 110.2C416.919 110.507 416.892 110.773 416.839 111H413.639C413.586 110.773 413.559 110.507 413.559 110.2C413.559 109.88 413.586 109.613 413.639 109.4H412.839C412.786 109.173 412.759 108.907 412.759 108.6C412.759 108.28 412.786 108.013 412.839 107.8H413.639C413.586 107.573 413.559 107.307 413.559 107C413.559 106.68 413.586 106.413 413.639 106.2H416.839C416.786 105.973 416.759 105.707 416.759 105.4C416.759 105.08 416.786 104.813 416.839 104.6H414.039C413.986 104.373 413.959 104.107 413.959 103.8C413.959 103.48 413.986 103.213 414.039 103H417.639C417.692 103.213 417.719 103.48 417.719 103.8C417.719 104.107 417.692 104.373 417.639 104.6H418.439C418.492 104.813 418.519 105.08 418.519 105.4C418.519 105.707 418.492 105.973 418.439 106.2C418.492 106.413 418.519 106.68 418.519 107C418.519 107.307 418.492 107.573 418.439 107.8C418.492 108.013 418.519 108.28 418.519 108.6C418.519 108.907 418.492 109.173 418.439 109.4H419.239ZM423.247 101.4C423.194 101.173 423.167 100.907 423.167 100.6C423.167 100.28 423.194 100.013 423.247 99.8H424.847C424.9 100.013 424.927 100.28 424.927 100.6C424.927 100.907 424.9 101.173 424.847 101.4H423.247ZM426.447 109.4C426.5 109.613 426.527 109.88 426.527 110.2C426.527 110.507 426.5 110.773 426.447 111H421.647C421.594 110.773 421.567 110.507 421.567 110.2C421.567 109.88 421.594 109.613 421.647 109.4H423.247C423.194 109.173 423.167 108.907 423.167 108.6C423.167 108.28 423.194 108.013 423.247 107.8C423.194 107.573 423.167 107.307 423.167 107C423.167 106.68 423.194 106.413 423.247 106.2C423.194 105.973 423.167 105.707 423.167 105.4C423.167 105.08 423.194 104.813 423.247 104.6H422.047C421.994 104.373 421.967 104.107 421.967 103.8C421.967 103.48 421.994 103.213 422.047 103H424.847C424.9 103.213 424.927 103.48 424.927 103.8C424.927 104.107 424.9 104.373 424.847 104.6C424.9 104.813 424.927 105.08 424.927 105.4C424.927 105.707 424.9 105.973 424.847 106.2C424.9 106.413 424.927 106.68 424.927 107C424.927 107.307 424.9 107.573 424.847 107.8C424.9 108.013 424.927 108.28 424.927 108.6C424.927 108.907 424.9 109.173 424.847 109.4H426.447ZM430.335 103.8C430.335 104.107 430.308 104.373 430.255 104.6H431.055C431.108 104.813 431.135 105.08 431.135 105.4C431.135 105.707 431.108 105.973 431.055 106.2H430.455C430.508 106.413 430.535 106.68 430.535 107C430.535 107.307 430.508 107.573 430.455 107.8C430.508 108.013 430.535 108.28 430.535 108.6C430.535 108.907 430.508 109.173 430.455 109.4C430.508 109.613 430.535 109.88 430.535 110.2C430.535 110.507 430.508 110.773 430.455 111H428.855C428.801 110.773 428.775 110.507 428.775 110.2C428.775 109.88 428.801 109.613 428.855 109.4C428.801 109.173 428.775 108.907 428.775 108.6C428.775 108.28 428.801 108.013 428.855 107.8C428.801 107.573 428.775 107.307 428.775 107C428.775 106.68 428.801 106.413 428.855 106.2C428.801 105.973 428.775 105.707 428.775 105.4C428.775 105.08 428.801 104.813 428.855 104.6C428.801 104.373 428.775 104.107 428.775 103.8C428.775 103.48 428.801 103.213 428.855 103H430.255C430.308 103.213 430.335 103.48 430.335 103.8ZM435.255 106.2C435.308 106.413 435.335 106.68 435.335 107C435.335 107.307 435.308 107.573 435.255 107.8C435.308 108.013 435.335 108.28 435.335 108.6C435.335 108.907 435.308 109.173 435.255 109.4C435.308 109.613 435.335 109.88 435.335 110.2C435.335 110.507 435.308 110.773 435.255 111H433.655C433.601 110.773 433.575 110.507 433.575 110.2C433.575 109.88 433.601 109.613 433.655 109.4C433.601 109.173 433.575 108.907 433.575 108.6C433.575 108.28 433.601 108.013 433.655 107.8C433.601 107.573 433.575 107.307 433.575 107C433.575 106.68 433.601 106.413 433.655 106.2C433.601 105.973 433.575 105.707 433.575 105.4C433.575 105.08 433.601 104.813 433.655 104.6H431.055C431.001 104.373 430.975 104.107 430.975 103.8C430.975 103.48 431.001 103.213 431.055 103H434.255C434.308 103.213 434.335 103.48 434.335 103.8C434.335 104.107 434.308 104.373 434.255 104.6H435.255C435.308 104.813 435.335 105.08 435.335 105.4C435.335 105.707 435.308 105.973 435.255 106.2ZM441.843 99C441.843 99.3067 441.816 99.5733 441.763 99.8H440.763C440.709 99.5733 440.683 99.3067 440.683 99C440.683 98.68 440.709 98.4133 440.763 98.2H441.763C441.816 98.4133 441.843 98.68 441.843 99ZM440.763 109.4C440.816 109.613 440.843 109.88 440.843 110.2C440.843 110.507 440.816 110.773 440.763 111H439.763C439.709 110.773 439.683 110.507 439.683 110.2C439.683 109.88 439.709 109.613 439.763 109.4H439.263C439.209 109.173 439.183 108.907 439.183 108.6C439.183 108.28 439.209 108.013 439.263 107.8H438.663C438.609 107.573 438.583 107.307 438.583 107C438.583 106.68 438.609 106.413 438.663 106.2C438.609 105.973 438.583 105.707 438.583 105.4C438.583 105.08 438.609 104.813 438.663 104.6C438.609 104.373 438.583 104.107 438.583 103.8C438.583 103.48 438.609 103.213 438.663 103H439.263C439.209 102.773 439.183 102.507 439.183 102.2C439.183 101.88 439.209 101.613 439.263 101.4H439.763C439.709 101.173 439.683 100.907 439.683 100.6C439.683 100.28 439.709 100.013 439.763 99.8H440.763C440.816 100.013 440.843 100.28 440.843 100.6C440.843 100.907 440.816 101.173 440.763 101.4H440.263C440.316 101.613 440.343 101.88 440.343 102.2C440.343 102.507 440.316 102.773 440.263 103C440.316 103.213 440.343 103.48 440.343 103.8C440.343 104.107 440.316 104.373 440.263 104.6C440.316 104.813 440.343 105.08 440.343 105.4C440.343 105.707 440.316 105.973 440.263 106.2C440.316 106.413 440.343 106.68 440.343 107C440.343 107.307 440.316 107.573 440.263 107.8C440.316 108.013 440.343 108.28 440.343 108.6C440.343 108.907 440.316 109.173 440.263 109.4H440.763ZM441.763 111C441.816 111.213 441.843 111.48 441.843 111.8C441.843 112.107 441.816 112.373 441.763 112.6H440.763C440.709 112.373 440.683 112.107 440.683 111.8C440.683 111.48 440.709 111.213 440.763 111H441.763ZM447.37 98.2C447.424 98.4133 447.45 98.68 447.45 99C447.45 99.3067 447.424 99.5733 447.37 99.8H446.37C446.317 99.5733 446.29 99.3067 446.29 99C446.29 98.68 446.317 98.4133 446.37 98.2H447.37ZM449.47 104.6C449.524 104.813 449.55 105.08 449.55 105.4C449.55 105.707 449.524 105.973 449.47 106.2C449.524 106.413 449.55 106.68 449.55 107C449.55 107.307 449.524 107.573 449.47 107.8H448.87C448.924 108.013 448.95 108.28 448.95 108.6C448.95 108.907 448.924 109.173 448.87 109.4H448.37C448.424 109.613 448.45 109.88 448.45 110.2C448.45 110.507 448.424 110.773 448.37 111H447.37C447.317 110.773 447.29 110.507 447.29 110.2C447.29 109.88 447.317 109.613 447.37 109.4H447.87C447.817 109.173 447.79 108.907 447.79 108.6C447.79 108.28 447.817 108.013 447.87 107.8C447.817 107.573 447.79 107.307 447.79 107C447.79 106.68 447.817 106.413 447.87 106.2C447.817 105.973 447.79 105.707 447.79 105.4C447.79 105.08 447.817 104.813 447.87 104.6C447.817 104.373 447.79 104.107 447.79 103.8C447.79 103.48 447.817 103.213 447.87 103C447.817 102.773 447.79 102.507 447.79 102.2C447.79 101.88 447.817 101.613 447.87 101.4H447.37C447.317 101.173 447.29 100.907 447.29 100.6C447.29 100.28 447.317 100.013 447.37 99.8H448.37C448.424 100.013 448.45 100.28 448.45 100.6C448.45 100.907 448.424 101.173 448.37 101.4H448.87C448.924 101.613 448.95 101.88 448.95 102.2C448.95 102.507 448.924 102.773 448.87 103H449.47C449.524 103.213 449.55 103.48 449.55 103.8C449.55 104.107 449.524 104.373 449.47 104.6ZM446.29 111.8C446.29 111.48 446.317 111.213 446.37 111H447.37C447.424 111.213 447.45 111.48 447.45 111.8C447.45 112.107 447.424 112.373 447.37 112.6H446.37C446.317 112.373 446.29 112.107 446.29 111.8ZM458.478 111C458.531 111.213 458.558 111.48 458.558 111.8C458.558 112.107 458.531 112.373 458.478 112.6H456.078C456.025 112.373 455.998 112.107 455.998 111.8C455.998 111.48 456.025 111.213 456.078 111H455.278C455.225 110.773 455.198 110.507 455.198 110.2C455.198 109.88 455.225 109.613 455.278 109.4C455.225 109.173 455.198 108.907 455.198 108.6C455.198 108.28 455.225 108.013 455.278 107.8C455.225 107.573 455.198 107.307 455.198 107C455.198 106.68 455.225 106.413 455.278 106.2H453.678C453.625 105.973 453.598 105.707 453.598 105.4C453.598 105.08 453.625 104.813 453.678 104.6H455.278C455.225 104.373 455.198 104.107 455.198 103.8C455.198 103.48 455.225 103.213 455.278 103C455.225 102.773 455.198 102.507 455.198 102.2C455.198 101.88 455.225 101.613 455.278 101.4C455.225 101.173 455.198 100.907 455.198 100.6C455.198 100.28 455.225 100.013 455.278 99.8H456.078C456.025 99.5733 455.998 99.3067 455.998 99C455.998 98.68 456.025 98.4133 456.078 98.2H458.478C458.531 98.4133 458.558 98.68 458.558 99C458.558 99.3067 458.531 99.5733 458.478 99.8H456.878C456.931 100.013 456.958 100.28 456.958 100.6C456.958 100.907 456.931 101.173 456.878 101.4C456.931 101.613 456.958 101.88 456.958 102.2C456.958 102.507 456.931 102.773 456.878 103C456.931 103.213 456.958 103.48 456.958 103.8C456.958 104.107 456.931 104.373 456.878 104.6H456.078C456.131 104.813 456.158 105.08 456.158 105.4C456.158 105.707 456.131 105.973 456.078 106.2H456.878C456.931 106.413 456.958 106.68 456.958 107C456.958 107.307 456.931 107.573 456.878 107.8C456.931 108.013 456.958 108.28 456.958 108.6C456.958 108.907 456.931 109.173 456.878 109.4C456.931 109.613 456.958 109.88 456.958 110.2C456.958 110.507 456.931 110.773 456.878 111H458.478ZM387.288 132C387.288 132.307 387.261 132.573 387.208 132.8H386.408C386.461 133.013 386.488 133.28 386.488 133.6C386.488 133.907 386.461 134.173 386.408 134.4H385.608C385.661 134.613 385.688 134.88 385.688 135.2C385.688 135.507 385.661 135.773 385.608 136H382.408C382.461 136.213 382.488 136.48 382.488 136.8C382.488 137.107 382.461 137.373 382.408 137.6C382.461 137.813 382.488 138.08 382.488 138.4C382.488 138.707 382.461 138.973 382.408 139.2H380.808C380.754 138.973 380.728 138.707 380.728 138.4C380.728 138.08 380.754 137.813 380.808 137.6C380.754 137.373 380.728 137.107 380.728 136.8C380.728 136.48 380.754 136.213 380.808 136C380.754 135.773 380.728 135.507 380.728 135.2C380.728 134.88 380.754 134.613 380.808 134.4C380.754 134.173 380.728 133.907 380.728 133.6C380.728 133.28 380.754 133.013 380.808 132.8C380.754 132.573 380.728 132.307 380.728 132C380.728 131.68 380.754 131.413 380.808 131.2C380.754 130.973 380.728 130.707 380.728 130.4C380.728 130.08 380.754 129.813 380.808 129.6C380.754 129.373 380.728 129.107 380.728 128.8C380.728 128.48 380.754 128.213 380.808 128H382.408C382.461 128.213 382.488 128.48 382.488 128.8C382.488 129.107 382.461 129.373 382.408 129.6H383.208C383.261 129.813 383.288 130.08 383.288 130.4C383.288 130.707 383.261 130.973 383.208 131.2H382.408C382.461 131.413 382.488 131.68 382.488 132C382.488 132.307 382.461 132.573 382.408 132.8C382.461 133.013 382.488 133.28 382.488 133.6C382.488 133.907 382.461 134.173 382.408 134.4H384.808C384.754 134.173 384.728 133.907 384.728 133.6C384.728 133.28 384.754 133.013 384.808 132.8H385.608C385.554 132.573 385.528 132.307 385.528 132C385.528 131.68 385.554 131.413 385.608 131.2H384.808C384.754 130.973 384.728 130.707 384.728 130.4C384.728 130.08 384.754 129.813 384.808 129.6H383.208C383.154 129.373 383.128 129.107 383.128 128.8C383.128 128.48 383.154 128.213 383.208 128H385.608C385.661 128.213 385.688 128.48 385.688 128.8C385.688 129.107 385.661 129.373 385.608 129.6H386.408C386.461 129.813 386.488 130.08 386.488 130.4C386.488 130.707 386.461 130.973 386.408 131.2H387.208C387.261 131.413 387.288 131.68 387.288 132ZM395.216 129.6C395.269 129.813 395.296 130.08 395.296 130.4C395.296 130.707 395.269 130.973 395.216 131.2H393.616C393.562 130.973 393.536 130.707 393.536 130.4C393.536 130.08 393.562 129.813 393.616 129.6H392.216C392.269 129.813 392.296 130.08 392.296 130.4C392.296 130.707 392.269 130.973 392.216 131.2H391.616C391.669 131.413 391.696 131.68 391.696 132C391.696 132.307 391.669 132.573 391.616 132.8C391.669 133.013 391.696 133.28 391.696 133.6C391.696 133.907 391.669 134.173 391.616 134.4H392.816C392.869 134.613 392.896 134.88 392.896 135.2C392.896 135.507 392.869 135.773 392.816 136H388.816C388.762 135.773 388.736 135.507 388.736 135.2C388.736 134.88 388.762 134.613 388.816 134.4H390.016C389.962 134.173 389.936 133.907 389.936 133.6C389.936 133.28 389.962 133.013 390.016 132.8C389.962 132.573 389.936 132.307 389.936 132C389.936 131.68 389.962 131.413 390.016 131.2C389.962 130.973 389.936 130.707 389.936 130.4C389.936 130.08 389.962 129.813 390.016 129.6H388.816C388.762 129.373 388.736 129.107 388.736 128.8C388.736 128.48 388.762 128.213 388.816 128H390.816C390.869 128.213 390.896 128.48 390.896 128.8C390.896 129.107 390.869 129.373 390.816 129.6H391.616C391.562 129.373 391.536 129.107 391.536 128.8C391.536 128.48 391.562 128.213 391.616 128H394.616C394.669 128.213 394.696 128.48 394.696 128.8C394.696 129.107 394.669 129.373 394.616 129.6H395.216ZM399.223 126.4C399.17 126.173 399.143 125.907 399.143 125.6C399.143 125.28 399.17 125.013 399.223 124.8H400.823C400.877 125.013 400.903 125.28 400.903 125.6C400.903 125.907 400.877 126.173 400.823 126.4H399.223ZM402.423 134.4C402.477 134.613 402.503 134.88 402.503 135.2C402.503 135.507 402.477 135.773 402.423 136H397.623C397.57 135.773 397.543 135.507 397.543 135.2C397.543 134.88 397.57 134.613 397.623 134.4H399.223C399.17 134.173 399.143 133.907 399.143 133.6C399.143 133.28 399.17 133.013 399.223 132.8C399.17 132.573 399.143 132.307 399.143 132C399.143 131.68 399.17 131.413 399.223 131.2C399.17 130.973 399.143 130.707 399.143 130.4C399.143 130.08 399.17 129.813 399.223 129.6H398.023C397.97 129.373 397.943 129.107 397.943 128.8C397.943 128.48 397.97 128.213 398.023 128H400.823C400.877 128.213 400.903 128.48 400.903 128.8C400.903 129.107 400.877 129.373 400.823 129.6C400.877 129.813 400.903 130.08 400.903 130.4C400.903 130.707 400.877 130.973 400.823 131.2C400.877 131.413 400.903 131.68 400.903 132C400.903 132.307 400.877 132.573 400.823 132.8C400.877 133.013 400.903 133.28 400.903 133.6C400.903 133.907 400.877 134.173 400.823 134.4H402.423ZM406.311 128.8C406.311 129.107 406.285 129.373 406.231 129.6H407.031C407.085 129.813 407.111 130.08 407.111 130.4C407.111 130.707 407.085 130.973 407.031 131.2H406.431C406.485 131.413 406.511 131.68 406.511 132C406.511 132.307 406.485 132.573 406.431 132.8C406.485 133.013 406.511 133.28 406.511 133.6C406.511 133.907 406.485 134.173 406.431 134.4C406.485 134.613 406.511 134.88 406.511 135.2C406.511 135.507 406.485 135.773 406.431 136H404.831C404.778 135.773 404.751 135.507 404.751 135.2C404.751 134.88 404.778 134.613 404.831 134.4C404.778 134.173 404.751 133.907 404.751 133.6C404.751 133.28 404.778 133.013 404.831 132.8C404.778 132.573 404.751 132.307 404.751 132C404.751 131.68 404.778 131.413 404.831 131.2C404.778 130.973 404.751 130.707 404.751 130.4C404.751 130.08 404.778 129.813 404.831 129.6C404.778 129.373 404.751 129.107 404.751 128.8C404.751 128.48 404.778 128.213 404.831 128H406.231C406.285 128.213 406.311 128.48 406.311 128.8ZM411.231 131.2C411.285 131.413 411.311 131.68 411.311 132C411.311 132.307 411.285 132.573 411.231 132.8C411.285 133.013 411.311 133.28 411.311 133.6C411.311 133.907 411.285 134.173 411.231 134.4C411.285 134.613 411.311 134.88 411.311 135.2C411.311 135.507 411.285 135.773 411.231 136H409.631C409.578 135.773 409.551 135.507 409.551 135.2C409.551 134.88 409.578 134.613 409.631 134.4C409.578 134.173 409.551 133.907 409.551 133.6C409.551 133.28 409.578 133.013 409.631 132.8C409.578 132.573 409.551 132.307 409.551 132C409.551 131.68 409.578 131.413 409.631 131.2C409.578 130.973 409.551 130.707 409.551 130.4C409.551 130.08 409.578 129.813 409.631 129.6H407.031C406.978 129.373 406.951 129.107 406.951 128.8C406.951 128.48 406.978 128.213 407.031 128H410.231C410.285 128.213 410.311 128.48 410.311 128.8C410.311 129.107 410.285 129.373 410.231 129.6H411.231C411.285 129.813 411.311 130.08 411.311 130.4C411.311 130.707 411.285 130.973 411.231 131.2ZM418.439 134.4C418.492 134.613 418.519 134.88 418.519 135.2C418.519 135.507 418.492 135.773 418.439 136H415.239C415.186 135.773 415.159 135.507 415.159 135.2C415.159 134.88 415.186 134.613 415.239 134.4H414.439C414.386 134.173 414.359 133.907 414.359 133.6C414.359 133.28 414.386 133.013 414.439 132.8C414.386 132.573 414.359 132.307 414.359 132C414.359 131.68 414.386 131.413 414.439 131.2C414.386 130.973 414.359 130.707 414.359 130.4C414.359 130.08 414.386 129.813 414.439 129.6H412.839C412.786 129.373 412.759 129.107 412.759 128.8C412.759 128.48 412.786 128.213 412.839 128H414.439C414.386 127.773 414.359 127.507 414.359 127.2C414.359 126.88 414.386 126.613 414.439 126.4C414.386 126.173 414.359 125.907 414.359 125.6C414.359 125.28 414.386 125.013 414.439 124.8H416.039C416.092 125.013 416.119 125.28 416.119 125.6C416.119 125.907 416.092 126.173 416.039 126.4C416.092 126.613 416.119 126.88 416.119 127.2C416.119 127.507 416.092 127.773 416.039 128H418.439C418.492 128.213 418.519 128.48 418.519 128.8C418.519 129.107 418.492 129.373 418.439 129.6H416.039C416.092 129.813 416.119 130.08 416.119 130.4C416.119 130.707 416.092 130.973 416.039 131.2C416.092 131.413 416.119 131.68 416.119 132C416.119 132.307 416.092 132.573 416.039 132.8C416.092 133.013 416.119 133.28 416.119 133.6C416.119 133.907 416.092 134.173 416.039 134.4H418.439ZM426.447 128C426.5 128.213 426.527 128.48 426.527 128.8C426.527 129.107 426.5 129.373 426.447 129.6H424.047C424.1 129.813 424.127 130.08 424.127 130.4C424.127 130.707 424.1 130.973 424.047 131.2C424.1 131.413 424.127 131.68 424.127 132C424.127 132.307 424.1 132.573 424.047 132.8C424.1 133.013 424.127 133.28 424.127 133.6C424.127 133.907 424.1 134.173 424.047 134.4H425.647C425.7 134.613 425.727 134.88 425.727 135.2C425.727 135.507 425.7 135.773 425.647 136H421.647C421.594 135.773 421.567 135.507 421.567 135.2C421.567 134.88 421.594 134.613 421.647 134.4H422.447C422.394 134.173 422.367 133.907 422.367 133.6C422.367 133.28 422.394 133.013 422.447 132.8C422.394 132.573 422.367 132.307 422.367 132C422.367 131.68 422.394 131.413 422.447 131.2C422.394 130.973 422.367 130.707 422.367 130.4C422.367 130.08 422.394 129.813 422.447 129.6H421.647C421.594 129.373 421.567 129.107 421.567 128.8C421.567 128.48 421.594 128.213 421.647 128H422.447C422.394 127.773 422.367 127.507 422.367 127.2C422.367 126.88 422.394 126.613 422.447 126.4H423.247C423.194 126.173 423.167 125.907 423.167 125.6C423.167 125.28 423.194 125.013 423.247 124.8H426.447C426.5 125.013 426.527 125.28 426.527 125.6C426.527 125.907 426.5 126.173 426.447 126.4H424.047C424.1 126.613 424.127 126.88 424.127 127.2C424.127 127.507 424.1 127.773 424.047 128H426.447ZM433.835 124C433.835 124.307 433.808 124.573 433.755 124.8H432.755C432.701 124.573 432.675 124.307 432.675 124C432.675 123.68 432.701 123.413 432.755 123.2H433.755C433.808 123.413 433.835 123.68 433.835 124ZM432.755 134.4C432.808 134.613 432.835 134.88 432.835 135.2C432.835 135.507 432.808 135.773 432.755 136H431.755C431.701 135.773 431.675 135.507 431.675 135.2C431.675 134.88 431.701 134.613 431.755 134.4H431.255C431.201 134.173 431.175 133.907 431.175 133.6C431.175 133.28 431.201 133.013 431.255 132.8H430.655C430.601 132.573 430.575 132.307 430.575 132C430.575 131.68 430.601 131.413 430.655 131.2C430.601 130.973 430.575 130.707 430.575 130.4C430.575 130.08 430.601 129.813 430.655 129.6C430.601 129.373 430.575 129.107 430.575 128.8C430.575 128.48 430.601 128.213 430.655 128H431.255C431.201 127.773 431.175 127.507 431.175 127.2C431.175 126.88 431.201 126.613 431.255 126.4H431.755C431.701 126.173 431.675 125.907 431.675 125.6C431.675 125.28 431.701 125.013 431.755 124.8H432.755C432.808 125.013 432.835 125.28 432.835 125.6C432.835 125.907 432.808 126.173 432.755 126.4H432.255C432.308 126.613 432.335 126.88 432.335 127.2C432.335 127.507 432.308 127.773 432.255 128C432.308 128.213 432.335 128.48 432.335 128.8C432.335 129.107 432.308 129.373 432.255 129.6C432.308 129.813 432.335 130.08 432.335 130.4C432.335 130.707 432.308 130.973 432.255 131.2C432.308 131.413 432.335 131.68 432.335 132C432.335 132.307 432.308 132.573 432.255 132.8C432.308 133.013 432.335 133.28 432.335 133.6C432.335 133.907 432.308 134.173 432.255 134.4H432.755ZM433.755 136C433.808 136.213 433.835 136.48 433.835 136.8C433.835 137.107 433.808 137.373 433.755 137.6H432.755C432.701 137.373 432.675 137.107 432.675 136.8C432.675 136.48 432.701 136.213 432.755 136H433.755ZM439.543 122.4C439.543 122.707 439.516 122.973 439.463 123.2H438.663C438.716 123.413 438.743 123.68 438.743 124C438.743 124.307 438.716 124.573 438.663 124.8H439.463C439.516 125.013 439.543 125.28 439.543 125.6C439.543 125.907 439.516 126.173 439.463 126.4C439.516 126.613 439.543 126.88 439.543 127.2C439.543 127.507 439.516 127.773 439.463 128H437.463C437.409 127.773 437.382 127.507 437.382 127.2C437.382 126.88 437.409 126.613 437.463 126.4C437.409 126.173 437.382 125.907 437.382 125.6C437.382 125.28 437.409 125.013 437.463 124.8C437.409 124.573 437.382 124.307 437.382 124C437.382 123.68 437.409 123.413 437.463 123.2H438.263C438.209 122.973 438.183 122.707 438.183 122.4C438.183 122.08 438.209 121.813 438.263 121.6H439.463C439.516 121.813 439.543 122.08 439.543 122.4ZM442.663 124.8C442.716 125.013 442.743 125.28 442.743 125.6C442.743 125.907 442.716 126.173 442.663 126.4C442.716 126.613 442.743 126.88 442.743 127.2C442.743 127.507 442.716 127.773 442.663 128H440.663C440.609 127.773 440.583 127.507 440.583 127.2C440.583 126.88 440.609 126.613 440.663 126.4C440.609 126.173 440.583 125.907 440.583 125.6C440.583 125.28 440.609 125.013 440.663 124.8C440.609 124.573 440.583 124.307 440.583 124C440.583 123.68 440.609 123.413 440.663 123.2H441.463C441.409 122.973 441.383 122.707 441.383 122.4C441.383 122.08 441.409 121.813 441.463 121.6H442.663C442.716 121.813 442.743 122.08 442.743 122.4C442.743 122.707 442.716 122.973 442.663 123.2H441.863C441.916 123.413 441.942 123.68 441.942 124C441.942 124.307 441.916 124.573 441.863 124.8H442.663ZM446.55 128.8C446.55 129.107 446.524 129.373 446.47 129.6H447.07C447.124 129.813 447.15 130.08 447.15 130.4C447.15 130.707 447.124 130.973 447.07 131.2H446.47C446.524 131.413 446.55 131.68 446.55 132C446.55 132.307 446.524 132.573 446.47 132.8C446.524 133.013 446.55 133.28 446.55 133.6C446.55 133.907 446.524 134.173 446.47 134.4C446.524 134.613 446.55 134.88 446.55 135.2C446.55 135.507 446.524 135.773 446.47 136H444.87C444.817 135.773 444.79 135.507 444.79 135.2C444.79 134.88 444.817 134.613 444.87 134.4C444.817 134.173 444.79 133.907 444.79 133.6C444.79 133.28 444.817 133.013 444.87 132.8C444.817 132.573 444.79 132.307 444.79 132C444.79 131.68 444.817 131.413 444.87 131.2C444.817 130.973 444.79 130.707 444.79 130.4C444.79 130.08 444.817 129.813 444.87 129.6C444.817 129.373 444.79 129.107 444.79 128.8C444.79 128.48 444.817 128.213 444.87 128C444.817 127.773 444.79 127.507 444.79 127.2C444.79 126.88 444.817 126.613 444.87 126.4C444.817 126.173 444.79 125.907 444.79 125.6C444.79 125.28 444.817 125.013 444.87 124.8H446.47C446.524 125.013 446.55 125.28 446.55 125.6C446.55 125.907 446.524 126.173 446.47 126.4C446.524 126.613 446.55 126.88 446.55 127.2C446.55 127.507 446.524 127.773 446.47 128C446.524 128.213 446.55 128.48 446.55 128.8ZM451.27 131.2C451.324 131.413 451.35 131.68 451.35 132C451.35 132.307 451.324 132.573 451.27 132.8C451.324 133.013 451.35 133.28 451.35 133.6C451.35 133.907 451.324 134.173 451.27 134.4C451.324 134.613 451.35 134.88 451.35 135.2C451.35 135.507 451.324 135.773 451.27 136H449.67C449.617 135.773 449.59 135.507 449.59 135.2C449.59 134.88 449.617 134.613 449.67 134.4C449.617 134.173 449.59 133.907 449.59 133.6C449.59 133.28 449.617 133.013 449.67 132.8C449.617 132.573 449.59 132.307 449.59 132C449.59 131.68 449.617 131.413 449.67 131.2C449.617 130.973 449.59 130.707 449.59 130.4C449.59 130.08 449.617 129.813 449.67 129.6H447.07C447.017 129.373 446.99 129.107 446.99 128.8C446.99 128.48 447.017 128.213 447.07 128H450.27C450.324 128.213 450.35 128.48 450.35 128.8C450.35 129.107 450.324 129.373 450.27 129.6H451.27C451.324 129.813 451.35 130.08 451.35 130.4C451.35 130.707 451.324 130.973 451.27 131.2ZM459.358 130.4C459.358 130.707 459.331 130.973 459.278 131.2C459.331 131.413 459.358 131.68 459.358 132C459.358 132.307 459.331 132.573 459.278 132.8H455.078C455.131 133.013 455.158 133.28 455.158 133.6C455.158 133.907 455.131 134.173 455.078 134.4H458.478C458.531 134.613 458.558 134.88 458.558 135.2C458.558 135.507 458.531 135.773 458.478 136H454.478C454.425 135.773 454.398 135.507 454.398 135.2C454.398 134.88 454.425 134.613 454.478 134.4H453.478C453.425 134.173 453.398 133.907 453.398 133.6C453.398 133.28 453.425 133.013 453.478 132.8H452.878C452.825 132.573 452.798 132.307 452.798 132C452.798 131.68 452.825 131.413 452.878 131.2H453.478C453.425 130.973 453.398 130.707 453.398 130.4C453.398 130.08 453.425 129.813 453.478 129.6H454.478C454.425 129.373 454.398 129.107 454.398 128.8C454.398 128.48 454.425 128.213 454.478 128H458.478C458.531 128.213 458.558 128.48 458.558 128.8C458.558 129.107 458.531 129.373 458.478 129.6H459.278C459.331 129.813 459.358 130.08 459.358 130.4ZM457.678 131.2C457.625 130.973 457.598 130.707 457.598 130.4C457.598 130.08 457.625 129.813 457.678 129.6H455.078C455.131 129.813 455.158 130.08 455.158 130.4C455.158 130.707 455.131 130.973 455.078 131.2H457.678ZM466.486 134.4C466.539 134.613 466.566 134.88 466.566 135.2C466.566 135.507 466.539 135.773 466.486 136H461.686C461.633 135.773 461.606 135.507 461.606 135.2C461.606 134.88 461.633 134.613 461.686 134.4H463.286C463.233 134.173 463.206 133.907 463.206 133.6C463.206 133.28 463.233 133.013 463.286 132.8C463.233 132.573 463.206 132.307 463.206 132C463.206 131.68 463.233 131.413 463.286 131.2C463.233 130.973 463.206 130.707 463.206 130.4C463.206 130.08 463.233 129.813 463.286 129.6C463.233 129.373 463.206 129.107 463.206 128.8C463.206 128.48 463.233 128.213 463.286 128C463.233 127.773 463.206 127.507 463.206 127.2C463.206 126.88 463.233 126.613 463.286 126.4H462.086C462.033 126.173 462.006 125.907 462.006 125.6C462.006 125.28 462.033 125.013 462.086 124.8H464.886C464.939 125.013 464.966 125.28 464.966 125.6C464.966 125.907 464.939 126.173 464.886 126.4C464.939 126.613 464.966 126.88 464.966 127.2C464.966 127.507 464.939 127.773 464.886 128C464.939 128.213 464.966 128.48 464.966 128.8C464.966 129.107 464.939 129.373 464.886 129.6C464.939 129.813 464.966 130.08 464.966 130.4C464.966 130.707 464.939 130.973 464.886 131.2C464.939 131.413 464.966 131.68 464.966 132C464.966 132.307 464.939 132.573 464.886 132.8C464.939 133.013 464.966 133.28 464.966 133.6C464.966 133.907 464.939 134.173 464.886 134.4H466.486ZM474.494 134.4C474.547 134.613 474.574 134.88 474.574 135.2C474.574 135.507 474.547 135.773 474.494 136H469.694C469.64 135.773 469.614 135.507 469.614 135.2C469.614 134.88 469.64 134.613 469.694 134.4H471.294C471.24 134.173 471.214 133.907 471.214 133.6C471.214 133.28 471.24 133.013 471.294 132.8C471.24 132.573 471.214 132.307 471.214 132C471.214 131.68 471.24 131.413 471.294 131.2C471.24 130.973 471.214 130.707 471.214 130.4C471.214 130.08 471.24 129.813 471.294 129.6C471.24 129.373 471.214 129.107 471.214 128.8C471.214 128.48 471.24 128.213 471.294 128C471.24 127.773 471.214 127.507 471.214 127.2C471.214 126.88 471.24 126.613 471.294 126.4H470.094C470.04 126.173 470.014 125.907 470.014 125.6C470.014 125.28 470.04 125.013 470.094 124.8H472.894C472.947 125.013 472.974 125.28 472.974 125.6C472.974 125.907 472.947 126.173 472.894 126.4C472.947 126.613 472.974 126.88 472.974 127.2C472.974 127.507 472.947 127.773 472.894 128C472.947 128.213 472.974 128.48 472.974 128.8C472.974 129.107 472.947 129.373 472.894 129.6C472.947 129.813 472.974 130.08 472.974 130.4C472.974 130.707 472.947 130.973 472.894 131.2C472.947 131.413 472.974 131.68 472.974 132C472.974 132.307 472.947 132.573 472.894 132.8C472.947 133.013 472.974 133.28 472.974 133.6C472.974 133.907 472.947 134.173 472.894 134.4H474.494ZM483.382 132C483.382 132.307 483.355 132.573 483.302 132.8H482.702C482.755 133.013 482.782 133.28 482.782 133.6C482.782 133.907 482.755 134.173 482.702 134.4H481.702C481.755 134.613 481.782 134.88 481.782 135.2C481.782 135.507 481.755 135.773 481.702 136H478.502C478.448 135.773 478.422 135.507 478.422 135.2C478.422 134.88 478.448 134.613 478.502 134.4H477.502C477.448 134.173 477.422 133.907 477.422 133.6C477.422 133.28 477.448 133.013 477.502 132.8H476.902C476.848 132.573 476.822 132.307 476.822 132C476.822 131.68 476.848 131.413 476.902 131.2H477.502C477.448 130.973 477.422 130.707 477.422 130.4C477.422 130.08 477.448 129.813 477.502 129.6H478.502C478.448 129.373 478.422 129.107 478.422 128.8C478.422 128.48 478.448 128.213 478.502 128H481.702C481.755 128.213 481.782 128.48 481.782 128.8C481.782 129.107 481.755 129.373 481.702 129.6H482.702C482.755 129.813 482.782 130.08 482.782 130.4C482.782 130.707 482.755 130.973 482.702 131.2H483.302C483.355 131.413 483.382 131.68 483.382 132ZM481.702 132.8C481.648 132.573 481.622 132.307 481.622 132C481.622 131.68 481.648 131.413 481.702 131.2H481.102C481.048 130.973 481.022 130.707 481.022 130.4C481.022 130.08 481.048 129.813 481.102 129.6H479.102C479.155 129.813 479.182 130.08 479.182 130.4C479.182 130.707 479.155 130.973 479.102 131.2H478.502C478.555 131.413 478.582 131.68 478.582 132C478.582 132.307 478.555 132.573 478.502 132.8H479.102C479.155 133.013 479.182 133.28 479.182 133.6C479.182 133.907 479.155 134.173 479.102 134.4H481.102C481.048 134.173 481.022 133.907 481.022 133.6C481.022 133.28 481.048 133.013 481.102 132.8H481.702ZM499.397 128.8C499.397 129.107 499.371 129.373 499.317 129.6C499.371 129.813 499.397 130.08 499.397 130.4C499.397 130.707 499.371 130.973 499.317 131.2H498.717C498.771 131.413 498.797 131.68 498.797 132C498.797 132.307 498.771 132.573 498.717 132.8C498.771 133.013 498.797 133.28 498.797 133.6C498.797 133.907 498.771 134.173 498.717 134.4H498.317C498.371 134.613 498.397 134.88 498.397 135.2C498.397 135.507 498.371 135.773 498.317 136H497.117C497.064 135.773 497.037 135.507 497.037 135.2C497.037 134.88 497.064 134.613 497.117 134.4H496.717C496.664 134.173 496.637 133.907 496.637 133.6C496.637 133.28 496.664 133.013 496.717 132.8H495.517C495.571 133.013 495.597 133.28 495.597 133.6C495.597 133.907 495.571 134.173 495.517 134.4H495.117C495.171 134.613 495.197 134.88 495.197 135.2C495.197 135.507 495.171 135.773 495.117 136H493.917C493.864 135.773 493.837 135.507 493.837 135.2C493.837 134.88 493.864 134.613 493.917 134.4H493.517C493.464 134.173 493.437 133.907 493.437 133.6C493.437 133.28 493.464 133.013 493.517 132.8C493.464 132.573 493.437 132.307 493.437 132C493.437 131.68 493.464 131.413 493.517 131.2H492.917C492.864 130.973 492.837 130.707 492.837 130.4C492.837 130.08 492.864 129.813 492.917 129.6C492.864 129.373 492.837 129.107 492.837 128.8C492.837 128.48 492.864 128.213 492.917 128H494.517C494.571 128.213 494.597 128.48 494.597 128.8C494.597 129.107 494.571 129.373 494.517 129.6C494.571 129.813 494.597 130.08 494.597 130.4C494.597 130.707 494.571 130.973 494.517 131.2C494.571 131.413 494.597 131.68 494.597 132C494.597 132.307 494.571 132.573 494.517 132.8H495.117C495.064 132.573 495.037 132.307 495.037 132C495.037 131.68 495.064 131.413 495.117 131.2H495.517C495.464 130.973 495.437 130.707 495.437 130.4C495.437 130.08 495.464 129.813 495.517 129.6C495.464 129.373 495.437 129.107 495.437 128.8C495.437 128.48 495.464 128.213 495.517 128H496.717C496.771 128.213 496.797 128.48 496.797 128.8C496.797 129.107 496.771 129.373 496.717 129.6C496.771 129.813 496.797 130.08 496.797 130.4C496.797 130.707 496.771 130.973 496.717 131.2H497.117C497.171 131.413 497.197 131.68 497.197 132C497.197 132.307 497.171 132.573 497.117 132.8H497.717C497.664 132.573 497.637 132.307 497.637 132C497.637 131.68 497.664 131.413 497.717 131.2C497.664 130.973 497.637 130.707 497.637 130.4C497.637 130.08 497.664 129.813 497.717 129.6C497.664 129.373 497.637 129.107 497.637 128.8C497.637 128.48 497.664 128.213 497.717 128H499.317C499.371 128.213 499.397 128.48 499.397 128.8ZM507.405 132C507.405 132.307 507.378 132.573 507.325 132.8H506.725C506.778 133.013 506.805 133.28 506.805 133.6C506.805 133.907 506.778 134.173 506.725 134.4H505.725C505.778 134.613 505.805 134.88 505.805 135.2C505.805 135.507 505.778 135.773 505.725 136H502.525C502.472 135.773 502.445 135.507 502.445 135.2C502.445 134.88 502.472 134.613 502.525 134.4H501.525C501.472 134.173 501.445 133.907 501.445 133.6C501.445 133.28 501.472 133.013 501.525 132.8H500.925C500.872 132.573 500.845 132.307 500.845 132C500.845 131.68 500.872 131.413 500.925 131.2H501.525C501.472 130.973 501.445 130.707 501.445 130.4C501.445 130.08 501.472 129.813 501.525 129.6H502.525C502.472 129.373 502.445 129.107 502.445 128.8C502.445 128.48 502.472 128.213 502.525 128H505.725C505.778 128.213 505.805 128.48 505.805 128.8C505.805 129.107 505.778 129.373 505.725 129.6H506.725C506.778 129.813 506.805 130.08 506.805 130.4C506.805 130.707 506.778 130.973 506.725 131.2H507.325C507.378 131.413 507.405 131.68 507.405 132ZM505.725 132.8C505.672 132.573 505.645 132.307 505.645 132C505.645 131.68 505.672 131.413 505.725 131.2H505.125C505.072 130.973 505.045 130.707 505.045 130.4C505.045 130.08 505.072 129.813 505.125 129.6H503.125C503.178 129.813 503.205 130.08 503.205 130.4C503.205 130.707 503.178 130.973 503.125 131.2H502.525C502.578 131.413 502.605 131.68 502.605 132C502.605 132.307 502.578 132.573 502.525 132.8H503.125C503.178 133.013 503.205 133.28 503.205 133.6C503.205 133.907 503.178 134.173 503.125 134.4H505.125C505.072 134.173 505.045 133.907 505.045 133.6C505.045 133.28 505.072 133.013 505.125 132.8H505.725ZM515.333 129.6C515.386 129.813 515.413 130.08 515.413 130.4C515.413 130.707 515.386 130.973 515.333 131.2H513.733C513.679 130.973 513.653 130.707 513.653 130.4C513.653 130.08 513.679 129.813 513.733 129.6H512.333C512.386 129.813 512.413 130.08 512.413 130.4C512.413 130.707 512.386 130.973 512.333 131.2H511.733C511.786 131.413 511.813 131.68 511.813 132C511.813 132.307 511.786 132.573 511.733 132.8C511.786 133.013 511.813 133.28 511.813 133.6C511.813 133.907 511.786 134.173 511.733 134.4H512.933C512.986 134.613 513.013 134.88 513.013 135.2C513.013 135.507 512.986 135.773 512.933 136H508.933C508.879 135.773 508.853 135.507 508.853 135.2C508.853 134.88 508.879 134.613 508.933 134.4H510.133C510.079 134.173 510.053 133.907 510.053 133.6C510.053 133.28 510.079 133.013 510.133 132.8C510.079 132.573 510.053 132.307 510.053 132C510.053 131.68 510.079 131.413 510.133 131.2C510.079 130.973 510.053 130.707 510.053 130.4C510.053 130.08 510.079 129.813 510.133 129.6H508.933C508.879 129.373 508.853 129.107 508.853 128.8C508.853 128.48 508.879 128.213 508.933 128H510.933C510.986 128.213 511.013 128.48 511.013 128.8C511.013 129.107 510.986 129.373 510.933 129.6H511.733C511.679 129.373 511.653 129.107 511.653 128.8C511.653 128.48 511.679 128.213 511.733 128H514.733C514.786 128.213 514.813 128.48 514.813 128.8C514.813 129.107 514.786 129.373 514.733 129.6H515.333ZM522.541 134.4C522.594 134.613 522.621 134.88 522.621 135.2C522.621 135.507 522.594 135.773 522.541 136H517.741C517.687 135.773 517.661 135.507 517.661 135.2C517.661 134.88 517.687 134.613 517.741 134.4H519.341C519.287 134.173 519.261 133.907 519.261 133.6C519.261 133.28 519.287 133.013 519.341 132.8C519.287 132.573 519.261 132.307 519.261 132C519.261 131.68 519.287 131.413 519.341 131.2C519.287 130.973 519.261 130.707 519.261 130.4C519.261 130.08 519.287 129.813 519.341 129.6C519.287 129.373 519.261 129.107 519.261 128.8C519.261 128.48 519.287 128.213 519.341 128C519.287 127.773 519.261 127.507 519.261 127.2C519.261 126.88 519.287 126.613 519.341 126.4H518.141C518.087 126.173 518.061 125.907 518.061 125.6C518.061 125.28 518.087 125.013 518.141 124.8H520.941C520.994 125.013 521.021 125.28 521.021 125.6C521.021 125.907 520.994 126.173 520.941 126.4C520.994 126.613 521.021 126.88 521.021 127.2C521.021 127.507 520.994 127.773 520.941 128C520.994 128.213 521.021 128.48 521.021 128.8C521.021 129.107 520.994 129.373 520.941 129.6C520.994 129.813 521.021 130.08 521.021 130.4C521.021 130.707 520.994 130.973 520.941 131.2C520.994 131.413 521.021 131.68 521.021 132C521.021 132.307 520.994 132.573 520.941 132.8C520.994 133.013 521.021 133.28 521.021 133.6C521.021 133.907 520.994 134.173 520.941 134.4H522.541ZM531.348 126.4C531.402 126.613 531.428 126.88 531.428 127.2C531.428 127.507 531.402 127.773 531.348 128C531.402 128.213 531.428 128.48 531.428 128.8C531.428 129.107 531.402 129.373 531.348 129.6C531.402 129.813 531.428 130.08 531.428 130.4C531.428 130.707 531.402 130.973 531.348 131.2C531.402 131.413 531.428 131.68 531.428 132C531.428 132.307 531.402 132.573 531.348 132.8C531.402 133.013 531.428 133.28 531.428 133.6C531.428 133.907 531.402 134.173 531.348 134.4C531.402 134.613 531.428 134.88 531.428 135.2C531.428 135.507 531.402 135.773 531.348 136H529.748C529.695 135.773 529.668 135.507 529.668 135.2C529.668 134.88 529.695 134.613 529.748 134.4H529.148C529.095 134.173 529.068 133.907 529.068 133.6C529.068 133.28 529.095 133.013 529.148 132.8H529.748C529.695 132.573 529.668 132.307 529.668 132C529.668 131.68 529.695 131.413 529.748 131.2H529.148C529.095 130.973 529.068 130.707 529.068 130.4C529.068 130.08 529.095 129.813 529.148 129.6H529.748C529.695 129.373 529.668 129.107 529.668 128.8C529.668 128.48 529.695 128.213 529.748 128C529.695 127.773 529.668 127.507 529.668 127.2C529.668 126.88 529.695 126.613 529.748 126.4C529.695 126.173 529.668 125.907 529.668 125.6C529.668 125.28 529.695 125.013 529.748 124.8H531.348C531.402 125.013 531.428 125.28 531.428 125.6C531.428 125.907 531.402 126.173 531.348 126.4ZM528.828 128.8C528.828 129.107 528.802 129.373 528.748 129.6H526.748C526.802 129.813 526.828 130.08 526.828 130.4C526.828 130.707 526.802 130.973 526.748 131.2H526.148C526.202 131.413 526.228 131.68 526.228 132C526.228 132.307 526.202 132.573 526.148 132.8H526.748C526.802 133.013 526.828 133.28 526.828 133.6C526.828 133.907 526.802 134.173 526.748 134.4H528.748C528.802 134.613 528.828 134.88 528.828 135.2C528.828 135.507 528.802 135.773 528.748 136H526.548C526.495 135.773 526.468 135.507 526.468 135.2C526.468 134.88 526.495 134.613 526.548 134.4H525.548C525.495 134.173 525.468 133.907 525.468 133.6C525.468 133.28 525.495 133.013 525.548 132.8H524.948C524.895 132.573 524.868 132.307 524.868 132C524.868 131.68 524.895 131.413 524.948 131.2H525.548C525.495 130.973 525.468 130.707 525.468 130.4C525.468 130.08 525.495 129.813 525.548 129.6H526.548C526.495 129.373 526.468 129.107 526.468 128.8C526.468 128.48 526.495 128.213 526.548 128H528.748C528.802 128.213 528.828 128.48 528.828 128.8ZM535.556 121.6C535.61 121.813 535.636 122.08 535.636 122.4C535.636 122.707 535.61 122.973 535.556 123.2C535.61 123.413 535.636 123.68 535.636 124C535.636 124.307 535.61 124.573 535.556 124.8C535.61 125.013 535.636 125.28 535.636 125.6C535.636 125.907 535.61 126.173 535.556 126.4H534.756C534.81 126.613 534.836 126.88 534.836 127.2C534.836 127.507 534.81 127.773 534.756 128H533.556C533.503 127.773 533.476 127.507 533.476 127.2C533.476 126.88 533.503 126.613 533.556 126.4H534.356C534.303 126.173 534.276 125.907 534.276 125.6C534.276 125.28 534.303 125.013 534.356 124.8H533.556C533.503 124.573 533.476 124.307 533.476 124C533.476 123.68 533.503 123.413 533.556 123.2C533.503 122.973 533.476 122.707 533.476 122.4C533.476 122.08 533.503 121.813 533.556 121.6H535.556ZM538.756 123.2C538.81 123.413 538.836 123.68 538.836 124C538.836 124.307 538.81 124.573 538.756 124.8C538.81 125.013 538.836 125.28 538.836 125.6C538.836 125.907 538.81 126.173 538.756 126.4H537.956C538.01 126.613 538.036 126.88 538.036 127.2C538.036 127.507 538.01 127.773 537.956 128H536.756C536.703 127.773 536.676 127.507 536.676 127.2C536.676 126.88 536.703 126.613 536.756 126.4H537.556C537.503 126.173 537.476 125.907 537.476 125.6C537.476 125.28 537.503 125.013 537.556 124.8H536.756C536.703 124.573 536.676 124.307 536.676 124C536.676 123.68 536.703 123.413 536.756 123.2C536.703 122.973 536.676 122.707 536.676 122.4C536.676 122.08 536.703 121.813 536.756 121.6H538.756C538.81 121.813 538.836 122.08 538.836 122.4C538.836 122.707 538.81 122.973 538.756 123.2ZM543.464 123.2C543.517 123.413 543.544 123.68 543.544 124C543.544 124.307 543.517 124.573 543.464 124.8H542.464C542.411 124.573 542.384 124.307 542.384 124C542.384 123.68 542.411 123.413 542.464 123.2H543.464ZM545.564 129.6C545.617 129.813 545.644 130.08 545.644 130.4C545.644 130.707 545.617 130.973 545.564 131.2C545.617 131.413 545.644 131.68 545.644 132C545.644 132.307 545.617 132.573 545.564 132.8H544.964C545.017 133.013 545.044 133.28 545.044 133.6C545.044 133.907 545.017 134.173 544.964 134.4H544.464C544.517 134.613 544.544 134.88 544.544 135.2C544.544 135.507 544.517 135.773 544.464 136H543.464C543.411 135.773 543.384 135.507 543.384 135.2C543.384 134.88 543.411 134.613 543.464 134.4H543.964C543.911 134.173 543.884 133.907 543.884 133.6C543.884 133.28 543.911 133.013 543.964 132.8C543.911 132.573 543.884 132.307 543.884 132C543.884 131.68 543.911 131.413 543.964 131.2C543.911 130.973 543.884 130.707 543.884 130.4C543.884 130.08 543.911 129.813 543.964 129.6C543.911 129.373 543.884 129.107 543.884 128.8C543.884 128.48 543.911 128.213 543.964 128C543.911 127.773 543.884 127.507 543.884 127.2C543.884 126.88 543.911 126.613 543.964 126.4H543.464C543.411 126.173 543.384 125.907 543.384 125.6C543.384 125.28 543.411 125.013 543.464 124.8H544.464C544.517 125.013 544.544 125.28 544.544 125.6C544.544 125.907 544.517 126.173 544.464 126.4H544.964C545.017 126.613 545.044 126.88 545.044 127.2C545.044 127.507 545.017 127.773 544.964 128H545.564C545.617 128.213 545.644 128.48 545.644 128.8C545.644 129.107 545.617 129.373 545.564 129.6ZM542.384 136.8C542.384 136.48 542.411 136.213 542.464 136H543.464C543.517 136.213 543.544 136.48 543.544 136.8C543.544 137.107 543.517 137.373 543.464 137.6H542.464C542.411 137.373 542.384 137.107 542.384 136.8ZM553.252 127.2C553.252 127.507 553.225 127.773 553.172 128C553.225 128.213 553.252 128.48 553.252 128.8C553.252 129.107 553.225 129.373 553.172 129.6H551.172C551.119 129.373 551.092 129.107 551.092 128.8C551.092 128.48 551.119 128.213 551.172 128C551.119 127.773 551.092 127.507 551.092 127.2C551.092 126.88 551.119 126.613 551.172 126.4H553.172C553.225 126.613 553.252 126.88 553.252 127.2ZM553.172 132.8C553.225 133.013 553.252 133.28 553.252 133.6C553.252 133.907 553.225 134.173 553.172 134.4C553.225 134.613 553.252 134.88 553.252 135.2C553.252 135.507 553.225 135.773 553.172 136C553.225 136.213 553.252 136.48 553.252 136.8C553.252 137.107 553.225 137.373 553.172 137.6H552.372C552.425 137.813 552.452 138.08 552.452 138.4C552.452 138.707 552.425 138.973 552.372 139.2H551.172C551.119 138.973 551.092 138.707 551.092 138.4C551.092 138.08 551.119 137.813 551.172 137.6H551.972C551.919 137.373 551.892 137.107 551.892 136.8C551.892 136.48 551.919 136.213 551.972 136H551.172C551.119 135.773 551.092 135.507 551.092 135.2C551.092 134.88 551.119 134.613 551.172 134.4C551.119 134.173 551.092 133.907 551.092 133.6C551.092 133.28 551.119 133.013 551.172 132.8H553.172ZM387.208 154.6C387.261 154.813 387.288 155.08 387.288 155.4C387.288 155.707 387.261 155.973 387.208 156.2H385.608C385.554 155.973 385.528 155.707 385.528 155.4C385.528 155.08 385.554 154.813 385.608 154.6H384.208C384.261 154.813 384.288 155.08 384.288 155.4C384.288 155.707 384.261 155.973 384.208 156.2H383.608C383.661 156.413 383.688 156.68 383.688 157C383.688 157.307 383.661 157.573 383.608 157.8C383.661 158.013 383.688 158.28 383.688 158.6C383.688 158.907 383.661 159.173 383.608 159.4H384.808C384.861 159.613 384.888 159.88 384.888 160.2C384.888 160.507 384.861 160.773 384.808 161H380.808C380.754 160.773 380.728 160.507 380.728 160.2C380.728 159.88 380.754 159.613 380.808 159.4H382.008C381.954 159.173 381.928 158.907 381.928 158.6C381.928 158.28 381.954 158.013 382.008 157.8C381.954 157.573 381.928 157.307 381.928 157C381.928 156.68 381.954 156.413 382.008 156.2C381.954 155.973 381.928 155.707 381.928 155.4C381.928 155.08 381.954 154.813 382.008 154.6H380.808C380.754 154.373 380.728 154.107 380.728 153.8C380.728 153.48 380.754 153.213 380.808 153H382.808C382.861 153.213 382.888 153.48 382.888 153.8C382.888 154.107 382.861 154.373 382.808 154.6H383.608C383.554 154.373 383.528 154.107 383.528 153.8C383.528 153.48 383.554 153.213 383.608 153H386.608C386.661 153.213 386.688 153.48 386.688 153.8C386.688 154.107 386.661 154.373 386.608 154.6H387.208ZM395.296 155.4C395.296 155.707 395.269 155.973 395.216 156.2C395.269 156.413 395.296 156.68 395.296 157C395.296 157.307 395.269 157.573 395.216 157.8H391.016C391.069 158.013 391.096 158.28 391.096 158.6C391.096 158.907 391.069 159.173 391.016 159.4H394.416C394.469 159.613 394.496 159.88 394.496 160.2C394.496 160.507 394.469 160.773 394.416 161H390.416C390.362 160.773 390.336 160.507 390.336 160.2C390.336 159.88 390.362 159.613 390.416 159.4H389.416C389.362 159.173 389.336 158.907 389.336 158.6C389.336 158.28 389.362 158.013 389.416 157.8H388.816C388.762 157.573 388.736 157.307 388.736 157C388.736 156.68 388.762 156.413 388.816 156.2H389.416C389.362 155.973 389.336 155.707 389.336 155.4C389.336 155.08 389.362 154.813 389.416 154.6H390.416C390.362 154.373 390.336 154.107 390.336 153.8C390.336 153.48 390.362 153.213 390.416 153H394.416C394.469 153.213 394.496 153.48 394.496 153.8C394.496 154.107 394.469 154.373 394.416 154.6H395.216C395.269 154.813 395.296 155.08 395.296 155.4ZM393.616 156.2C393.562 155.973 393.536 155.707 393.536 155.4C393.536 155.08 393.562 154.813 393.616 154.6H391.016C391.069 154.813 391.096 155.08 391.096 155.4C391.096 155.707 391.069 155.973 391.016 156.2H393.616ZM402.423 159.4C402.477 159.613 402.503 159.88 402.503 160.2C402.503 160.507 402.477 160.773 402.423 161H399.223C399.17 160.773 399.143 160.507 399.143 160.2C399.143 159.88 399.17 159.613 399.223 159.4H398.423C398.37 159.173 398.343 158.907 398.343 158.6C398.343 158.28 398.37 158.013 398.423 157.8C398.37 157.573 398.343 157.307 398.343 157C398.343 156.68 398.37 156.413 398.423 156.2C398.37 155.973 398.343 155.707 398.343 155.4C398.343 155.08 398.37 154.813 398.423 154.6H396.823C396.77 154.373 396.743 154.107 396.743 153.8C396.743 153.48 396.77 153.213 396.823 153H398.423C398.37 152.773 398.343 152.507 398.343 152.2C398.343 151.88 398.37 151.613 398.423 151.4C398.37 151.173 398.343 150.907 398.343 150.6C398.343 150.28 398.37 150.013 398.423 149.8H400.023C400.077 150.013 400.103 150.28 400.103 150.6C400.103 150.907 400.077 151.173 400.023 151.4C400.077 151.613 400.103 151.88 400.103 152.2C400.103 152.507 400.077 152.773 400.023 153H402.423C402.477 153.213 402.503 153.48 402.503 153.8C402.503 154.107 402.477 154.373 402.423 154.6H400.023C400.077 154.813 400.103 155.08 400.103 155.4C400.103 155.707 400.077 155.973 400.023 156.2C400.077 156.413 400.103 156.68 400.103 157C400.103 157.307 400.077 157.573 400.023 157.8C400.077 158.013 400.103 158.28 400.103 158.6C400.103 158.907 400.077 159.173 400.023 159.4H402.423ZM407.111 158.6C407.111 158.907 407.085 159.173 407.031 159.4H409.031C409.085 159.613 409.111 159.88 409.111 160.2C409.111 160.507 409.085 160.773 409.031 161H405.831C405.778 160.773 405.751 160.507 405.751 160.2C405.751 159.88 405.778 159.613 405.831 159.4H404.831C404.778 159.173 404.751 158.907 404.751 158.6C404.751 158.28 404.778 158.013 404.831 157.8C404.778 157.573 404.751 157.307 404.751 157C404.751 156.68 404.778 156.413 404.831 156.2C404.778 155.973 404.751 155.707 404.751 155.4C404.751 155.08 404.778 154.813 404.831 154.6C404.778 154.373 404.751 154.107 404.751 153.8C404.751 153.48 404.778 153.213 404.831 153H406.431C406.485 153.213 406.511 153.48 406.511 153.8C406.511 154.107 406.485 154.373 406.431 154.6C406.485 154.813 406.511 155.08 406.511 155.4C406.511 155.707 406.485 155.973 406.431 156.2C406.485 156.413 406.511 156.68 406.511 157C406.511 157.307 406.485 157.573 406.431 157.8H407.031C407.085 158.013 407.111 158.28 407.111 158.6ZM411.231 154.6C411.285 154.813 411.311 155.08 411.311 155.4C411.311 155.707 411.285 155.973 411.231 156.2C411.285 156.413 411.311 156.68 411.311 157C411.311 157.307 411.285 157.573 411.231 157.8C411.285 158.013 411.311 158.28 411.311 158.6C411.311 158.907 411.285 159.173 411.231 159.4C411.285 159.613 411.311 159.88 411.311 160.2C411.311 160.507 411.285 160.773 411.231 161H409.631C409.578 160.773 409.551 160.507 409.551 160.2C409.551 159.88 409.578 159.613 409.631 159.4H409.031C408.978 159.173 408.951 158.907 408.951 158.6C408.951 158.28 408.978 158.013 409.031 157.8H409.631C409.578 157.573 409.551 157.307 409.551 157C409.551 156.68 409.578 156.413 409.631 156.2C409.578 155.973 409.551 155.707 409.551 155.4C409.551 155.08 409.578 154.813 409.631 154.6C409.578 154.373 409.551 154.107 409.551 153.8C409.551 153.48 409.578 153.213 409.631 153H411.231C411.285 153.213 411.311 153.48 411.311 153.8C411.311 154.107 411.285 154.373 411.231 154.6ZM419.239 154.6C419.292 154.813 419.319 155.08 419.319 155.4C419.319 155.707 419.292 155.973 419.239 156.2H417.639C417.586 155.973 417.559 155.707 417.559 155.4C417.559 155.08 417.586 154.813 417.639 154.6H416.239C416.292 154.813 416.319 155.08 416.319 155.4C416.319 155.707 416.292 155.973 416.239 156.2H415.639C415.692 156.413 415.719 156.68 415.719 157C415.719 157.307 415.692 157.573 415.639 157.8C415.692 158.013 415.719 158.28 415.719 158.6C415.719 158.907 415.692 159.173 415.639 159.4H416.839C416.892 159.613 416.919 159.88 416.919 160.2C416.919 160.507 416.892 160.773 416.839 161H412.839C412.786 160.773 412.759 160.507 412.759 160.2C412.759 159.88 412.786 159.613 412.839 159.4H414.039C413.986 159.173 413.959 158.907 413.959 158.6C413.959 158.28 413.986 158.013 414.039 157.8C413.986 157.573 413.959 157.307 413.959 157C413.959 156.68 413.986 156.413 414.039 156.2C413.986 155.973 413.959 155.707 413.959 155.4C413.959 155.08 413.986 154.813 414.039 154.6H412.839C412.786 154.373 412.759 154.107 412.759 153.8C412.759 153.48 412.786 153.213 412.839 153H414.839C414.892 153.213 414.919 153.48 414.919 153.8C414.919 154.107 414.892 154.373 414.839 154.6H415.639C415.586 154.373 415.559 154.107 415.559 153.8C415.559 153.48 415.586 153.213 415.639 153H418.639C418.692 153.213 418.719 153.48 418.719 153.8C418.719 154.107 418.692 154.373 418.639 154.6H419.239ZM422.327 153.8C422.327 154.107 422.3 154.373 422.247 154.6H423.047C423.1 154.813 423.127 155.08 423.127 155.4C423.127 155.707 423.1 155.973 423.047 156.2H422.447C422.5 156.413 422.527 156.68 422.527 157C422.527 157.307 422.5 157.573 422.447 157.8C422.5 158.013 422.527 158.28 422.527 158.6C422.527 158.907 422.5 159.173 422.447 159.4C422.5 159.613 422.527 159.88 422.527 160.2C422.527 160.507 422.5 160.773 422.447 161H420.847C420.794 160.773 420.767 160.507 420.767 160.2C420.767 159.88 420.794 159.613 420.847 159.4C420.794 159.173 420.767 158.907 420.767 158.6C420.767 158.28 420.794 158.013 420.847 157.8C420.794 157.573 420.767 157.307 420.767 157C420.767 156.68 420.794 156.413 420.847 156.2C420.794 155.973 420.767 155.707 420.767 155.4C420.767 155.08 420.794 154.813 420.847 154.6C420.794 154.373 420.767 154.107 420.767 153.8C420.767 153.48 420.794 153.213 420.847 153H422.247C422.3 153.213 422.327 153.48 422.327 153.8ZM427.247 156.2C427.3 156.413 427.327 156.68 427.327 157C427.327 157.307 427.3 157.573 427.247 157.8C427.3 158.013 427.327 158.28 427.327 158.6C427.327 158.907 427.3 159.173 427.247 159.4C427.3 159.613 427.327 159.88 427.327 160.2C427.327 160.507 427.3 160.773 427.247 161H425.647C425.594 160.773 425.567 160.507 425.567 160.2C425.567 159.88 425.594 159.613 425.647 159.4C425.594 159.173 425.567 158.907 425.567 158.6C425.567 158.28 425.594 158.013 425.647 157.8C425.594 157.573 425.567 157.307 425.567 157C425.567 156.68 425.594 156.413 425.647 156.2C425.594 155.973 425.567 155.707 425.567 155.4C425.567 155.08 425.594 154.813 425.647 154.6H423.047C422.994 154.373 422.967 154.107 422.967 153.8C422.967 153.48 422.994 153.213 423.047 153H426.247C426.3 153.213 426.327 153.48 426.327 153.8C426.327 154.107 426.3 154.373 426.247 154.6H427.247C427.3 154.813 427.327 155.08 427.327 155.4C427.327 155.707 427.3 155.973 427.247 156.2ZM441.143 150.6C441.143 150.907 441.116 151.173 441.062 151.4H439.063C439.009 151.173 438.983 150.907 438.983 150.6C438.983 150.28 439.009 150.013 439.063 149.8H441.062C441.116 150.013 441.143 150.28 441.143 150.6ZM439.063 157.8C439.116 158.013 439.143 158.28 439.143 158.6C439.143 158.907 439.116 159.173 439.063 159.4H438.063C438.009 159.173 437.983 158.907 437.983 158.6C437.983 158.28 438.009 158.013 438.063 157.8H437.463C437.409 157.573 437.382 157.307 437.382 157C437.382 156.68 437.409 156.413 437.463 156.2C437.409 155.973 437.382 155.707 437.382 155.4C437.382 155.08 437.409 154.813 437.463 154.6C437.409 154.373 437.382 154.107 437.382 153.8C437.382 153.48 437.409 153.213 437.463 153H438.063C438.009 152.773 437.983 152.507 437.983 152.2C437.983 151.88 438.009 151.613 438.063 151.4H439.063C439.116 151.613 439.143 151.88 439.143 152.2C439.143 152.507 439.116 152.773 439.063 153C439.116 153.213 439.143 153.48 439.143 153.8C439.143 154.107 439.116 154.373 439.063 154.6C439.116 154.813 439.143 155.08 439.143 155.4C439.143 155.707 439.116 155.973 439.063 156.2C439.116 156.413 439.143 156.68 439.143 157C439.143 157.307 439.116 157.573 439.063 157.8ZM442.663 154.6C442.716 154.813 442.743 155.08 442.743 155.4C442.743 155.707 442.716 155.973 442.663 156.2C442.716 156.413 442.743 156.68 442.743 157C442.743 157.307 442.716 157.573 442.663 157.8H442.063C442.116 158.013 442.143 158.28 442.143 158.6C442.143 158.907 442.116 159.173 442.063 159.4H441.062C441.009 159.173 440.983 158.907 440.983 158.6C440.983 158.28 441.009 158.013 441.062 157.8C441.009 157.573 440.983 157.307 440.983 157C440.983 156.68 441.009 156.413 441.062 156.2C441.009 155.973 440.983 155.707 440.983 155.4C440.983 155.08 441.009 154.813 441.062 154.6C441.009 154.373 440.983 154.107 440.983 153.8C440.983 153.48 441.009 153.213 441.062 153C441.009 152.773 440.983 152.507 440.983 152.2C440.983 151.88 441.009 151.613 441.062 151.4H442.063C442.116 151.613 442.143 151.88 442.143 152.2C442.143 152.507 442.116 152.773 442.063 153H442.663C442.716 153.213 442.743 153.48 442.743 153.8C442.743 154.107 442.716 154.373 442.663 154.6ZM438.983 160.2C438.983 159.88 439.009 159.613 439.063 159.4H441.062C441.116 159.613 441.143 159.88 441.143 160.2C441.143 160.507 441.116 160.773 441.062 161H439.063C439.009 160.773 438.983 160.507 438.983 160.2ZM449.15 152.2C449.15 152.507 449.124 152.773 449.07 153C449.124 153.213 449.15 153.48 449.15 153.8C449.15 154.107 449.124 154.373 449.07 154.6H447.07C447.017 154.373 446.99 154.107 446.99 153.8C446.99 153.48 447.017 153.213 447.07 153C447.017 152.773 446.99 152.507 446.99 152.2C446.99 151.88 447.017 151.613 447.07 151.4H449.07C449.124 151.613 449.15 151.88 449.15 152.2ZM449.07 157.8C449.124 158.013 449.15 158.28 449.15 158.6C449.15 158.907 449.124 159.173 449.07 159.4C449.124 159.613 449.15 159.88 449.15 160.2C449.15 160.507 449.124 160.773 449.07 161C449.124 161.213 449.15 161.48 449.15 161.8C449.15 162.107 449.124 162.373 449.07 162.6H448.27C448.324 162.813 448.35 163.08 448.35 163.4C448.35 163.707 448.324 163.973 448.27 164.2H447.07C447.017 163.973 446.99 163.707 446.99 163.4C446.99 163.08 447.017 162.813 447.07 162.6H447.87C447.817 162.373 447.79 162.107 447.79 161.8C447.79 161.48 447.817 161.213 447.87 161H447.07C447.017 160.773 446.99 160.507 446.99 160.2C446.99 159.88 447.017 159.613 447.07 159.4C447.017 159.173 446.99 158.907 446.99 158.6C446.99 158.28 447.017 158.013 447.07 157.8H449.07ZM378.48 180.4C378.48 180.707 378.453 180.973 378.4 181.2H376.8C376.853 181.413 376.88 181.68 376.88 182C376.88 182.307 376.853 182.573 376.8 182.8C376.853 183.013 376.88 183.28 376.88 183.6C376.88 183.907 376.853 184.173 376.8 184.4C376.853 184.613 376.88 184.88 376.88 185.2C376.88 185.507 376.853 185.773 376.8 186H376C376.053 186.213 376.08 186.48 376.08 186.8C376.08 187.107 376.053 187.373 376 187.6H373.6C373.547 187.373 373.52 187.107 373.52 186.8C373.52 186.48 373.547 186.213 373.6 186H375.2C375.147 185.773 375.12 185.507 375.12 185.2C375.12 184.88 375.147 184.613 375.2 184.4C375.147 184.173 375.12 183.907 375.12 183.6C375.12 183.28 375.147 183.013 375.2 182.8C375.147 182.573 375.12 182.307 375.12 182C375.12 181.68 375.147 181.413 375.2 181.2H376C375.947 180.973 375.92 180.707 375.92 180.4C375.92 180.08 375.947 179.813 376 179.6H375.2C375.147 179.373 375.12 179.107 375.12 178.8C375.12 178.48 375.147 178.213 375.2 178C375.147 177.773 375.12 177.507 375.12 177.2C375.12 176.88 375.147 176.613 375.2 176.4C375.147 176.173 375.12 175.907 375.12 175.6C375.12 175.28 375.147 175.013 375.2 174.8H373.6C373.547 174.573 373.52 174.307 373.52 174C373.52 173.68 373.547 173.413 373.6 173.2H376C376.053 173.413 376.08 173.68 376.08 174C376.08 174.307 376.053 174.573 376 174.8H376.8C376.853 175.013 376.88 175.28 376.88 175.6C376.88 175.907 376.853 176.173 376.8 176.4C376.853 176.613 376.88 176.88 376.88 177.2C376.88 177.507 376.853 177.773 376.8 178C376.853 178.213 376.88 178.48 376.88 178.8C376.88 179.107 376.853 179.373 376.8 179.6H378.4C378.453 179.813 378.48 180.08 378.48 180.4ZM379.2 209.4C379.253 209.613 379.28 209.88 379.28 210.2C379.28 210.507 379.253 210.773 379.2 211H372.8C372.747 210.773 372.72 210.507 372.72 210.2C372.72 209.88 372.747 209.613 372.8 209.4H379.2Z" fill="#56B6C2"/>
</svg>
