<svg width="645" height="395" viewBox="0 0 645 395" fill="none" xmlns="http://www.w3.org/2000/svg" shape-rendering="crispEdges">
<line x1="345" y1="2.5" x2="580" y2="2.5" stroke="#EFC018" stroke-width="5"/>
<line x1="360" y1="17.5" x2="566" y2="17.5" stroke="#EFC018" stroke-width="5"/>
<line x1="345" y1="262.5" x2="580" y2="262.5" stroke="#EFC018" stroke-width="5"/>
<line x1="300" y1="287.5" x2="625" y2="287.5" stroke="#EFC018" stroke-width="5"/>
<line x1="298" y1="387.5" x2="623" y2="387.5" stroke="#EFC018" stroke-width="5"/>
<line x1="2.18557e-07" y1="392.5" x2="645" y2="392.5" stroke="#EFC018" stroke-width="5"/>
<line x1="360" y1="227.5" x2="566" y2="227.5" stroke="#EFC018" stroke-width="5"/>
<line x1="450" y1="297.5" x2="610" y2="297.5" stroke="#EFC018" stroke-width="5"/>
<line x1="455" y1="332.5" x2="490" y2="332.5" stroke="#EFC018" stroke-width="5"/>
<line x1="535" y1="332.5" x2="570" y2="332.5" stroke="#EFC018" stroke-width="5"/>
<line x1="490" y1="327.5" x2="535" y2="327.5" stroke="#EFC018" stroke-width="5"/>
<line x1="490" y1="337.5" x2="535" y2="337.5" stroke="#EFC018" stroke-width="5"/>
<line x1="585" y1="322.5" x2="605" y2="322.5" stroke="#EFC018" stroke-width="5"/>
<line x1="425" y1="267.5" x2="493" y2="267.5" stroke="#EFC018" stroke-width="5"/>
<line x1="415" y1="272.5" x2="503" y2="272.5" stroke="#EFC018" stroke-width="5"/>
<line x1="405" y1="277.5" x2="513" y2="277.5" stroke="#EFC018" stroke-width="5"/>
<line x1="395" y1="282.5" x2="523" y2="282.5" stroke="#EFC018" stroke-width="5"/>
<line x1="585" y1="332.5" x2="605" y2="332.5" stroke="#EFC018" stroke-width="5"/>
<line x1="457.5" y1="370" x2="457.5" y2="360" stroke="#D0666F" stroke-width="5"/>
<line x1="467.5" y1="370" x2="467.5" y2="360" stroke="#4FC485" stroke-width="5"/>
<line x1="585" y1="342.5" x2="605" y2="342.5" stroke="#EFC018" stroke-width="5"/>
<line x1="450" y1="377.5" x2="610" y2="377.5" stroke="#EFC018" stroke-width="5"/>
<line x1="342.5" y1="260" x2="342.5" y2="5" stroke="#EFC018" stroke-width="5"/>
<line x1="297.5" y1="385" x2="297.5" y2="290" stroke="#EFC018" stroke-width="5"/>
<line x1="174.5" y1="335" x2="174.5" y2="329" stroke="#EFC018" stroke-width="5"/>
<line x1="169.5" y1="325" x2="169.5" y2="320" stroke="#EFC018" stroke-width="5"/>
<line x1="234.5" y1="326" x2="234.5" y2="320" stroke="#EFC018" stroke-width="5"/>
<line x1="229.5" y1="335" x2="229.5" y2="329" stroke="#EFC018" stroke-width="5"/>
<line x1="242" y1="327.5" x2="162" y2="327.5" stroke="#EFC018" stroke-width="5"/>
<line x1="232" y1="317.5" x2="172" y2="317.5" stroke="#EFC018" stroke-width="5"/>
<line x1="232" y1="345.5" x2="172" y2="345.5" stroke="#EFC018" stroke-width="5"/>
<line x1="174.5" y1="345" x2="174.5" y2="335" stroke="#EFC018" stroke-width="5"/>
<line y1="-2.5" x2="10" y2="-2.5" transform="matrix(-4.37114e-08 -1 -1 4.37114e-08 227 345)" stroke="#EFC018" stroke-width="5"/>
<line x1="174.5" y1="355" x2="174.5" y2="345" stroke="#EFC018" stroke-width="5"/>
<line y1="-2.5" x2="10" y2="-2.5" transform="matrix(-4.37114e-08 -1 -1 4.37114e-08 227 355)" stroke="#EFC018" stroke-width="5"/>
<line x1="179.5" y1="370" x2="179.5" y2="355" stroke="#EFC018" stroke-width="5"/>
<line x1="187.5" y1="305" x2="187.5" y2="300" stroke="#EFC018" stroke-width="5"/>
<line x1="211.5" y1="305" x2="211.5" y2="300" stroke="#EFC018" stroke-width="5"/>
<line x1="186.5" y1="300" x2="186.5" y2="295" stroke="#EFC018" stroke-width="5"/>
<line x1="212.5" y1="300" x2="212.5" y2="295" stroke="#EFC018" stroke-width="5"/>
<line x1="187.5" y1="295" x2="187.5" y2="290" stroke="#EFC018" stroke-width="5"/>
<line x1="211.5" y1="295" x2="211.5" y2="290" stroke="#EFC018" stroke-width="5"/>
<line x1="181.5" y1="285" x2="181.5" y2="280" stroke="#EFC018" stroke-width="5"/>
<line x1="211.5" y1="285" x2="211.5" y2="280" stroke="#EFC018" stroke-width="5"/>
<line x1="186.5" y1="280" x2="186.5" y2="275" stroke="#EFC018" stroke-width="5"/>
<line x1="212.5" y1="280" x2="212.5" y2="275" stroke="#EFC018" stroke-width="5"/>
<line x1="186.5" y1="290" x2="186.5" y2="285" stroke="#EFC018" stroke-width="5"/>
<line x1="212.5" y1="290" x2="212.5" y2="285" stroke="#EFC018" stroke-width="5"/>
<line y1="-2.5" x2="15" y2="-2.5" transform="matrix(-4.37114e-08 -1 -1 4.37114e-08 222 370)" stroke="#EFC018" stroke-width="5"/>
<line x1="184.5" y1="385" x2="184.5" y2="370" stroke="#EFC018" stroke-width="5"/>
<line x1="187" y1="387.5" x2="217" y2="387.5" stroke="#EFC018" stroke-width="5"/>
<line y1="-2.5" x2="15" y2="-2.5" transform="matrix(-4.37114e-08 -1 -1 4.37114e-08 217 385)" stroke="#EFC018" stroke-width="5"/>
<line x1="447.5" y1="375" x2="447.5" y2="300" stroke="#EFC018" stroke-width="5"/>
<line x1="307.5" y1="375" x2="307.5" y2="340" stroke="#EFC018" stroke-width="5"/>
<line x1="317.5" y1="375" x2="317.5" y2="340" stroke="#EFC018" stroke-width="5"/>
<line x1="327.5" y1="375" x2="327.5" y2="340" stroke="#EFC018" stroke-width="5"/>
<line x1="337.5" y1="375" x2="337.5" y2="340" stroke="#EFC018" stroke-width="5"/>
<line x1="347.5" y1="375" x2="347.5" y2="340" stroke="#EFC018" stroke-width="5"/>
<line x1="357.5" y1="375" x2="357.5" y2="340" stroke="#EFC018" stroke-width="5"/>
<line x1="367.5" y1="375" x2="367.5" y2="340" stroke="#EFC018" stroke-width="5"/>
<line x1="377.5" y1="375" x2="377.5" y2="340" stroke="#EFC018" stroke-width="5"/>
<line x1="387.5" y1="375" x2="387.5" y2="340" stroke="#EFC018" stroke-width="5"/>
<line x1="397.5" y1="375" x2="397.5" y2="340" stroke="#EFC018" stroke-width="5"/>
<line x1="407.5" y1="375" x2="407.5" y2="340" stroke="#EFC018" stroke-width="5"/>
<line x1="417.5" y1="375" x2="417.5" y2="340" stroke="#EFC018" stroke-width="5"/>
<line x1="427.5" y1="375" x2="427.5" y2="340" stroke="#EFC018" stroke-width="5"/>
<line x1="437.5" y1="375" x2="437.5" y2="340" stroke="#EFC018" stroke-width="5"/>
<line x1="612.5" y1="375" x2="612.5" y2="300" stroke="#EFC018" stroke-width="5"/>
<line x1="627.5" y1="385" x2="627.5" y2="290" stroke="#EFC018" stroke-width="5"/>
<line x1="357.5" y1="226" x2="357.5" y2="20" stroke="#EFC018" stroke-width="5"/>
<line x1="582.5" y1="260" x2="582.5" y2="5" stroke="#EFC018" stroke-width="5"/>
<line x1="568.5" y1="226" x2="568.5" y2="20" stroke="#EFC018" stroke-width="5"/>
<path d="M182 362.5H222V355H229.5V343H174.5V355H182V362.5Z" fill="#56B6C2" stroke="#56B6C2" stroke-width="5"/>
<rect x="90" y="384" width="5" height="6" fill="#D0666F"/>
<rect x="105" y="384" width="5" height="6" fill="#D0666F"/>
<rect x="85" y="387" width="5" height="3" fill="#D0666F"/>
<rect x="100" y="387" width="5" height="3" fill="#D0666F"/>
<rect x="70" y="349" width="5" height="5" fill="#EFC018"/>
<rect x="95" y="349" width="5" height="5" fill="#EFC018"/>
<rect x="70" y="344" width="5" height="5" fill="#EFC018"/>
<rect x="95" y="344" width="5" height="5" fill="#EFC018"/>
<rect x="75" y="339" width="5" height="5" fill="#EFC018"/>
<rect x="80" y="339" width="5" height="5" fill="#EFC018"/>
<rect x="77" y="349" width="5" height="5" fill="#EFC018"/>
<rect x="75" y="362" width="5" height="7" fill="#EFC018"/>
<rect x="75" y="369" width="5" height="5" fill="#EFC018"/>
<rect x="80" y="374" width="5" height="5" fill="#EFC018"/>
<rect x="90" y="367" width="5" height="5" fill="#EFC018"/>
<rect x="95" y="372" width="15" height="5" fill="#EFC018"/>
<rect x="110" y="367" width="5" height="5" fill="#EFC018"/>
<rect x="85" y="379" width="30" height="5" fill="#EFC018"/>
<rect x="100" y="354" width="5" height="5" fill="#EFC018"/>
<rect x="105" y="354" width="5" height="5" fill="#EFC018"/>
<rect x="110" y="354" width="5" height="5" fill="#EFC018"/>
<rect x="120" y="349" width="5" height="5" fill="#EFC018"/>
<rect x="120" y="354" width="5" height="5" fill="#EFC018"/>
<rect x="115" y="354" width="5" height="5" fill="#EFC018"/>
<rect x="120" y="359" width="5" height="15" fill="#EFC018"/>
<rect x="115" y="374" width="5" height="5" fill="#EFC018"/>
<rect x="86" y="349" width="5" height="5" fill="#EFC018"/>
<rect x="85" y="339" width="5" height="5" fill="#EFC018"/>
<rect x="90" y="339" width="5" height="5" fill="#EFC018"/>
<rect x="60" y="354" width="30" height="5" fill="#D0666F"/>
<rect x="65" y="359" width="25" height="5" fill="#D0666F"/>
<path d="M378.2 56.2C378.253 56.4133 378.28 56.68 378.28 57C378.28 57.3067 378.253 57.5733 378.2 57.8H377.2C377.253 58.0133 377.28 58.28 377.28 58.6C377.28 58.9067 377.253 59.1733 377.2 59.4H375.6C375.547 59.1733 375.52 58.9067 375.52 58.6C375.52 58.28 375.547 58.0133 375.6 57.8H374.4C374.453 58.0133 374.48 58.28 374.48 58.6C374.48 58.9067 374.453 59.1733 374.4 59.4H372.8C372.747 59.1733 372.72 58.9067 372.72 58.6C372.72 58.28 372.747 58.0133 372.8 57.8H371.8C371.747 57.5733 371.72 57.3067 371.72 57C371.72 56.68 371.747 56.4133 371.8 56.2H372.8C372.747 55.9733 372.72 55.7067 372.72 55.4C372.72 55.08 372.747 54.8133 372.8 54.6C372.747 54.3733 372.72 54.1067 372.72 53.8C372.72 53.48 372.747 53.2133 372.8 53H371.8C371.747 52.7733 371.72 52.5067 371.72 52.2C371.72 51.88 371.747 51.6133 371.8 51.4H372.8C372.747 51.1733 372.72 50.9067 372.72 50.6C372.72 50.28 372.747 50.0133 372.8 49.8H374.4C374.453 50.0133 374.48 50.28 374.48 50.6C374.48 50.9067 374.453 51.1733 374.4 51.4H375.6C375.547 51.1733 375.52 50.9067 375.52 50.6C375.52 50.28 375.547 50.0133 375.6 49.8H377.2C377.253 50.0133 377.28 50.28 377.28 50.6C377.28 50.9067 377.253 51.1733 377.2 51.4H378.2C378.253 51.6133 378.28 51.88 378.28 52.2C378.28 52.5067 378.253 52.7733 378.2 53H377.2C377.253 53.2133 377.28 53.48 377.28 53.8C377.28 54.1067 377.253 54.3733 377.2 54.6C377.253 54.8133 377.28 55.08 377.28 55.4C377.28 55.7067 377.253 55.9733 377.2 56.2H378.2ZM375.6 56.2C375.547 55.9733 375.52 55.7067 375.52 55.4C375.52 55.08 375.547 54.8133 375.6 54.6C375.547 54.3733 375.52 54.1067 375.52 53.8C375.52 53.48 375.547 53.2133 375.6 53H374.4C374.453 53.2133 374.48 53.48 374.48 53.8C374.48 54.1067 374.453 54.3733 374.4 54.6C374.453 54.8133 374.48 55.08 374.48 55.4C374.48 55.7067 374.453 55.9733 374.4 56.2H375.6ZM382.208 51.4C382.154 51.1733 382.128 50.9067 382.128 50.6C382.128 50.28 382.154 50.0133 382.208 49.8H383.808C383.861 50.0133 383.888 50.28 383.888 50.6C383.888 50.9067 383.861 51.1733 383.808 51.4H382.208ZM385.408 59.4C385.461 59.6133 385.488 59.88 385.488 60.2C385.488 60.5067 385.461 60.7733 385.408 61H380.608C380.554 60.7733 380.528 60.5067 380.528 60.2C380.528 59.88 380.554 59.6133 380.608 59.4H382.208C382.154 59.1733 382.128 58.9067 382.128 58.6C382.128 58.28 382.154 58.0133 382.208 57.8C382.154 57.5733 382.128 57.3067 382.128 57C382.128 56.68 382.154 56.4133 382.208 56.2C382.154 55.9733 382.128 55.7067 382.128 55.4C382.128 55.08 382.154 54.8133 382.208 54.6H381.008C380.954 54.3733 380.928 54.1067 380.928 53.8C380.928 53.48 380.954 53.2133 381.008 53H383.808C383.861 53.2133 383.888 53.48 383.888 53.8C383.888 54.1067 383.861 54.3733 383.808 54.6C383.861 54.8133 383.888 55.08 383.888 55.4C383.888 55.7067 383.861 55.9733 383.808 56.2C383.861 56.4133 383.888 56.68 383.888 57C383.888 57.3067 383.861 57.5733 383.808 57.8C383.861 58.0133 383.888 58.28 383.888 58.6C383.888 58.9067 383.861 59.1733 383.808 59.4H385.408ZM389.296 53.8C389.296 54.1067 389.269 54.3733 389.216 54.6H390.016C390.069 54.8133 390.096 55.08 390.096 55.4C390.096 55.7067 390.069 55.9733 390.016 56.2H389.416C389.469 56.4133 389.496 56.68 389.496 57C389.496 57.3067 389.469 57.5733 389.416 57.8C389.469 58.0133 389.496 58.28 389.496 58.6C389.496 58.9067 389.469 59.1733 389.416 59.4C389.469 59.6133 389.496 59.88 389.496 60.2C389.496 60.5067 389.469 60.7733 389.416 61H387.816C387.762 60.7733 387.736 60.5067 387.736 60.2C387.736 59.88 387.762 59.6133 387.816 59.4C387.762 59.1733 387.736 58.9067 387.736 58.6C387.736 58.28 387.762 58.0133 387.816 57.8C387.762 57.5733 387.736 57.3067 387.736 57C387.736 56.68 387.762 56.4133 387.816 56.2C387.762 55.9733 387.736 55.7067 387.736 55.4C387.736 55.08 387.762 54.8133 387.816 54.6C387.762 54.3733 387.736 54.1067 387.736 53.8C387.736 53.48 387.762 53.2133 387.816 53H389.216C389.269 53.2133 389.296 53.48 389.296 53.8ZM394.216 56.2C394.269 56.4133 394.296 56.68 394.296 57C394.296 57.3067 394.269 57.5733 394.216 57.8C394.269 58.0133 394.296 58.28 394.296 58.6C394.296 58.9067 394.269 59.1733 394.216 59.4C394.269 59.6133 394.296 59.88 394.296 60.2C394.296 60.5067 394.269 60.7733 394.216 61H392.616C392.562 60.7733 392.536 60.5067 392.536 60.2C392.536 59.88 392.562 59.6133 392.616 59.4C392.562 59.1733 392.536 58.9067 392.536 58.6C392.536 58.28 392.562 58.0133 392.616 57.8C392.562 57.5733 392.536 57.3067 392.536 57C392.536 56.68 392.562 56.4133 392.616 56.2C392.562 55.9733 392.536 55.7067 392.536 55.4C392.536 55.08 392.562 54.8133 392.616 54.6H390.016C389.962 54.3733 389.936 54.1067 389.936 53.8C389.936 53.48 389.962 53.2133 390.016 53H393.216C393.269 53.2133 393.296 53.48 393.296 53.8C393.296 54.1067 393.269 54.3733 393.216 54.6H394.216C394.269 54.8133 394.296 55.08 394.296 55.4C394.296 55.7067 394.269 55.9733 394.216 56.2ZM402.223 57.8C402.277 58.0133 402.303 58.28 402.303 58.6C402.303 58.9067 402.277 59.1733 402.223 59.4H401.423C401.477 59.6133 401.503 59.88 401.503 60.2C401.503 60.5067 401.477 60.7733 401.423 61H397.423C397.37 60.7733 397.343 60.5067 397.343 60.2C397.343 59.88 397.37 59.6133 397.423 59.4H396.623C396.57 59.1733 396.543 58.9067 396.543 58.6C396.543 58.28 396.57 58.0133 396.623 57.8H395.823C395.77 57.5733 395.743 57.3067 395.743 57C395.743 56.68 395.77 56.4133 395.823 56.2H396.623C396.57 55.9733 396.543 55.7067 396.543 55.4C396.543 55.08 396.57 54.8133 396.623 54.6H397.423C397.37 54.3733 397.343 54.1067 397.343 53.8C397.343 53.48 397.37 53.2133 397.423 53H401.423C401.477 53.2133 401.503 53.48 401.503 53.8C401.503 54.1067 401.477 54.3733 401.423 54.6H402.223C402.277 54.8133 402.303 55.08 402.303 55.4C402.303 55.7067 402.277 55.9733 402.223 56.2H400.623C400.57 55.9733 400.543 55.7067 400.543 55.4C400.543 55.08 400.57 54.8133 400.623 54.6H398.223C398.277 54.8133 398.303 55.08 398.303 55.4C398.303 55.7067 398.277 55.9733 398.223 56.2H397.423C397.477 56.4133 397.503 56.68 397.503 57C397.503 57.3067 397.477 57.5733 397.423 57.8H398.223C398.277 58.0133 398.303 58.28 398.303 58.6C398.303 58.9067 398.277 59.1733 398.223 59.4H400.623C400.57 59.1733 400.543 58.9067 400.543 58.6C400.543 58.28 400.57 58.0133 400.623 57.8H402.223ZM409.431 59.4C409.485 59.6133 409.511 59.88 409.511 60.2C409.511 60.5067 409.485 60.7733 409.431 61H404.631C404.578 60.7733 404.551 60.5067 404.551 60.2C404.551 59.88 404.578 59.6133 404.631 59.4H406.231C406.178 59.1733 406.151 58.9067 406.151 58.6C406.151 58.28 406.178 58.0133 406.231 57.8C406.178 57.5733 406.151 57.3067 406.151 57C406.151 56.68 406.178 56.4133 406.231 56.2C406.178 55.9733 406.151 55.7067 406.151 55.4C406.151 55.08 406.178 54.8133 406.231 54.6C406.178 54.3733 406.151 54.1067 406.151 53.8C406.151 53.48 406.178 53.2133 406.231 53C406.178 52.7733 406.151 52.5067 406.151 52.2C406.151 51.88 406.178 51.6133 406.231 51.4H405.031C404.978 51.1733 404.951 50.9067 404.951 50.6C404.951 50.28 404.978 50.0133 405.031 49.8H407.831C407.885 50.0133 407.911 50.28 407.911 50.6C407.911 50.9067 407.885 51.1733 407.831 51.4C407.885 51.6133 407.911 51.88 407.911 52.2C407.911 52.5067 407.885 52.7733 407.831 53C407.885 53.2133 407.911 53.48 407.911 53.8C407.911 54.1067 407.885 54.3733 407.831 54.6C407.885 54.8133 407.911 55.08 407.911 55.4C407.911 55.7067 407.885 55.9733 407.831 56.2C407.885 56.4133 407.911 56.68 407.911 57C407.911 57.3067 407.885 57.5733 407.831 57.8C407.885 58.0133 407.911 58.28 407.911 58.6C407.911 58.9067 407.885 59.1733 407.831 59.4H409.431ZM414.119 58.6C414.119 58.9067 414.092 59.1733 414.039 59.4H416.039C416.092 59.6133 416.119 59.88 416.119 60.2C416.119 60.5067 416.092 60.7733 416.039 61H412.839C412.786 60.7733 412.759 60.5067 412.759 60.2C412.759 59.88 412.786 59.6133 412.839 59.4H411.839C411.786 59.1733 411.759 58.9067 411.759 58.6C411.759 58.28 411.786 58.0133 411.839 57.8C411.786 57.5733 411.759 57.3067 411.759 57C411.759 56.68 411.786 56.4133 411.839 56.2C411.786 55.9733 411.759 55.7067 411.759 55.4C411.759 55.08 411.786 54.8133 411.839 54.6C411.786 54.3733 411.759 54.1067 411.759 53.8C411.759 53.48 411.786 53.2133 411.839 53H413.439C413.492 53.2133 413.519 53.48 413.519 53.8C413.519 54.1067 413.492 54.3733 413.439 54.6C413.492 54.8133 413.519 55.08 413.519 55.4C413.519 55.7067 413.492 55.9733 413.439 56.2C413.492 56.4133 413.519 56.68 413.519 57C413.519 57.3067 413.492 57.5733 413.439 57.8H414.039C414.092 58.0133 414.119 58.28 414.119 58.6ZM418.239 54.6C418.292 54.8133 418.319 55.08 418.319 55.4C418.319 55.7067 418.292 55.9733 418.239 56.2C418.292 56.4133 418.319 56.68 418.319 57C418.319 57.3067 418.292 57.5733 418.239 57.8C418.292 58.0133 418.319 58.28 418.319 58.6C418.319 58.9067 418.292 59.1733 418.239 59.4C418.292 59.6133 418.319 59.88 418.319 60.2C418.319 60.5067 418.292 60.7733 418.239 61H416.639C416.586 60.7733 416.559 60.5067 416.559 60.2C416.559 59.88 416.586 59.6133 416.639 59.4H416.039C415.986 59.1733 415.959 58.9067 415.959 58.6C415.959 58.28 415.986 58.0133 416.039 57.8H416.639C416.586 57.5733 416.559 57.3067 416.559 57C416.559 56.68 416.586 56.4133 416.639 56.2C416.586 55.9733 416.559 55.7067 416.559 55.4C416.559 55.08 416.586 54.8133 416.639 54.6C416.586 54.3733 416.559 54.1067 416.559 53.8C416.559 53.48 416.586 53.2133 416.639 53H418.239C418.292 53.2133 418.319 53.48 418.319 53.8C418.319 54.1067 418.292 54.3733 418.239 54.6ZM426.247 51.4C426.3 51.6133 426.327 51.88 426.327 52.2C426.327 52.5067 426.3 52.7733 426.247 53C426.3 53.2133 426.327 53.48 426.327 53.8C426.327 54.1067 426.3 54.3733 426.247 54.6C426.3 54.8133 426.327 55.08 426.327 55.4C426.327 55.7067 426.3 55.9733 426.247 56.2C426.3 56.4133 426.327 56.68 426.327 57C426.327 57.3067 426.3 57.5733 426.247 57.8C426.3 58.0133 426.327 58.28 426.327 58.6C426.327 58.9067 426.3 59.1733 426.247 59.4C426.3 59.6133 426.327 59.88 426.327 60.2C426.327 60.5067 426.3 60.7733 426.247 61H424.647C424.594 60.7733 424.567 60.5067 424.567 60.2C424.567 59.88 424.594 59.6133 424.647 59.4H424.047C423.994 59.1733 423.967 58.9067 423.967 58.6C423.967 58.28 423.994 58.0133 424.047 57.8H424.647C424.594 57.5733 424.567 57.3067 424.567 57C424.567 56.68 424.594 56.4133 424.647 56.2H424.047C423.994 55.9733 423.967 55.7067 423.967 55.4C423.967 55.08 423.994 54.8133 424.047 54.6H424.647C424.594 54.3733 424.567 54.1067 424.567 53.8C424.567 53.48 424.594 53.2133 424.647 53C424.594 52.7733 424.567 52.5067 424.567 52.2C424.567 51.88 424.594 51.6133 424.647 51.4C424.594 51.1733 424.567 50.9067 424.567 50.6C424.567 50.28 424.594 50.0133 424.647 49.8H426.247C426.3 50.0133 426.327 50.28 426.327 50.6C426.327 50.9067 426.3 51.1733 426.247 51.4ZM423.727 53.8C423.727 54.1067 423.7 54.3733 423.647 54.6H421.647C421.7 54.8133 421.727 55.08 421.727 55.4C421.727 55.7067 421.7 55.9733 421.647 56.2H421.047C421.1 56.4133 421.127 56.68 421.127 57C421.127 57.3067 421.1 57.5733 421.047 57.8H421.647C421.7 58.0133 421.727 58.28 421.727 58.6C421.727 58.9067 421.7 59.1733 421.647 59.4H423.647C423.7 59.6133 423.727 59.88 423.727 60.2C423.727 60.5067 423.7 60.7733 423.647 61H421.447C421.394 60.7733 421.367 60.5067 421.367 60.2C421.367 59.88 421.394 59.6133 421.447 59.4H420.447C420.394 59.1733 420.367 58.9067 420.367 58.6C420.367 58.28 420.394 58.0133 420.447 57.8H419.847C419.794 57.5733 419.767 57.3067 419.767 57C419.767 56.68 419.794 56.4133 419.847 56.2H420.447C420.394 55.9733 420.367 55.7067 420.367 55.4C420.367 55.08 420.394 54.8133 420.447 54.6H421.447C421.394 54.3733 421.367 54.1067 421.367 53.8C421.367 53.48 421.394 53.2133 421.447 53H423.647C423.7 53.2133 423.727 53.48 423.727 53.8ZM434.335 55.4C434.335 55.7067 434.308 55.9733 434.255 56.2C434.308 56.4133 434.335 56.68 434.335 57C434.335 57.3067 434.308 57.5733 434.255 57.8H430.055C430.108 58.0133 430.135 58.28 430.135 58.6C430.135 58.9067 430.108 59.1733 430.055 59.4H433.455C433.508 59.6133 433.535 59.88 433.535 60.2C433.535 60.5067 433.508 60.7733 433.455 61H429.455C429.401 60.7733 429.375 60.5067 429.375 60.2C429.375 59.88 429.401 59.6133 429.455 59.4H428.455C428.401 59.1733 428.375 58.9067 428.375 58.6C428.375 58.28 428.401 58.0133 428.455 57.8H427.855C427.801 57.5733 427.775 57.3067 427.775 57C427.775 56.68 427.801 56.4133 427.855 56.2H428.455C428.401 55.9733 428.375 55.7067 428.375 55.4C428.375 55.08 428.401 54.8133 428.455 54.6H429.455C429.401 54.3733 429.375 54.1067 429.375 53.8C429.375 53.48 429.401 53.2133 429.455 53H433.455C433.508 53.2133 433.535 53.48 433.535 53.8C433.535 54.1067 433.508 54.3733 433.455 54.6H434.255C434.308 54.8133 434.335 55.08 434.335 55.4ZM432.655 56.2C432.601 55.9733 432.575 55.7067 432.575 55.4C432.575 55.08 432.601 54.8133 432.655 54.6H430.055C430.108 54.8133 430.135 55.08 430.135 55.4C430.135 55.7067 430.108 55.9733 430.055 56.2H432.655ZM449.37 59.4C449.424 59.6133 449.45 59.88 449.45 60.2C449.45 60.5067 449.424 60.7733 449.37 61H447.77C447.717 60.7733 447.69 60.5067 447.69 60.2C447.69 59.88 447.717 59.6133 447.77 59.4H446.77C446.717 59.1733 446.69 58.9067 446.69 58.6C446.69 58.28 446.717 58.0133 446.77 57.8H445.77C445.717 57.5733 445.69 57.3067 445.69 57C445.69 56.68 445.717 56.4133 445.77 56.2H444.77C444.717 55.9733 444.69 55.7067 444.69 55.4C444.69 55.08 444.717 54.8133 444.77 54.6H445.77C445.717 54.3733 445.69 54.1067 445.69 53.8C445.69 53.48 445.717 53.2133 445.77 53H446.77C446.717 52.7733 446.69 52.5067 446.69 52.2C446.69 51.88 446.717 51.6133 446.77 51.4H447.77C447.717 51.1733 447.69 50.9067 447.69 50.6C447.69 50.28 447.717 50.0133 447.77 49.8H449.37C449.424 50.0133 449.45 50.28 449.45 50.6C449.45 50.9067 449.424 51.1733 449.37 51.4H448.37C448.424 51.6133 448.45 51.88 448.45 52.2C448.45 52.5067 448.424 52.7733 448.37 53H447.37C447.424 53.2133 447.45 53.48 447.45 53.8C447.45 54.1067 447.424 54.3733 447.37 54.6H446.37C446.424 54.8133 446.45 55.08 446.45 55.4C446.45 55.7067 446.424 55.9733 446.37 56.2H447.37C447.424 56.4133 447.45 56.68 447.45 57C447.45 57.3067 447.424 57.5733 447.37 57.8H448.37C448.424 58.0133 448.45 58.28 448.45 58.6C448.45 58.9067 448.424 59.1733 448.37 59.4H449.37ZM457.958 58.6C457.958 58.9067 457.931 59.1733 457.878 59.4H457.078C457.131 59.6133 457.158 59.88 457.158 60.2C457.158 60.5067 457.131 60.7733 457.078 61H452.678C452.625 60.7733 452.598 60.5067 452.598 60.2C452.598 59.88 452.625 59.6133 452.678 59.4H456.278C456.225 59.1733 456.198 58.9067 456.198 58.6C456.198 58.28 456.225 58.0133 456.278 57.8H453.078C453.025 57.5733 452.998 57.3067 452.998 57C452.998 56.68 453.025 56.4133 453.078 56.2H452.278C452.225 55.9733 452.198 55.7067 452.198 55.4C452.198 55.08 452.225 54.8133 452.278 54.6H453.078C453.025 54.3733 452.998 54.1067 452.998 53.8C452.998 53.48 453.025 53.2133 453.078 53H457.478C457.531 53.2133 457.558 53.48 457.558 53.8C457.558 54.1067 457.531 54.3733 457.478 54.6H453.878C453.931 54.8133 453.958 55.08 453.958 55.4C453.958 55.7067 453.931 55.9733 453.878 56.2H457.078C457.131 56.4133 457.158 56.68 457.158 57C457.158 57.3067 457.131 57.5733 457.078 57.8H457.878C457.931 58.0133 457.958 58.28 457.958 58.6ZM465.486 59.4C465.539 59.6133 465.566 59.88 465.566 60.2C465.566 60.5067 465.539 60.7733 465.486 61H462.286C462.233 60.7733 462.206 60.5067 462.206 60.2C462.206 59.88 462.233 59.6133 462.286 59.4H461.486C461.433 59.1733 461.406 58.9067 461.406 58.6C461.406 58.28 461.433 58.0133 461.486 57.8C461.433 57.5733 461.406 57.3067 461.406 57C461.406 56.68 461.433 56.4133 461.486 56.2C461.433 55.9733 461.406 55.7067 461.406 55.4C461.406 55.08 461.433 54.8133 461.486 54.6H459.886C459.833 54.3733 459.806 54.1067 459.806 53.8C459.806 53.48 459.833 53.2133 459.886 53H461.486C461.433 52.7733 461.406 52.5067 461.406 52.2C461.406 51.88 461.433 51.6133 461.486 51.4C461.433 51.1733 461.406 50.9067 461.406 50.6C461.406 50.28 461.433 50.0133 461.486 49.8H463.086C463.139 50.0133 463.166 50.28 463.166 50.6C463.166 50.9067 463.139 51.1733 463.086 51.4C463.139 51.6133 463.166 51.88 463.166 52.2C463.166 52.5067 463.139 52.7733 463.086 53H465.486C465.539 53.2133 465.566 53.48 465.566 53.8C465.566 54.1067 465.539 54.3733 465.486 54.6H463.086C463.139 54.8133 463.166 55.08 463.166 55.4C463.166 55.7067 463.139 55.9733 463.086 56.2C463.139 56.4133 463.166 56.68 463.166 57C463.166 57.3067 463.139 57.5733 463.086 57.8C463.139 58.0133 463.166 58.28 463.166 58.6C463.166 58.9067 463.139 59.1733 463.086 59.4H465.486ZM474.294 51.4C474.347 51.6133 474.374 51.88 474.374 52.2C474.374 52.5067 474.347 52.7733 474.294 53C474.347 53.2133 474.374 53.48 474.374 53.8C474.374 54.1067 474.347 54.3733 474.294 54.6C474.347 54.8133 474.374 55.08 474.374 55.4C474.374 55.7067 474.347 55.9733 474.294 56.2C474.347 56.4133 474.374 56.68 474.374 57C474.374 57.3067 474.347 57.5733 474.294 57.8C474.347 58.0133 474.374 58.28 474.374 58.6C474.374 58.9067 474.347 59.1733 474.294 59.4C474.347 59.6133 474.374 59.88 474.374 60.2C474.374 60.5067 474.347 60.7733 474.294 61H472.694C472.64 60.7733 472.614 60.5067 472.614 60.2C472.614 59.88 472.64 59.6133 472.694 59.4H472.094C472.04 59.1733 472.014 58.9067 472.014 58.6C472.014 58.28 472.04 58.0133 472.094 57.8H472.694C472.64 57.5733 472.614 57.3067 472.614 57C472.614 56.68 472.64 56.4133 472.694 56.2H472.094C472.04 55.9733 472.014 55.7067 472.014 55.4C472.014 55.08 472.04 54.8133 472.094 54.6H472.694C472.64 54.3733 472.614 54.1067 472.614 53.8C472.614 53.48 472.64 53.2133 472.694 53C472.64 52.7733 472.614 52.5067 472.614 52.2C472.614 51.88 472.64 51.6133 472.694 51.4C472.64 51.1733 472.614 50.9067 472.614 50.6C472.614 50.28 472.64 50.0133 472.694 49.8H474.294C474.347 50.0133 474.374 50.28 474.374 50.6C474.374 50.9067 474.347 51.1733 474.294 51.4ZM471.774 53.8C471.774 54.1067 471.747 54.3733 471.694 54.6H469.694C469.747 54.8133 469.774 55.08 469.774 55.4C469.774 55.7067 469.747 55.9733 469.694 56.2H469.094C469.147 56.4133 469.174 56.68 469.174 57C469.174 57.3067 469.147 57.5733 469.094 57.8H469.694C469.747 58.0133 469.774 58.28 469.774 58.6C469.774 58.9067 469.747 59.1733 469.694 59.4H471.694C471.747 59.6133 471.774 59.88 471.774 60.2C471.774 60.5067 471.747 60.7733 471.694 61H469.494C469.44 60.7733 469.414 60.5067 469.414 60.2C469.414 59.88 469.44 59.6133 469.494 59.4H468.494C468.44 59.1733 468.414 58.9067 468.414 58.6C468.414 58.28 468.44 58.0133 468.494 57.8H467.894C467.84 57.5733 467.814 57.3067 467.814 57C467.814 56.68 467.84 56.4133 467.894 56.2H468.494C468.44 55.9733 468.414 55.7067 468.414 55.4C468.414 55.08 468.44 54.8133 468.494 54.6H469.494C469.44 54.3733 469.414 54.1067 469.414 53.8C469.414 53.48 469.44 53.2133 469.494 53H471.694C471.747 53.2133 471.774 53.48 471.774 53.8ZM478.302 51.4C478.248 51.1733 478.222 50.9067 478.222 50.6C478.222 50.28 478.248 50.0133 478.302 49.8H479.902C479.955 50.0133 479.982 50.28 479.982 50.6C479.982 50.9067 479.955 51.1733 479.902 51.4H478.302ZM481.502 59.4C481.555 59.6133 481.582 59.88 481.582 60.2C481.582 60.5067 481.555 60.7733 481.502 61H476.702C476.648 60.7733 476.622 60.5067 476.622 60.2C476.622 59.88 476.648 59.6133 476.702 59.4H478.302C478.248 59.1733 478.222 58.9067 478.222 58.6C478.222 58.28 478.248 58.0133 478.302 57.8C478.248 57.5733 478.222 57.3067 478.222 57C478.222 56.68 478.248 56.4133 478.302 56.2C478.248 55.9733 478.222 55.7067 478.222 55.4C478.222 55.08 478.248 54.8133 478.302 54.6H477.102C477.048 54.3733 477.022 54.1067 477.022 53.8C477.022 53.48 477.048 53.2133 477.102 53H479.902C479.955 53.2133 479.982 53.48 479.982 53.8C479.982 54.1067 479.955 54.3733 479.902 54.6C479.955 54.8133 479.982 55.08 479.982 55.4C479.982 55.7067 479.955 55.9733 479.902 56.2C479.955 56.4133 479.982 56.68 479.982 57C479.982 57.3067 479.955 57.5733 479.902 57.8C479.955 58.0133 479.982 58.28 479.982 58.6C479.982 58.9067 479.955 59.1733 479.902 59.4H481.502ZM490.389 57C490.389 57.3067 490.363 57.5733 490.309 57.8H489.709C489.763 58.0133 489.789 58.28 489.789 58.6C489.789 58.9067 489.763 59.1733 489.709 59.4H488.709C488.763 59.6133 488.789 59.88 488.789 60.2C488.789 60.5067 488.763 60.7733 488.709 61H485.509C485.456 60.7733 485.429 60.5067 485.429 60.2C485.429 59.88 485.456 59.6133 485.509 59.4H484.509C484.456 59.1733 484.429 58.9067 484.429 58.6C484.429 58.28 484.456 58.0133 484.509 57.8H483.909C483.856 57.5733 483.829 57.3067 483.829 57C483.829 56.68 483.856 56.4133 483.909 56.2H484.509C484.456 55.9733 484.429 55.7067 484.429 55.4C484.429 55.08 484.456 54.8133 484.509 54.6H485.509C485.456 54.3733 485.429 54.1067 485.429 53.8C485.429 53.48 485.456 53.2133 485.509 53H488.709C488.763 53.2133 488.789 53.48 488.789 53.8C488.789 54.1067 488.763 54.3733 488.709 54.6H489.709C489.763 54.8133 489.789 55.08 489.789 55.4C489.789 55.7067 489.763 55.9733 489.709 56.2H490.309C490.363 56.4133 490.389 56.68 490.389 57ZM488.709 57.8C488.656 57.5733 488.629 57.3067 488.629 57C488.629 56.68 488.656 56.4133 488.709 56.2H488.109C488.056 55.9733 488.029 55.7067 488.029 55.4C488.029 55.08 488.056 54.8133 488.109 54.6H486.109C486.163 54.8133 486.189 55.08 486.189 55.4C486.189 55.7067 486.163 55.9733 486.109 56.2H485.509C485.563 56.4133 485.589 56.68 485.589 57C485.589 57.3067 485.563 57.5733 485.509 57.8H486.109C486.163 58.0133 486.189 58.28 486.189 58.6C486.189 58.9067 486.163 59.1733 486.109 59.4H488.109C488.056 59.1733 488.029 58.9067 488.029 58.6C488.029 58.28 488.056 58.0133 488.109 57.8H488.709ZM496.197 58.6C496.197 58.9067 496.171 59.1733 496.117 59.4C496.171 59.6133 496.197 59.88 496.197 60.2C496.197 60.5067 496.171 60.7733 496.117 61H494.117C494.064 60.7733 494.037 60.5067 494.037 60.2C494.037 59.88 494.064 59.6133 494.117 59.4C494.064 59.1733 494.037 58.9067 494.037 58.6C494.037 58.28 494.064 58.0133 494.117 57.8H496.117C496.171 58.0133 496.197 58.28 496.197 58.6ZM501.605 53.8C501.605 54.1067 501.578 54.3733 501.525 54.6H502.125C502.178 54.8133 502.205 55.08 502.205 55.4C502.205 55.7067 502.178 55.9733 502.125 56.2H501.525C501.578 56.4133 501.605 56.68 501.605 57C501.605 57.3067 501.578 57.5733 501.525 57.8C501.578 58.0133 501.605 58.28 501.605 58.6C501.605 58.9067 501.578 59.1733 501.525 59.4C501.578 59.6133 501.605 59.88 501.605 60.2C501.605 60.5067 501.578 60.7733 501.525 61H499.925C499.872 60.7733 499.845 60.5067 499.845 60.2C499.845 59.88 499.872 59.6133 499.925 59.4C499.872 59.1733 499.845 58.9067 499.845 58.6C499.845 58.28 499.872 58.0133 499.925 57.8C499.872 57.5733 499.845 57.3067 499.845 57C499.845 56.68 499.872 56.4133 499.925 56.2C499.872 55.9733 499.845 55.7067 499.845 55.4C499.845 55.08 499.872 54.8133 499.925 54.6C499.872 54.3733 499.845 54.1067 499.845 53.8C499.845 53.48 499.872 53.2133 499.925 53C499.872 52.7733 499.845 52.5067 499.845 52.2C499.845 51.88 499.872 51.6133 499.925 51.4C499.872 51.1733 499.845 50.9067 499.845 50.6C499.845 50.28 499.872 50.0133 499.925 49.8H501.525C501.578 50.0133 501.605 50.28 501.605 50.6C501.605 50.9067 501.578 51.1733 501.525 51.4C501.578 51.6133 501.605 51.88 501.605 52.2C501.605 52.5067 501.578 52.7733 501.525 53C501.578 53.2133 501.605 53.48 501.605 53.8ZM506.325 56.2C506.378 56.4133 506.405 56.68 506.405 57C506.405 57.3067 506.378 57.5733 506.325 57.8C506.378 58.0133 506.405 58.28 506.405 58.6C506.405 58.9067 506.378 59.1733 506.325 59.4C506.378 59.6133 506.405 59.88 506.405 60.2C506.405 60.5067 506.378 60.7733 506.325 61H504.725C504.672 60.7733 504.645 60.5067 504.645 60.2C504.645 59.88 504.672 59.6133 504.725 59.4C504.672 59.1733 504.645 58.9067 504.645 58.6C504.645 58.28 504.672 58.0133 504.725 57.8C504.672 57.5733 504.645 57.3067 504.645 57C504.645 56.68 504.672 56.4133 504.725 56.2C504.672 55.9733 504.645 55.7067 504.645 55.4C504.645 55.08 504.672 54.8133 504.725 54.6H502.125C502.072 54.3733 502.045 54.1067 502.045 53.8C502.045 53.48 502.072 53.2133 502.125 53H505.325C505.378 53.2133 505.405 53.48 505.405 53.8C505.405 54.1067 505.378 54.3733 505.325 54.6H506.325C506.378 54.8133 506.405 55.08 506.405 55.4C506.405 55.7067 506.378 55.9733 506.325 56.2ZM513.513 55.4C513.513 55.7067 513.486 55.9733 513.433 56.2H512.433C512.486 56.4133 512.513 56.68 512.513 57C512.513 57.3067 512.486 57.5733 512.433 57.8H511.433C511.486 58.0133 511.513 58.28 511.513 58.6C511.513 58.9067 511.486 59.1733 511.433 59.4H510.433C510.486 59.6133 510.513 59.88 510.513 60.2C510.513 60.5067 510.486 60.7733 510.433 61H508.833C508.779 60.7733 508.753 60.5067 508.753 60.2C508.753 59.88 508.779 59.6133 508.833 59.4H509.833C509.779 59.1733 509.753 58.9067 509.753 58.6C509.753 58.28 509.779 58.0133 509.833 57.8H510.833C510.779 57.5733 510.753 57.3067 510.753 57C510.753 56.68 510.779 56.4133 510.833 56.2H511.833C511.779 55.9733 511.753 55.7067 511.753 55.4C511.753 55.08 511.779 54.8133 511.833 54.6H510.833C510.779 54.3733 510.753 54.1067 510.753 53.8C510.753 53.48 510.779 53.2133 510.833 53H509.833C509.779 52.7733 509.753 52.5067 509.753 52.2C509.753 51.88 509.779 51.6133 509.833 51.4H508.833C508.779 51.1733 508.753 50.9067 508.753 50.6C508.753 50.28 508.779 50.0133 508.833 49.8H510.433C510.486 50.0133 510.513 50.28 510.513 50.6C510.513 50.9067 510.486 51.1733 510.433 51.4H511.433C511.486 51.6133 511.513 51.88 511.513 52.2C511.513 52.5067 511.486 52.7733 511.433 53H512.433C512.486 53.2133 512.513 53.48 512.513 53.8C512.513 54.1067 512.486 54.3733 512.433 54.6H513.433C513.486 54.8133 513.513 55.08 513.513 55.4ZM374.2 101.4C374.147 101.173 374.12 100.907 374.12 100.6C374.12 100.28 374.147 100.013 374.2 99.8H375.8C375.853 100.013 375.88 100.28 375.88 100.6C375.88 100.907 375.853 101.173 375.8 101.4H374.2ZM377.4 109.4C377.453 109.613 377.48 109.88 377.48 110.2C377.48 110.507 377.453 110.773 377.4 111H372.6C372.547 110.773 372.52 110.507 372.52 110.2C372.52 109.88 372.547 109.613 372.6 109.4H374.2C374.147 109.173 374.12 108.907 374.12 108.6C374.12 108.28 374.147 108.013 374.2 107.8C374.147 107.573 374.12 107.307 374.12 107C374.12 106.68 374.147 106.413 374.2 106.2C374.147 105.973 374.12 105.707 374.12 105.4C374.12 105.08 374.147 104.813 374.2 104.6H373C372.947 104.373 372.92 104.107 372.92 103.8C372.92 103.48 372.947 103.213 373 103H375.8C375.853 103.213 375.88 103.48 375.88 103.8C375.88 104.107 375.853 104.373 375.8 104.6C375.853 104.813 375.88 105.08 375.88 105.4C375.88 105.707 375.853 105.973 375.8 106.2C375.853 106.413 375.88 106.68 375.88 107C375.88 107.307 375.853 107.573 375.8 107.8C375.853 108.013 375.88 108.28 375.88 108.6C375.88 108.907 375.853 109.173 375.8 109.4H377.4ZM381.288 103.8C381.288 104.107 381.261 104.373 381.208 104.6H382.008C382.061 104.813 382.088 105.08 382.088 105.4C382.088 105.707 382.061 105.973 382.008 106.2H381.408C381.461 106.413 381.488 106.68 381.488 107C381.488 107.307 381.461 107.573 381.408 107.8C381.461 108.013 381.488 108.28 381.488 108.6C381.488 108.907 381.461 109.173 381.408 109.4C381.461 109.613 381.488 109.88 381.488 110.2C381.488 110.507 381.461 110.773 381.408 111H379.808C379.754 110.773 379.728 110.507 379.728 110.2C379.728 109.88 379.754 109.613 379.808 109.4C379.754 109.173 379.728 108.907 379.728 108.6C379.728 108.28 379.754 108.013 379.808 107.8C379.754 107.573 379.728 107.307 379.728 107C379.728 106.68 379.754 106.413 379.808 106.2C379.754 105.973 379.728 105.707 379.728 105.4C379.728 105.08 379.754 104.813 379.808 104.6C379.754 104.373 379.728 104.107 379.728 103.8C379.728 103.48 379.754 103.213 379.808 103H381.208C381.261 103.213 381.288 103.48 381.288 103.8ZM386.208 106.2C386.261 106.413 386.288 106.68 386.288 107C386.288 107.307 386.261 107.573 386.208 107.8C386.261 108.013 386.288 108.28 386.288 108.6C386.288 108.907 386.261 109.173 386.208 109.4C386.261 109.613 386.288 109.88 386.288 110.2C386.288 110.507 386.261 110.773 386.208 111H384.608C384.554 110.773 384.528 110.507 384.528 110.2C384.528 109.88 384.554 109.613 384.608 109.4C384.554 109.173 384.528 108.907 384.528 108.6C384.528 108.28 384.554 108.013 384.608 107.8C384.554 107.573 384.528 107.307 384.528 107C384.528 106.68 384.554 106.413 384.608 106.2C384.554 105.973 384.528 105.707 384.528 105.4C384.528 105.08 384.554 104.813 384.608 104.6H382.008C381.954 104.373 381.928 104.107 381.928 103.8C381.928 103.48 381.954 103.213 382.008 103H385.208C385.261 103.213 385.288 103.48 385.288 103.8C385.288 104.107 385.261 104.373 385.208 104.6H386.208C386.261 104.813 386.288 105.08 386.288 105.4C386.288 105.707 386.261 105.973 386.208 106.2ZM393.416 109.4C393.469 109.613 393.496 109.88 393.496 110.2C393.496 110.507 393.469 110.773 393.416 111H390.216C390.162 110.773 390.136 110.507 390.136 110.2C390.136 109.88 390.162 109.613 390.216 109.4H389.416C389.362 109.173 389.336 108.907 389.336 108.6C389.336 108.28 389.362 108.013 389.416 107.8C389.362 107.573 389.336 107.307 389.336 107C389.336 106.68 389.362 106.413 389.416 106.2C389.362 105.973 389.336 105.707 389.336 105.4C389.336 105.08 389.362 104.813 389.416 104.6H387.816C387.762 104.373 387.736 104.107 387.736 103.8C387.736 103.48 387.762 103.213 387.816 103H389.416C389.362 102.773 389.336 102.507 389.336 102.2C389.336 101.88 389.362 101.613 389.416 101.4C389.362 101.173 389.336 100.907 389.336 100.6C389.336 100.28 389.362 100.013 389.416 99.8H391.016C391.069 100.013 391.096 100.28 391.096 100.6C391.096 100.907 391.069 101.173 391.016 101.4C391.069 101.613 391.096 101.88 391.096 102.2C391.096 102.507 391.069 102.773 391.016 103H393.416C393.469 103.213 393.496 103.48 393.496 103.8C393.496 104.107 393.469 104.373 393.416 104.6H391.016C391.069 104.813 391.096 105.08 391.096 105.4C391.096 105.707 391.069 105.973 391.016 106.2C391.069 106.413 391.096 106.68 391.096 107C391.096 107.307 391.069 107.573 391.016 107.8C391.069 108.013 391.096 108.28 391.096 108.6C391.096 108.907 391.069 109.173 391.016 109.4H393.416ZM404.911 103.8C404.911 104.107 404.885 104.373 404.831 104.6H405.431C405.485 104.813 405.511 105.08 405.511 105.4C405.511 105.707 405.485 105.973 405.431 106.2C405.485 106.413 405.511 106.68 405.511 107C405.511 107.307 405.485 107.573 405.431 107.8C405.485 108.013 405.511 108.28 405.511 108.6C405.511 108.907 405.485 109.173 405.431 109.4C405.485 109.613 405.511 109.88 405.511 110.2C405.511 110.507 405.485 110.773 405.431 111H403.831C403.778 110.773 403.751 110.507 403.751 110.2C403.751 109.88 403.778 109.613 403.831 109.4C403.778 109.173 403.751 108.907 403.751 108.6C403.751 108.28 403.778 108.013 403.831 107.8C403.778 107.573 403.751 107.307 403.751 107C403.751 106.68 403.778 106.413 403.831 106.2C403.778 105.973 403.751 105.707 403.751 105.4C403.751 105.08 403.778 104.813 403.831 104.6C403.778 104.373 403.751 104.107 403.751 103.8C403.751 103.48 403.778 103.213 403.831 103H404.831C404.885 103.213 404.911 103.48 404.911 103.8ZM407.111 103.8C407.111 104.107 407.085 104.373 407.031 104.6H407.631C407.685 104.813 407.711 105.08 407.711 105.4C407.711 105.707 407.685 105.973 407.631 106.2C407.685 106.413 407.711 106.68 407.711 107C407.711 107.307 407.685 107.573 407.631 107.8C407.685 108.013 407.711 108.28 407.711 108.6C407.711 108.907 407.685 109.173 407.631 109.4C407.685 109.613 407.711 109.88 407.711 110.2C407.711 110.507 407.685 110.773 407.631 111H406.431C406.378 110.773 406.351 110.507 406.351 110.2C406.351 109.88 406.378 109.613 406.431 109.4C406.378 109.173 406.351 108.907 406.351 108.6C406.351 108.28 406.378 108.013 406.431 107.8C406.378 107.573 406.351 107.307 406.351 107C406.351 106.68 406.378 106.413 406.431 106.2C406.378 105.973 406.351 105.707 406.351 105.4C406.351 105.08 406.378 104.813 406.431 104.6H405.431C405.378 104.373 405.351 104.107 405.351 103.8C405.351 103.48 405.378 103.213 405.431 103H407.031C407.085 103.213 407.111 103.48 407.111 103.8ZM410.231 106.2C410.285 106.413 410.311 106.68 410.311 107C410.311 107.307 410.285 107.573 410.231 107.8C410.285 108.013 410.311 108.28 410.311 108.6C410.311 108.907 410.285 109.173 410.231 109.4C410.285 109.613 410.311 109.88 410.311 110.2C410.311 110.507 410.285 110.773 410.231 111H408.631C408.578 110.773 408.551 110.507 408.551 110.2C408.551 109.88 408.578 109.613 408.631 109.4C408.578 109.173 408.551 108.907 408.551 108.6C408.551 108.28 408.578 108.013 408.631 107.8C408.578 107.573 408.551 107.307 408.551 107C408.551 106.68 408.578 106.413 408.631 106.2C408.578 105.973 408.551 105.707 408.551 105.4C408.551 105.08 408.578 104.813 408.631 104.6H407.631C407.578 104.373 407.551 104.107 407.551 103.8C407.551 103.48 407.578 103.213 407.631 103H409.431C409.485 103.213 409.511 103.48 409.511 103.8C409.511 104.107 409.485 104.373 409.431 104.6H410.231C410.285 104.813 410.311 105.08 410.311 105.4C410.311 105.707 410.285 105.973 410.231 106.2ZM418.239 109.4C418.292 109.613 418.319 109.88 418.319 110.2C418.319 110.507 418.292 110.773 418.239 111H416.639C416.586 110.773 416.559 110.507 416.559 110.2C416.559 109.88 416.586 109.613 416.639 109.4H415.839C415.786 109.173 415.759 108.907 415.759 108.6C415.759 108.28 415.786 108.013 415.839 107.8H413.439C413.492 108.013 413.519 108.28 413.519 108.6C413.519 108.907 413.492 109.173 413.439 109.4H415.839C415.892 109.613 415.919 109.88 415.919 110.2C415.919 110.507 415.892 110.773 415.839 111H412.639C412.586 110.773 412.559 110.507 412.559 110.2C412.559 109.88 412.586 109.613 412.639 109.4H411.839C411.786 109.173 411.759 108.907 411.759 108.6C411.759 108.28 411.786 108.013 411.839 107.8H412.639C412.586 107.573 412.559 107.307 412.559 107C412.559 106.68 412.586 106.413 412.639 106.2H415.839C415.786 105.973 415.759 105.707 415.759 105.4C415.759 105.08 415.786 104.813 415.839 104.6H413.039C412.986 104.373 412.959 104.107 412.959 103.8C412.959 103.48 412.986 103.213 413.039 103H416.639C416.692 103.213 416.719 103.48 416.719 103.8C416.719 104.107 416.692 104.373 416.639 104.6H417.439C417.492 104.813 417.519 105.08 417.519 105.4C417.519 105.707 417.492 105.973 417.439 106.2C417.492 106.413 417.519 106.68 417.519 107C417.519 107.307 417.492 107.573 417.439 107.8C417.492 108.013 417.519 108.28 417.519 108.6C417.519 108.907 417.492 109.173 417.439 109.4H418.239ZM422.247 101.4C422.194 101.173 422.167 100.907 422.167 100.6C422.167 100.28 422.194 100.013 422.247 99.8H423.847C423.9 100.013 423.927 100.28 423.927 100.6C423.927 100.907 423.9 101.173 423.847 101.4H422.247ZM425.447 109.4C425.5 109.613 425.527 109.88 425.527 110.2C425.527 110.507 425.5 110.773 425.447 111H420.647C420.594 110.773 420.567 110.507 420.567 110.2C420.567 109.88 420.594 109.613 420.647 109.4H422.247C422.194 109.173 422.167 108.907 422.167 108.6C422.167 108.28 422.194 108.013 422.247 107.8C422.194 107.573 422.167 107.307 422.167 107C422.167 106.68 422.194 106.413 422.247 106.2C422.194 105.973 422.167 105.707 422.167 105.4C422.167 105.08 422.194 104.813 422.247 104.6H421.047C420.994 104.373 420.967 104.107 420.967 103.8C420.967 103.48 420.994 103.213 421.047 103H423.847C423.9 103.213 423.927 103.48 423.927 103.8C423.927 104.107 423.9 104.373 423.847 104.6C423.9 104.813 423.927 105.08 423.927 105.4C423.927 105.707 423.9 105.973 423.847 106.2C423.9 106.413 423.927 106.68 423.927 107C423.927 107.307 423.9 107.573 423.847 107.8C423.9 108.013 423.927 108.28 423.927 108.6C423.927 108.907 423.9 109.173 423.847 109.4H425.447ZM429.335 103.8C429.335 104.107 429.308 104.373 429.255 104.6H430.055C430.108 104.813 430.135 105.08 430.135 105.4C430.135 105.707 430.108 105.973 430.055 106.2H429.455C429.508 106.413 429.535 106.68 429.535 107C429.535 107.307 429.508 107.573 429.455 107.8C429.508 108.013 429.535 108.28 429.535 108.6C429.535 108.907 429.508 109.173 429.455 109.4C429.508 109.613 429.535 109.88 429.535 110.2C429.535 110.507 429.508 110.773 429.455 111H427.855C427.801 110.773 427.775 110.507 427.775 110.2C427.775 109.88 427.801 109.613 427.855 109.4C427.801 109.173 427.775 108.907 427.775 108.6C427.775 108.28 427.801 108.013 427.855 107.8C427.801 107.573 427.775 107.307 427.775 107C427.775 106.68 427.801 106.413 427.855 106.2C427.801 105.973 427.775 105.707 427.775 105.4C427.775 105.08 427.801 104.813 427.855 104.6C427.801 104.373 427.775 104.107 427.775 103.8C427.775 103.48 427.801 103.213 427.855 103H429.255C429.308 103.213 429.335 103.48 429.335 103.8ZM434.255 106.2C434.308 106.413 434.335 106.68 434.335 107C434.335 107.307 434.308 107.573 434.255 107.8C434.308 108.013 434.335 108.28 434.335 108.6C434.335 108.907 434.308 109.173 434.255 109.4C434.308 109.613 434.335 109.88 434.335 110.2C434.335 110.507 434.308 110.773 434.255 111H432.655C432.601 110.773 432.575 110.507 432.575 110.2C432.575 109.88 432.601 109.613 432.655 109.4C432.601 109.173 432.575 108.907 432.575 108.6C432.575 108.28 432.601 108.013 432.655 107.8C432.601 107.573 432.575 107.307 432.575 107C432.575 106.68 432.601 106.413 432.655 106.2C432.601 105.973 432.575 105.707 432.575 105.4C432.575 105.08 432.601 104.813 432.655 104.6H430.055C430.001 104.373 429.975 104.107 429.975 103.8C429.975 103.48 430.001 103.213 430.055 103H433.255C433.308 103.213 433.335 103.48 433.335 103.8C433.335 104.107 433.308 104.373 433.255 104.6H434.255C434.308 104.813 434.335 105.08 434.335 105.4C434.335 105.707 434.308 105.973 434.255 106.2ZM440.843 99C440.843 99.3067 440.816 99.5733 440.763 99.8H439.763C439.709 99.5733 439.683 99.3067 439.683 99C439.683 98.68 439.709 98.4133 439.763 98.2H440.763C440.816 98.4133 440.843 98.68 440.843 99ZM439.763 109.4C439.816 109.613 439.843 109.88 439.843 110.2C439.843 110.507 439.816 110.773 439.763 111H438.763C438.709 110.773 438.683 110.507 438.683 110.2C438.683 109.88 438.709 109.613 438.763 109.4H438.263C438.209 109.173 438.183 108.907 438.183 108.6C438.183 108.28 438.209 108.013 438.263 107.8H437.663C437.609 107.573 437.583 107.307 437.583 107C437.583 106.68 437.609 106.413 437.663 106.2C437.609 105.973 437.583 105.707 437.583 105.4C437.583 105.08 437.609 104.813 437.663 104.6C437.609 104.373 437.583 104.107 437.583 103.8C437.583 103.48 437.609 103.213 437.663 103H438.263C438.209 102.773 438.183 102.507 438.183 102.2C438.183 101.88 438.209 101.613 438.263 101.4H438.763C438.709 101.173 438.683 100.907 438.683 100.6C438.683 100.28 438.709 100.013 438.763 99.8H439.763C439.816 100.013 439.843 100.28 439.843 100.6C439.843 100.907 439.816 101.173 439.763 101.4H439.263C439.316 101.613 439.343 101.88 439.343 102.2C439.343 102.507 439.316 102.773 439.263 103C439.316 103.213 439.343 103.48 439.343 103.8C439.343 104.107 439.316 104.373 439.263 104.6C439.316 104.813 439.343 105.08 439.343 105.4C439.343 105.707 439.316 105.973 439.263 106.2C439.316 106.413 439.343 106.68 439.343 107C439.343 107.307 439.316 107.573 439.263 107.8C439.316 108.013 439.343 108.28 439.343 108.6C439.343 108.907 439.316 109.173 439.263 109.4H439.763ZM440.763 111C440.816 111.213 440.843 111.48 440.843 111.8C440.843 112.107 440.816 112.373 440.763 112.6H439.763C439.709 112.373 439.683 112.107 439.683 111.8C439.683 111.48 439.709 111.213 439.763 111H440.763ZM446.37 98.2C446.424 98.4133 446.45 98.68 446.45 99C446.45 99.3067 446.424 99.5733 446.37 99.8H445.37C445.317 99.5733 445.29 99.3067 445.29 99C445.29 98.68 445.317 98.4133 445.37 98.2H446.37ZM448.47 104.6C448.524 104.813 448.55 105.08 448.55 105.4C448.55 105.707 448.524 105.973 448.47 106.2C448.524 106.413 448.55 106.68 448.55 107C448.55 107.307 448.524 107.573 448.47 107.8H447.87C447.924 108.013 447.95 108.28 447.95 108.6C447.95 108.907 447.924 109.173 447.87 109.4H447.37C447.424 109.613 447.45 109.88 447.45 110.2C447.45 110.507 447.424 110.773 447.37 111H446.37C446.317 110.773 446.29 110.507 446.29 110.2C446.29 109.88 446.317 109.613 446.37 109.4H446.87C446.817 109.173 446.79 108.907 446.79 108.6C446.79 108.28 446.817 108.013 446.87 107.8C446.817 107.573 446.79 107.307 446.79 107C446.79 106.68 446.817 106.413 446.87 106.2C446.817 105.973 446.79 105.707 446.79 105.4C446.79 105.08 446.817 104.813 446.87 104.6C446.817 104.373 446.79 104.107 446.79 103.8C446.79 103.48 446.817 103.213 446.87 103C446.817 102.773 446.79 102.507 446.79 102.2C446.79 101.88 446.817 101.613 446.87 101.4H446.37C446.317 101.173 446.29 100.907 446.29 100.6C446.29 100.28 446.317 100.013 446.37 99.8H447.37C447.424 100.013 447.45 100.28 447.45 100.6C447.45 100.907 447.424 101.173 447.37 101.4H447.87C447.924 101.613 447.95 101.88 447.95 102.2C447.95 102.507 447.924 102.773 447.87 103H448.47C448.524 103.213 448.55 103.48 448.55 103.8C448.55 104.107 448.524 104.373 448.47 104.6ZM445.29 111.8C445.29 111.48 445.317 111.213 445.37 111H446.37C446.424 111.213 446.45 111.48 446.45 111.8C446.45 112.107 446.424 112.373 446.37 112.6H445.37C445.317 112.373 445.29 112.107 445.29 111.8ZM457.478 111C457.531 111.213 457.558 111.48 457.558 111.8C457.558 112.107 457.531 112.373 457.478 112.6H455.078C455.025 112.373 454.998 112.107 454.998 111.8C454.998 111.48 455.025 111.213 455.078 111H454.278C454.225 110.773 454.198 110.507 454.198 110.2C454.198 109.88 454.225 109.613 454.278 109.4C454.225 109.173 454.198 108.907 454.198 108.6C454.198 108.28 454.225 108.013 454.278 107.8C454.225 107.573 454.198 107.307 454.198 107C454.198 106.68 454.225 106.413 454.278 106.2H452.678C452.625 105.973 452.598 105.707 452.598 105.4C452.598 105.08 452.625 104.813 452.678 104.6H454.278C454.225 104.373 454.198 104.107 454.198 103.8C454.198 103.48 454.225 103.213 454.278 103C454.225 102.773 454.198 102.507 454.198 102.2C454.198 101.88 454.225 101.613 454.278 101.4C454.225 101.173 454.198 100.907 454.198 100.6C454.198 100.28 454.225 100.013 454.278 99.8H455.078C455.025 99.5733 454.998 99.3067 454.998 99C454.998 98.68 455.025 98.4133 455.078 98.2H457.478C457.531 98.4133 457.558 98.68 457.558 99C457.558 99.3067 457.531 99.5733 457.478 99.8H455.878C455.931 100.013 455.958 100.28 455.958 100.6C455.958 100.907 455.931 101.173 455.878 101.4C455.931 101.613 455.958 101.88 455.958 102.2C455.958 102.507 455.931 102.773 455.878 103C455.931 103.213 455.958 103.48 455.958 103.8C455.958 104.107 455.931 104.373 455.878 104.6H455.078C455.131 104.813 455.158 105.08 455.158 105.4C455.158 105.707 455.131 105.973 455.078 106.2H455.878C455.931 106.413 455.958 106.68 455.958 107C455.958 107.307 455.931 107.573 455.878 107.8C455.931 108.013 455.958 108.28 455.958 108.6C455.958 108.907 455.931 109.173 455.878 109.4C455.931 109.613 455.958 109.88 455.958 110.2C455.958 110.507 455.931 110.773 455.878 111H457.478ZM386.288 132C386.288 132.307 386.261 132.573 386.208 132.8H385.408C385.461 133.013 385.488 133.28 385.488 133.6C385.488 133.907 385.461 134.173 385.408 134.4H384.608C384.661 134.613 384.688 134.88 384.688 135.2C384.688 135.507 384.661 135.773 384.608 136H381.408C381.461 136.213 381.488 136.48 381.488 136.8C381.488 137.107 381.461 137.373 381.408 137.6C381.461 137.813 381.488 138.08 381.488 138.4C381.488 138.707 381.461 138.973 381.408 139.2H379.808C379.754 138.973 379.728 138.707 379.728 138.4C379.728 138.08 379.754 137.813 379.808 137.6C379.754 137.373 379.728 137.107 379.728 136.8C379.728 136.48 379.754 136.213 379.808 136C379.754 135.773 379.728 135.507 379.728 135.2C379.728 134.88 379.754 134.613 379.808 134.4C379.754 134.173 379.728 133.907 379.728 133.6C379.728 133.28 379.754 133.013 379.808 132.8C379.754 132.573 379.728 132.307 379.728 132C379.728 131.68 379.754 131.413 379.808 131.2C379.754 130.973 379.728 130.707 379.728 130.4C379.728 130.08 379.754 129.813 379.808 129.6C379.754 129.373 379.728 129.107 379.728 128.8C379.728 128.48 379.754 128.213 379.808 128H381.408C381.461 128.213 381.488 128.48 381.488 128.8C381.488 129.107 381.461 129.373 381.408 129.6H382.208C382.261 129.813 382.288 130.08 382.288 130.4C382.288 130.707 382.261 130.973 382.208 131.2H381.408C381.461 131.413 381.488 131.68 381.488 132C381.488 132.307 381.461 132.573 381.408 132.8C381.461 133.013 381.488 133.28 381.488 133.6C381.488 133.907 381.461 134.173 381.408 134.4H383.808C383.754 134.173 383.728 133.907 383.728 133.6C383.728 133.28 383.754 133.013 383.808 132.8H384.608C384.554 132.573 384.528 132.307 384.528 132C384.528 131.68 384.554 131.413 384.608 131.2H383.808C383.754 130.973 383.728 130.707 383.728 130.4C383.728 130.08 383.754 129.813 383.808 129.6H382.208C382.154 129.373 382.128 129.107 382.128 128.8C382.128 128.48 382.154 128.213 382.208 128H384.608C384.661 128.213 384.688 128.48 384.688 128.8C384.688 129.107 384.661 129.373 384.608 129.6H385.408C385.461 129.813 385.488 130.08 385.488 130.4C385.488 130.707 385.461 130.973 385.408 131.2H386.208C386.261 131.413 386.288 131.68 386.288 132ZM394.216 129.6C394.269 129.813 394.296 130.08 394.296 130.4C394.296 130.707 394.269 130.973 394.216 131.2H392.616C392.562 130.973 392.536 130.707 392.536 130.4C392.536 130.08 392.562 129.813 392.616 129.6H391.216C391.269 129.813 391.296 130.08 391.296 130.4C391.296 130.707 391.269 130.973 391.216 131.2H390.616C390.669 131.413 390.696 131.68 390.696 132C390.696 132.307 390.669 132.573 390.616 132.8C390.669 133.013 390.696 133.28 390.696 133.6C390.696 133.907 390.669 134.173 390.616 134.4H391.816C391.869 134.613 391.896 134.88 391.896 135.2C391.896 135.507 391.869 135.773 391.816 136H387.816C387.762 135.773 387.736 135.507 387.736 135.2C387.736 134.88 387.762 134.613 387.816 134.4H389.016C388.962 134.173 388.936 133.907 388.936 133.6C388.936 133.28 388.962 133.013 389.016 132.8C388.962 132.573 388.936 132.307 388.936 132C388.936 131.68 388.962 131.413 389.016 131.2C388.962 130.973 388.936 130.707 388.936 130.4C388.936 130.08 388.962 129.813 389.016 129.6H387.816C387.762 129.373 387.736 129.107 387.736 128.8C387.736 128.48 387.762 128.213 387.816 128H389.816C389.869 128.213 389.896 128.48 389.896 128.8C389.896 129.107 389.869 129.373 389.816 129.6H390.616C390.562 129.373 390.536 129.107 390.536 128.8C390.536 128.48 390.562 128.213 390.616 128H393.616C393.669 128.213 393.696 128.48 393.696 128.8C393.696 129.107 393.669 129.373 393.616 129.6H394.216ZM398.223 126.4C398.17 126.173 398.143 125.907 398.143 125.6C398.143 125.28 398.17 125.013 398.223 124.8H399.823C399.877 125.013 399.903 125.28 399.903 125.6C399.903 125.907 399.877 126.173 399.823 126.4H398.223ZM401.423 134.4C401.477 134.613 401.503 134.88 401.503 135.2C401.503 135.507 401.477 135.773 401.423 136H396.623C396.57 135.773 396.543 135.507 396.543 135.2C396.543 134.88 396.57 134.613 396.623 134.4H398.223C398.17 134.173 398.143 133.907 398.143 133.6C398.143 133.28 398.17 133.013 398.223 132.8C398.17 132.573 398.143 132.307 398.143 132C398.143 131.68 398.17 131.413 398.223 131.2C398.17 130.973 398.143 130.707 398.143 130.4C398.143 130.08 398.17 129.813 398.223 129.6H397.023C396.97 129.373 396.943 129.107 396.943 128.8C396.943 128.48 396.97 128.213 397.023 128H399.823C399.877 128.213 399.903 128.48 399.903 128.8C399.903 129.107 399.877 129.373 399.823 129.6C399.877 129.813 399.903 130.08 399.903 130.4C399.903 130.707 399.877 130.973 399.823 131.2C399.877 131.413 399.903 131.68 399.903 132C399.903 132.307 399.877 132.573 399.823 132.8C399.877 133.013 399.903 133.28 399.903 133.6C399.903 133.907 399.877 134.173 399.823 134.4H401.423ZM405.311 128.8C405.311 129.107 405.285 129.373 405.231 129.6H406.031C406.085 129.813 406.111 130.08 406.111 130.4C406.111 130.707 406.085 130.973 406.031 131.2H405.431C405.485 131.413 405.511 131.68 405.511 132C405.511 132.307 405.485 132.573 405.431 132.8C405.485 133.013 405.511 133.28 405.511 133.6C405.511 133.907 405.485 134.173 405.431 134.4C405.485 134.613 405.511 134.88 405.511 135.2C405.511 135.507 405.485 135.773 405.431 136H403.831C403.778 135.773 403.751 135.507 403.751 135.2C403.751 134.88 403.778 134.613 403.831 134.4C403.778 134.173 403.751 133.907 403.751 133.6C403.751 133.28 403.778 133.013 403.831 132.8C403.778 132.573 403.751 132.307 403.751 132C403.751 131.68 403.778 131.413 403.831 131.2C403.778 130.973 403.751 130.707 403.751 130.4C403.751 130.08 403.778 129.813 403.831 129.6C403.778 129.373 403.751 129.107 403.751 128.8C403.751 128.48 403.778 128.213 403.831 128H405.231C405.285 128.213 405.311 128.48 405.311 128.8ZM410.231 131.2C410.285 131.413 410.311 131.68 410.311 132C410.311 132.307 410.285 132.573 410.231 132.8C410.285 133.013 410.311 133.28 410.311 133.6C410.311 133.907 410.285 134.173 410.231 134.4C410.285 134.613 410.311 134.88 410.311 135.2C410.311 135.507 410.285 135.773 410.231 136H408.631C408.578 135.773 408.551 135.507 408.551 135.2C408.551 134.88 408.578 134.613 408.631 134.4C408.578 134.173 408.551 133.907 408.551 133.6C408.551 133.28 408.578 133.013 408.631 132.8C408.578 132.573 408.551 132.307 408.551 132C408.551 131.68 408.578 131.413 408.631 131.2C408.578 130.973 408.551 130.707 408.551 130.4C408.551 130.08 408.578 129.813 408.631 129.6H406.031C405.978 129.373 405.951 129.107 405.951 128.8C405.951 128.48 405.978 128.213 406.031 128H409.231C409.285 128.213 409.311 128.48 409.311 128.8C409.311 129.107 409.285 129.373 409.231 129.6H410.231C410.285 129.813 410.311 130.08 410.311 130.4C410.311 130.707 410.285 130.973 410.231 131.2ZM417.439 134.4C417.492 134.613 417.519 134.88 417.519 135.2C417.519 135.507 417.492 135.773 417.439 136H414.239C414.186 135.773 414.159 135.507 414.159 135.2C414.159 134.88 414.186 134.613 414.239 134.4H413.439C413.386 134.173 413.359 133.907 413.359 133.6C413.359 133.28 413.386 133.013 413.439 132.8C413.386 132.573 413.359 132.307 413.359 132C413.359 131.68 413.386 131.413 413.439 131.2C413.386 130.973 413.359 130.707 413.359 130.4C413.359 130.08 413.386 129.813 413.439 129.6H411.839C411.786 129.373 411.759 129.107 411.759 128.8C411.759 128.48 411.786 128.213 411.839 128H413.439C413.386 127.773 413.359 127.507 413.359 127.2C413.359 126.88 413.386 126.613 413.439 126.4C413.386 126.173 413.359 125.907 413.359 125.6C413.359 125.28 413.386 125.013 413.439 124.8H415.039C415.092 125.013 415.119 125.28 415.119 125.6C415.119 125.907 415.092 126.173 415.039 126.4C415.092 126.613 415.119 126.88 415.119 127.2C415.119 127.507 415.092 127.773 415.039 128H417.439C417.492 128.213 417.519 128.48 417.519 128.8C417.519 129.107 417.492 129.373 417.439 129.6H415.039C415.092 129.813 415.119 130.08 415.119 130.4C415.119 130.707 415.092 130.973 415.039 131.2C415.092 131.413 415.119 131.68 415.119 132C415.119 132.307 415.092 132.573 415.039 132.8C415.092 133.013 415.119 133.28 415.119 133.6C415.119 133.907 415.092 134.173 415.039 134.4H417.439ZM425.447 128C425.5 128.213 425.527 128.48 425.527 128.8C425.527 129.107 425.5 129.373 425.447 129.6H423.047C423.1 129.813 423.127 130.08 423.127 130.4C423.127 130.707 423.1 130.973 423.047 131.2C423.1 131.413 423.127 131.68 423.127 132C423.127 132.307 423.1 132.573 423.047 132.8C423.1 133.013 423.127 133.28 423.127 133.6C423.127 133.907 423.1 134.173 423.047 134.4H424.647C424.7 134.613 424.727 134.88 424.727 135.2C424.727 135.507 424.7 135.773 424.647 136H420.647C420.594 135.773 420.567 135.507 420.567 135.2C420.567 134.88 420.594 134.613 420.647 134.4H421.447C421.394 134.173 421.367 133.907 421.367 133.6C421.367 133.28 421.394 133.013 421.447 132.8C421.394 132.573 421.367 132.307 421.367 132C421.367 131.68 421.394 131.413 421.447 131.2C421.394 130.973 421.367 130.707 421.367 130.4C421.367 130.08 421.394 129.813 421.447 129.6H420.647C420.594 129.373 420.567 129.107 420.567 128.8C420.567 128.48 420.594 128.213 420.647 128H421.447C421.394 127.773 421.367 127.507 421.367 127.2C421.367 126.88 421.394 126.613 421.447 126.4H422.247C422.194 126.173 422.167 125.907 422.167 125.6C422.167 125.28 422.194 125.013 422.247 124.8H425.447C425.5 125.013 425.527 125.28 425.527 125.6C425.527 125.907 425.5 126.173 425.447 126.4H423.047C423.1 126.613 423.127 126.88 423.127 127.2C423.127 127.507 423.1 127.773 423.047 128H425.447ZM432.835 124C432.835 124.307 432.808 124.573 432.755 124.8H431.755C431.701 124.573 431.675 124.307 431.675 124C431.675 123.68 431.701 123.413 431.755 123.2H432.755C432.808 123.413 432.835 123.68 432.835 124ZM431.755 134.4C431.808 134.613 431.835 134.88 431.835 135.2C431.835 135.507 431.808 135.773 431.755 136H430.755C430.701 135.773 430.675 135.507 430.675 135.2C430.675 134.88 430.701 134.613 430.755 134.4H430.255C430.201 134.173 430.175 133.907 430.175 133.6C430.175 133.28 430.201 133.013 430.255 132.8H429.655C429.601 132.573 429.575 132.307 429.575 132C429.575 131.68 429.601 131.413 429.655 131.2C429.601 130.973 429.575 130.707 429.575 130.4C429.575 130.08 429.601 129.813 429.655 129.6C429.601 129.373 429.575 129.107 429.575 128.8C429.575 128.48 429.601 128.213 429.655 128H430.255C430.201 127.773 430.175 127.507 430.175 127.2C430.175 126.88 430.201 126.613 430.255 126.4H430.755C430.701 126.173 430.675 125.907 430.675 125.6C430.675 125.28 430.701 125.013 430.755 124.8H431.755C431.808 125.013 431.835 125.28 431.835 125.6C431.835 125.907 431.808 126.173 431.755 126.4H431.255C431.308 126.613 431.335 126.88 431.335 127.2C431.335 127.507 431.308 127.773 431.255 128C431.308 128.213 431.335 128.48 431.335 128.8C431.335 129.107 431.308 129.373 431.255 129.6C431.308 129.813 431.335 130.08 431.335 130.4C431.335 130.707 431.308 130.973 431.255 131.2C431.308 131.413 431.335 131.68 431.335 132C431.335 132.307 431.308 132.573 431.255 132.8C431.308 133.013 431.335 133.28 431.335 133.6C431.335 133.907 431.308 134.173 431.255 134.4H431.755ZM432.755 136C432.808 136.213 432.835 136.48 432.835 136.8C432.835 137.107 432.808 137.373 432.755 137.6H431.755C431.701 137.373 431.675 137.107 431.675 136.8C431.675 136.48 431.701 136.213 431.755 136H432.755ZM438.543 122.4C438.543 122.707 438.516 122.973 438.463 123.2H437.663C437.716 123.413 437.743 123.68 437.743 124C437.743 124.307 437.716 124.573 437.663 124.8H438.463C438.516 125.013 438.543 125.28 438.543 125.6C438.543 125.907 438.516 126.173 438.463 126.4C438.516 126.613 438.543 126.88 438.543 127.2C438.543 127.507 438.516 127.773 438.463 128H436.463C436.409 127.773 436.382 127.507 436.382 127.2C436.382 126.88 436.409 126.613 436.463 126.4C436.409 126.173 436.382 125.907 436.382 125.6C436.382 125.28 436.409 125.013 436.463 124.8C436.409 124.573 436.382 124.307 436.382 124C436.382 123.68 436.409 123.413 436.463 123.2H437.263C437.209 122.973 437.183 122.707 437.183 122.4C437.183 122.08 437.209 121.813 437.263 121.6H438.463C438.516 121.813 438.543 122.08 438.543 122.4ZM441.663 124.8C441.716 125.013 441.743 125.28 441.743 125.6C441.743 125.907 441.716 126.173 441.663 126.4C441.716 126.613 441.743 126.88 441.743 127.2C441.743 127.507 441.716 127.773 441.663 128H439.663C439.609 127.773 439.583 127.507 439.583 127.2C439.583 126.88 439.609 126.613 439.663 126.4C439.609 126.173 439.583 125.907 439.583 125.6C439.583 125.28 439.609 125.013 439.663 124.8C439.609 124.573 439.583 124.307 439.583 124C439.583 123.68 439.609 123.413 439.663 123.2H440.463C440.409 122.973 440.383 122.707 440.383 122.4C440.383 122.08 440.409 121.813 440.463 121.6H441.663C441.716 121.813 441.743 122.08 441.743 122.4C441.743 122.707 441.716 122.973 441.663 123.2H440.863C440.916 123.413 440.942 123.68 440.942 124C440.942 124.307 440.916 124.573 440.863 124.8H441.663ZM445.55 128.8C445.55 129.107 445.524 129.373 445.47 129.6H446.07C446.124 129.813 446.15 130.08 446.15 130.4C446.15 130.707 446.124 130.973 446.07 131.2H445.47C445.524 131.413 445.55 131.68 445.55 132C445.55 132.307 445.524 132.573 445.47 132.8C445.524 133.013 445.55 133.28 445.55 133.6C445.55 133.907 445.524 134.173 445.47 134.4C445.524 134.613 445.55 134.88 445.55 135.2C445.55 135.507 445.524 135.773 445.47 136H443.87C443.817 135.773 443.79 135.507 443.79 135.2C443.79 134.88 443.817 134.613 443.87 134.4C443.817 134.173 443.79 133.907 443.79 133.6C443.79 133.28 443.817 133.013 443.87 132.8C443.817 132.573 443.79 132.307 443.79 132C443.79 131.68 443.817 131.413 443.87 131.2C443.817 130.973 443.79 130.707 443.79 130.4C443.79 130.08 443.817 129.813 443.87 129.6C443.817 129.373 443.79 129.107 443.79 128.8C443.79 128.48 443.817 128.213 443.87 128C443.817 127.773 443.79 127.507 443.79 127.2C443.79 126.88 443.817 126.613 443.87 126.4C443.817 126.173 443.79 125.907 443.79 125.6C443.79 125.28 443.817 125.013 443.87 124.8H445.47C445.524 125.013 445.55 125.28 445.55 125.6C445.55 125.907 445.524 126.173 445.47 126.4C445.524 126.613 445.55 126.88 445.55 127.2C445.55 127.507 445.524 127.773 445.47 128C445.524 128.213 445.55 128.48 445.55 128.8ZM450.27 131.2C450.324 131.413 450.35 131.68 450.35 132C450.35 132.307 450.324 132.573 450.27 132.8C450.324 133.013 450.35 133.28 450.35 133.6C450.35 133.907 450.324 134.173 450.27 134.4C450.324 134.613 450.35 134.88 450.35 135.2C450.35 135.507 450.324 135.773 450.27 136H448.67C448.617 135.773 448.59 135.507 448.59 135.2C448.59 134.88 448.617 134.613 448.67 134.4C448.617 134.173 448.59 133.907 448.59 133.6C448.59 133.28 448.617 133.013 448.67 132.8C448.617 132.573 448.59 132.307 448.59 132C448.59 131.68 448.617 131.413 448.67 131.2C448.617 130.973 448.59 130.707 448.59 130.4C448.59 130.08 448.617 129.813 448.67 129.6H446.07C446.017 129.373 445.99 129.107 445.99 128.8C445.99 128.48 446.017 128.213 446.07 128H449.27C449.324 128.213 449.35 128.48 449.35 128.8C449.35 129.107 449.324 129.373 449.27 129.6H450.27C450.324 129.813 450.35 130.08 450.35 130.4C450.35 130.707 450.324 130.973 450.27 131.2ZM458.358 130.4C458.358 130.707 458.331 130.973 458.278 131.2C458.331 131.413 458.358 131.68 458.358 132C458.358 132.307 458.331 132.573 458.278 132.8H454.078C454.131 133.013 454.158 133.28 454.158 133.6C454.158 133.907 454.131 134.173 454.078 134.4H457.478C457.531 134.613 457.558 134.88 457.558 135.2C457.558 135.507 457.531 135.773 457.478 136H453.478C453.425 135.773 453.398 135.507 453.398 135.2C453.398 134.88 453.425 134.613 453.478 134.4H452.478C452.425 134.173 452.398 133.907 452.398 133.6C452.398 133.28 452.425 133.013 452.478 132.8H451.878C451.825 132.573 451.798 132.307 451.798 132C451.798 131.68 451.825 131.413 451.878 131.2H452.478C452.425 130.973 452.398 130.707 452.398 130.4C452.398 130.08 452.425 129.813 452.478 129.6H453.478C453.425 129.373 453.398 129.107 453.398 128.8C453.398 128.48 453.425 128.213 453.478 128H457.478C457.531 128.213 457.558 128.48 457.558 128.8C457.558 129.107 457.531 129.373 457.478 129.6H458.278C458.331 129.813 458.358 130.08 458.358 130.4ZM456.678 131.2C456.625 130.973 456.598 130.707 456.598 130.4C456.598 130.08 456.625 129.813 456.678 129.6H454.078C454.131 129.813 454.158 130.08 454.158 130.4C454.158 130.707 454.131 130.973 454.078 131.2H456.678ZM465.486 134.4C465.539 134.613 465.566 134.88 465.566 135.2C465.566 135.507 465.539 135.773 465.486 136H460.686C460.633 135.773 460.606 135.507 460.606 135.2C460.606 134.88 460.633 134.613 460.686 134.4H462.286C462.233 134.173 462.206 133.907 462.206 133.6C462.206 133.28 462.233 133.013 462.286 132.8C462.233 132.573 462.206 132.307 462.206 132C462.206 131.68 462.233 131.413 462.286 131.2C462.233 130.973 462.206 130.707 462.206 130.4C462.206 130.08 462.233 129.813 462.286 129.6C462.233 129.373 462.206 129.107 462.206 128.8C462.206 128.48 462.233 128.213 462.286 128C462.233 127.773 462.206 127.507 462.206 127.2C462.206 126.88 462.233 126.613 462.286 126.4H461.086C461.033 126.173 461.006 125.907 461.006 125.6C461.006 125.28 461.033 125.013 461.086 124.8H463.886C463.939 125.013 463.966 125.28 463.966 125.6C463.966 125.907 463.939 126.173 463.886 126.4C463.939 126.613 463.966 126.88 463.966 127.2C463.966 127.507 463.939 127.773 463.886 128C463.939 128.213 463.966 128.48 463.966 128.8C463.966 129.107 463.939 129.373 463.886 129.6C463.939 129.813 463.966 130.08 463.966 130.4C463.966 130.707 463.939 130.973 463.886 131.2C463.939 131.413 463.966 131.68 463.966 132C463.966 132.307 463.939 132.573 463.886 132.8C463.939 133.013 463.966 133.28 463.966 133.6C463.966 133.907 463.939 134.173 463.886 134.4H465.486ZM473.494 134.4C473.547 134.613 473.574 134.88 473.574 135.2C473.574 135.507 473.547 135.773 473.494 136H468.694C468.64 135.773 468.614 135.507 468.614 135.2C468.614 134.88 468.64 134.613 468.694 134.4H470.294C470.24 134.173 470.214 133.907 470.214 133.6C470.214 133.28 470.24 133.013 470.294 132.8C470.24 132.573 470.214 132.307 470.214 132C470.214 131.68 470.24 131.413 470.294 131.2C470.24 130.973 470.214 130.707 470.214 130.4C470.214 130.08 470.24 129.813 470.294 129.6C470.24 129.373 470.214 129.107 470.214 128.8C470.214 128.48 470.24 128.213 470.294 128C470.24 127.773 470.214 127.507 470.214 127.2C470.214 126.88 470.24 126.613 470.294 126.4H469.094C469.04 126.173 469.014 125.907 469.014 125.6C469.014 125.28 469.04 125.013 469.094 124.8H471.894C471.947 125.013 471.974 125.28 471.974 125.6C471.974 125.907 471.947 126.173 471.894 126.4C471.947 126.613 471.974 126.88 471.974 127.2C471.974 127.507 471.947 127.773 471.894 128C471.947 128.213 471.974 128.48 471.974 128.8C471.974 129.107 471.947 129.373 471.894 129.6C471.947 129.813 471.974 130.08 471.974 130.4C471.974 130.707 471.947 130.973 471.894 131.2C471.947 131.413 471.974 131.68 471.974 132C471.974 132.307 471.947 132.573 471.894 132.8C471.947 133.013 471.974 133.28 471.974 133.6C471.974 133.907 471.947 134.173 471.894 134.4H473.494ZM482.382 132C482.382 132.307 482.355 132.573 482.302 132.8H481.702C481.755 133.013 481.782 133.28 481.782 133.6C481.782 133.907 481.755 134.173 481.702 134.4H480.702C480.755 134.613 480.782 134.88 480.782 135.2C480.782 135.507 480.755 135.773 480.702 136H477.502C477.448 135.773 477.422 135.507 477.422 135.2C477.422 134.88 477.448 134.613 477.502 134.4H476.502C476.448 134.173 476.422 133.907 476.422 133.6C476.422 133.28 476.448 133.013 476.502 132.8H475.902C475.848 132.573 475.822 132.307 475.822 132C475.822 131.68 475.848 131.413 475.902 131.2H476.502C476.448 130.973 476.422 130.707 476.422 130.4C476.422 130.08 476.448 129.813 476.502 129.6H477.502C477.448 129.373 477.422 129.107 477.422 128.8C477.422 128.48 477.448 128.213 477.502 128H480.702C480.755 128.213 480.782 128.48 480.782 128.8C480.782 129.107 480.755 129.373 480.702 129.6H481.702C481.755 129.813 481.782 130.08 481.782 130.4C481.782 130.707 481.755 130.973 481.702 131.2H482.302C482.355 131.413 482.382 131.68 482.382 132ZM480.702 132.8C480.648 132.573 480.622 132.307 480.622 132C480.622 131.68 480.648 131.413 480.702 131.2H480.102C480.048 130.973 480.022 130.707 480.022 130.4C480.022 130.08 480.048 129.813 480.102 129.6H478.102C478.155 129.813 478.182 130.08 478.182 130.4C478.182 130.707 478.155 130.973 478.102 131.2H477.502C477.555 131.413 477.582 131.68 477.582 132C477.582 132.307 477.555 132.573 477.502 132.8H478.102C478.155 133.013 478.182 133.28 478.182 133.6C478.182 133.907 478.155 134.173 478.102 134.4H480.102C480.048 134.173 480.022 133.907 480.022 133.6C480.022 133.28 480.048 133.013 480.102 132.8H480.702ZM498.397 128.8C498.397 129.107 498.371 129.373 498.317 129.6C498.371 129.813 498.397 130.08 498.397 130.4C498.397 130.707 498.371 130.973 498.317 131.2H497.717C497.771 131.413 497.797 131.68 497.797 132C497.797 132.307 497.771 132.573 497.717 132.8C497.771 133.013 497.797 133.28 497.797 133.6C497.797 133.907 497.771 134.173 497.717 134.4H497.317C497.371 134.613 497.397 134.88 497.397 135.2C497.397 135.507 497.371 135.773 497.317 136H496.117C496.064 135.773 496.037 135.507 496.037 135.2C496.037 134.88 496.064 134.613 496.117 134.4H495.717C495.664 134.173 495.637 133.907 495.637 133.6C495.637 133.28 495.664 133.013 495.717 132.8H494.517C494.571 133.013 494.597 133.28 494.597 133.6C494.597 133.907 494.571 134.173 494.517 134.4H494.117C494.171 134.613 494.197 134.88 494.197 135.2C494.197 135.507 494.171 135.773 494.117 136H492.917C492.864 135.773 492.837 135.507 492.837 135.2C492.837 134.88 492.864 134.613 492.917 134.4H492.517C492.464 134.173 492.437 133.907 492.437 133.6C492.437 133.28 492.464 133.013 492.517 132.8C492.464 132.573 492.437 132.307 492.437 132C492.437 131.68 492.464 131.413 492.517 131.2H491.917C491.864 130.973 491.837 130.707 491.837 130.4C491.837 130.08 491.864 129.813 491.917 129.6C491.864 129.373 491.837 129.107 491.837 128.8C491.837 128.48 491.864 128.213 491.917 128H493.517C493.571 128.213 493.597 128.48 493.597 128.8C493.597 129.107 493.571 129.373 493.517 129.6C493.571 129.813 493.597 130.08 493.597 130.4C493.597 130.707 493.571 130.973 493.517 131.2C493.571 131.413 493.597 131.68 493.597 132C493.597 132.307 493.571 132.573 493.517 132.8H494.117C494.064 132.573 494.037 132.307 494.037 132C494.037 131.68 494.064 131.413 494.117 131.2H494.517C494.464 130.973 494.437 130.707 494.437 130.4C494.437 130.08 494.464 129.813 494.517 129.6C494.464 129.373 494.437 129.107 494.437 128.8C494.437 128.48 494.464 128.213 494.517 128H495.717C495.771 128.213 495.797 128.48 495.797 128.8C495.797 129.107 495.771 129.373 495.717 129.6C495.771 129.813 495.797 130.08 495.797 130.4C495.797 130.707 495.771 130.973 495.717 131.2H496.117C496.171 131.413 496.197 131.68 496.197 132C496.197 132.307 496.171 132.573 496.117 132.8H496.717C496.664 132.573 496.637 132.307 496.637 132C496.637 131.68 496.664 131.413 496.717 131.2C496.664 130.973 496.637 130.707 496.637 130.4C496.637 130.08 496.664 129.813 496.717 129.6C496.664 129.373 496.637 129.107 496.637 128.8C496.637 128.48 496.664 128.213 496.717 128H498.317C498.371 128.213 498.397 128.48 498.397 128.8ZM506.405 132C506.405 132.307 506.378 132.573 506.325 132.8H505.725C505.778 133.013 505.805 133.28 505.805 133.6C505.805 133.907 505.778 134.173 505.725 134.4H504.725C504.778 134.613 504.805 134.88 504.805 135.2C504.805 135.507 504.778 135.773 504.725 136H501.525C501.472 135.773 501.445 135.507 501.445 135.2C501.445 134.88 501.472 134.613 501.525 134.4H500.525C500.472 134.173 500.445 133.907 500.445 133.6C500.445 133.28 500.472 133.013 500.525 132.8H499.925C499.872 132.573 499.845 132.307 499.845 132C499.845 131.68 499.872 131.413 499.925 131.2H500.525C500.472 130.973 500.445 130.707 500.445 130.4C500.445 130.08 500.472 129.813 500.525 129.6H501.525C501.472 129.373 501.445 129.107 501.445 128.8C501.445 128.48 501.472 128.213 501.525 128H504.725C504.778 128.213 504.805 128.48 504.805 128.8C504.805 129.107 504.778 129.373 504.725 129.6H505.725C505.778 129.813 505.805 130.08 505.805 130.4C505.805 130.707 505.778 130.973 505.725 131.2H506.325C506.378 131.413 506.405 131.68 506.405 132ZM504.725 132.8C504.672 132.573 504.645 132.307 504.645 132C504.645 131.68 504.672 131.413 504.725 131.2H504.125C504.072 130.973 504.045 130.707 504.045 130.4C504.045 130.08 504.072 129.813 504.125 129.6H502.125C502.178 129.813 502.205 130.08 502.205 130.4C502.205 130.707 502.178 130.973 502.125 131.2H501.525C501.578 131.413 501.605 131.68 501.605 132C501.605 132.307 501.578 132.573 501.525 132.8H502.125C502.178 133.013 502.205 133.28 502.205 133.6C502.205 133.907 502.178 134.173 502.125 134.4H504.125C504.072 134.173 504.045 133.907 504.045 133.6C504.045 133.28 504.072 133.013 504.125 132.8H504.725ZM514.333 129.6C514.386 129.813 514.413 130.08 514.413 130.4C514.413 130.707 514.386 130.973 514.333 131.2H512.733C512.679 130.973 512.653 130.707 512.653 130.4C512.653 130.08 512.679 129.813 512.733 129.6H511.333C511.386 129.813 511.413 130.08 511.413 130.4C511.413 130.707 511.386 130.973 511.333 131.2H510.733C510.786 131.413 510.813 131.68 510.813 132C510.813 132.307 510.786 132.573 510.733 132.8C510.786 133.013 510.813 133.28 510.813 133.6C510.813 133.907 510.786 134.173 510.733 134.4H511.933C511.986 134.613 512.013 134.88 512.013 135.2C512.013 135.507 511.986 135.773 511.933 136H507.933C507.879 135.773 507.853 135.507 507.853 135.2C507.853 134.88 507.879 134.613 507.933 134.4H509.133C509.079 134.173 509.053 133.907 509.053 133.6C509.053 133.28 509.079 133.013 509.133 132.8C509.079 132.573 509.053 132.307 509.053 132C509.053 131.68 509.079 131.413 509.133 131.2C509.079 130.973 509.053 130.707 509.053 130.4C509.053 130.08 509.079 129.813 509.133 129.6H507.933C507.879 129.373 507.853 129.107 507.853 128.8C507.853 128.48 507.879 128.213 507.933 128H509.933C509.986 128.213 510.013 128.48 510.013 128.8C510.013 129.107 509.986 129.373 509.933 129.6H510.733C510.679 129.373 510.653 129.107 510.653 128.8C510.653 128.48 510.679 128.213 510.733 128H513.733C513.786 128.213 513.813 128.48 513.813 128.8C513.813 129.107 513.786 129.373 513.733 129.6H514.333ZM521.541 134.4C521.594 134.613 521.621 134.88 521.621 135.2C521.621 135.507 521.594 135.773 521.541 136H516.741C516.687 135.773 516.661 135.507 516.661 135.2C516.661 134.88 516.687 134.613 516.741 134.4H518.341C518.287 134.173 518.261 133.907 518.261 133.6C518.261 133.28 518.287 133.013 518.341 132.8C518.287 132.573 518.261 132.307 518.261 132C518.261 131.68 518.287 131.413 518.341 131.2C518.287 130.973 518.261 130.707 518.261 130.4C518.261 130.08 518.287 129.813 518.341 129.6C518.287 129.373 518.261 129.107 518.261 128.8C518.261 128.48 518.287 128.213 518.341 128C518.287 127.773 518.261 127.507 518.261 127.2C518.261 126.88 518.287 126.613 518.341 126.4H517.141C517.087 126.173 517.061 125.907 517.061 125.6C517.061 125.28 517.087 125.013 517.141 124.8H519.941C519.994 125.013 520.021 125.28 520.021 125.6C520.021 125.907 519.994 126.173 519.941 126.4C519.994 126.613 520.021 126.88 520.021 127.2C520.021 127.507 519.994 127.773 519.941 128C519.994 128.213 520.021 128.48 520.021 128.8C520.021 129.107 519.994 129.373 519.941 129.6C519.994 129.813 520.021 130.08 520.021 130.4C520.021 130.707 519.994 130.973 519.941 131.2C519.994 131.413 520.021 131.68 520.021 132C520.021 132.307 519.994 132.573 519.941 132.8C519.994 133.013 520.021 133.28 520.021 133.6C520.021 133.907 519.994 134.173 519.941 134.4H521.541ZM530.348 126.4C530.402 126.613 530.428 126.88 530.428 127.2C530.428 127.507 530.402 127.773 530.348 128C530.402 128.213 530.428 128.48 530.428 128.8C530.428 129.107 530.402 129.373 530.348 129.6C530.402 129.813 530.428 130.08 530.428 130.4C530.428 130.707 530.402 130.973 530.348 131.2C530.402 131.413 530.428 131.68 530.428 132C530.428 132.307 530.402 132.573 530.348 132.8C530.402 133.013 530.428 133.28 530.428 133.6C530.428 133.907 530.402 134.173 530.348 134.4C530.402 134.613 530.428 134.88 530.428 135.2C530.428 135.507 530.402 135.773 530.348 136H528.748C528.695 135.773 528.668 135.507 528.668 135.2C528.668 134.88 528.695 134.613 528.748 134.4H528.148C528.095 134.173 528.068 133.907 528.068 133.6C528.068 133.28 528.095 133.013 528.148 132.8H528.748C528.695 132.573 528.668 132.307 528.668 132C528.668 131.68 528.695 131.413 528.748 131.2H528.148C528.095 130.973 528.068 130.707 528.068 130.4C528.068 130.08 528.095 129.813 528.148 129.6H528.748C528.695 129.373 528.668 129.107 528.668 128.8C528.668 128.48 528.695 128.213 528.748 128C528.695 127.773 528.668 127.507 528.668 127.2C528.668 126.88 528.695 126.613 528.748 126.4C528.695 126.173 528.668 125.907 528.668 125.6C528.668 125.28 528.695 125.013 528.748 124.8H530.348C530.402 125.013 530.428 125.28 530.428 125.6C530.428 125.907 530.402 126.173 530.348 126.4ZM527.828 128.8C527.828 129.107 527.802 129.373 527.748 129.6H525.748C525.802 129.813 525.828 130.08 525.828 130.4C525.828 130.707 525.802 130.973 525.748 131.2H525.148C525.202 131.413 525.228 131.68 525.228 132C525.228 132.307 525.202 132.573 525.148 132.8H525.748C525.802 133.013 525.828 133.28 525.828 133.6C525.828 133.907 525.802 134.173 525.748 134.4H527.748C527.802 134.613 527.828 134.88 527.828 135.2C527.828 135.507 527.802 135.773 527.748 136H525.548C525.495 135.773 525.468 135.507 525.468 135.2C525.468 134.88 525.495 134.613 525.548 134.4H524.548C524.495 134.173 524.468 133.907 524.468 133.6C524.468 133.28 524.495 133.013 524.548 132.8H523.948C523.895 132.573 523.868 132.307 523.868 132C523.868 131.68 523.895 131.413 523.948 131.2H524.548C524.495 130.973 524.468 130.707 524.468 130.4C524.468 130.08 524.495 129.813 524.548 129.6H525.548C525.495 129.373 525.468 129.107 525.468 128.8C525.468 128.48 525.495 128.213 525.548 128H527.748C527.802 128.213 527.828 128.48 527.828 128.8ZM534.556 121.6C534.61 121.813 534.636 122.08 534.636 122.4C534.636 122.707 534.61 122.973 534.556 123.2C534.61 123.413 534.636 123.68 534.636 124C534.636 124.307 534.61 124.573 534.556 124.8C534.61 125.013 534.636 125.28 534.636 125.6C534.636 125.907 534.61 126.173 534.556 126.4H533.756C533.81 126.613 533.836 126.88 533.836 127.2C533.836 127.507 533.81 127.773 533.756 128H532.556C532.503 127.773 532.476 127.507 532.476 127.2C532.476 126.88 532.503 126.613 532.556 126.4H533.356C533.303 126.173 533.276 125.907 533.276 125.6C533.276 125.28 533.303 125.013 533.356 124.8H532.556C532.503 124.573 532.476 124.307 532.476 124C532.476 123.68 532.503 123.413 532.556 123.2C532.503 122.973 532.476 122.707 532.476 122.4C532.476 122.08 532.503 121.813 532.556 121.6H534.556ZM537.756 123.2C537.81 123.413 537.836 123.68 537.836 124C537.836 124.307 537.81 124.573 537.756 124.8C537.81 125.013 537.836 125.28 537.836 125.6C537.836 125.907 537.81 126.173 537.756 126.4H536.956C537.01 126.613 537.036 126.88 537.036 127.2C537.036 127.507 537.01 127.773 536.956 128H535.756C535.703 127.773 535.676 127.507 535.676 127.2C535.676 126.88 535.703 126.613 535.756 126.4H536.556C536.503 126.173 536.476 125.907 536.476 125.6C536.476 125.28 536.503 125.013 536.556 124.8H535.756C535.703 124.573 535.676 124.307 535.676 124C535.676 123.68 535.703 123.413 535.756 123.2C535.703 122.973 535.676 122.707 535.676 122.4C535.676 122.08 535.703 121.813 535.756 121.6H537.756C537.81 121.813 537.836 122.08 537.836 122.4C537.836 122.707 537.81 122.973 537.756 123.2ZM542.464 123.2C542.517 123.413 542.544 123.68 542.544 124C542.544 124.307 542.517 124.573 542.464 124.8H541.464C541.411 124.573 541.384 124.307 541.384 124C541.384 123.68 541.411 123.413 541.464 123.2H542.464ZM544.564 129.6C544.617 129.813 544.644 130.08 544.644 130.4C544.644 130.707 544.617 130.973 544.564 131.2C544.617 131.413 544.644 131.68 544.644 132C544.644 132.307 544.617 132.573 544.564 132.8H543.964C544.017 133.013 544.044 133.28 544.044 133.6C544.044 133.907 544.017 134.173 543.964 134.4H543.464C543.517 134.613 543.544 134.88 543.544 135.2C543.544 135.507 543.517 135.773 543.464 136H542.464C542.411 135.773 542.384 135.507 542.384 135.2C542.384 134.88 542.411 134.613 542.464 134.4H542.964C542.911 134.173 542.884 133.907 542.884 133.6C542.884 133.28 542.911 133.013 542.964 132.8C542.911 132.573 542.884 132.307 542.884 132C542.884 131.68 542.911 131.413 542.964 131.2C542.911 130.973 542.884 130.707 542.884 130.4C542.884 130.08 542.911 129.813 542.964 129.6C542.911 129.373 542.884 129.107 542.884 128.8C542.884 128.48 542.911 128.213 542.964 128C542.911 127.773 542.884 127.507 542.884 127.2C542.884 126.88 542.911 126.613 542.964 126.4H542.464C542.411 126.173 542.384 125.907 542.384 125.6C542.384 125.28 542.411 125.013 542.464 124.8H543.464C543.517 125.013 543.544 125.28 543.544 125.6C543.544 125.907 543.517 126.173 543.464 126.4H543.964C544.017 126.613 544.044 126.88 544.044 127.2C544.044 127.507 544.017 127.773 543.964 128H544.564C544.617 128.213 544.644 128.48 544.644 128.8C544.644 129.107 544.617 129.373 544.564 129.6ZM541.384 136.8C541.384 136.48 541.411 136.213 541.464 136H542.464C542.517 136.213 542.544 136.48 542.544 136.8C542.544 137.107 542.517 137.373 542.464 137.6H541.464C541.411 137.373 541.384 137.107 541.384 136.8ZM552.252 127.2C552.252 127.507 552.225 127.773 552.172 128C552.225 128.213 552.252 128.48 552.252 128.8C552.252 129.107 552.225 129.373 552.172 129.6H550.172C550.119 129.373 550.092 129.107 550.092 128.8C550.092 128.48 550.119 128.213 550.172 128C550.119 127.773 550.092 127.507 550.092 127.2C550.092 126.88 550.119 126.613 550.172 126.4H552.172C552.225 126.613 552.252 126.88 552.252 127.2ZM552.172 132.8C552.225 133.013 552.252 133.28 552.252 133.6C552.252 133.907 552.225 134.173 552.172 134.4C552.225 134.613 552.252 134.88 552.252 135.2C552.252 135.507 552.225 135.773 552.172 136C552.225 136.213 552.252 136.48 552.252 136.8C552.252 137.107 552.225 137.373 552.172 137.6H551.372C551.425 137.813 551.452 138.08 551.452 138.4C551.452 138.707 551.425 138.973 551.372 139.2H550.172C550.119 138.973 550.092 138.707 550.092 138.4C550.092 138.08 550.119 137.813 550.172 137.6H550.972C550.919 137.373 550.892 137.107 550.892 136.8C550.892 136.48 550.919 136.213 550.972 136H550.172C550.119 135.773 550.092 135.507 550.092 135.2C550.092 134.88 550.119 134.613 550.172 134.4C550.119 134.173 550.092 133.907 550.092 133.6C550.092 133.28 550.119 133.013 550.172 132.8H552.172ZM386.208 154.6C386.261 154.813 386.288 155.08 386.288 155.4C386.288 155.707 386.261 155.973 386.208 156.2H384.608C384.554 155.973 384.528 155.707 384.528 155.4C384.528 155.08 384.554 154.813 384.608 154.6H383.208C383.261 154.813 383.288 155.08 383.288 155.4C383.288 155.707 383.261 155.973 383.208 156.2H382.608C382.661 156.413 382.688 156.68 382.688 157C382.688 157.307 382.661 157.573 382.608 157.8C382.661 158.013 382.688 158.28 382.688 158.6C382.688 158.907 382.661 159.173 382.608 159.4H383.808C383.861 159.613 383.888 159.88 383.888 160.2C383.888 160.507 383.861 160.773 383.808 161H379.808C379.754 160.773 379.728 160.507 379.728 160.2C379.728 159.88 379.754 159.613 379.808 159.4H381.008C380.954 159.173 380.928 158.907 380.928 158.6C380.928 158.28 380.954 158.013 381.008 157.8C380.954 157.573 380.928 157.307 380.928 157C380.928 156.68 380.954 156.413 381.008 156.2C380.954 155.973 380.928 155.707 380.928 155.4C380.928 155.08 380.954 154.813 381.008 154.6H379.808C379.754 154.373 379.728 154.107 379.728 153.8C379.728 153.48 379.754 153.213 379.808 153H381.808C381.861 153.213 381.888 153.48 381.888 153.8C381.888 154.107 381.861 154.373 381.808 154.6H382.608C382.554 154.373 382.528 154.107 382.528 153.8C382.528 153.48 382.554 153.213 382.608 153H385.608C385.661 153.213 385.688 153.48 385.688 153.8C385.688 154.107 385.661 154.373 385.608 154.6H386.208ZM394.296 155.4C394.296 155.707 394.269 155.973 394.216 156.2C394.269 156.413 394.296 156.68 394.296 157C394.296 157.307 394.269 157.573 394.216 157.8H390.016C390.069 158.013 390.096 158.28 390.096 158.6C390.096 158.907 390.069 159.173 390.016 159.4H393.416C393.469 159.613 393.496 159.88 393.496 160.2C393.496 160.507 393.469 160.773 393.416 161H389.416C389.362 160.773 389.336 160.507 389.336 160.2C389.336 159.88 389.362 159.613 389.416 159.4H388.416C388.362 159.173 388.336 158.907 388.336 158.6C388.336 158.28 388.362 158.013 388.416 157.8H387.816C387.762 157.573 387.736 157.307 387.736 157C387.736 156.68 387.762 156.413 387.816 156.2H388.416C388.362 155.973 388.336 155.707 388.336 155.4C388.336 155.08 388.362 154.813 388.416 154.6H389.416C389.362 154.373 389.336 154.107 389.336 153.8C389.336 153.48 389.362 153.213 389.416 153H393.416C393.469 153.213 393.496 153.48 393.496 153.8C393.496 154.107 393.469 154.373 393.416 154.6H394.216C394.269 154.813 394.296 155.08 394.296 155.4ZM392.616 156.2C392.562 155.973 392.536 155.707 392.536 155.4C392.536 155.08 392.562 154.813 392.616 154.6H390.016C390.069 154.813 390.096 155.08 390.096 155.4C390.096 155.707 390.069 155.973 390.016 156.2H392.616ZM401.423 159.4C401.477 159.613 401.503 159.88 401.503 160.2C401.503 160.507 401.477 160.773 401.423 161H398.223C398.17 160.773 398.143 160.507 398.143 160.2C398.143 159.88 398.17 159.613 398.223 159.4H397.423C397.37 159.173 397.343 158.907 397.343 158.6C397.343 158.28 397.37 158.013 397.423 157.8C397.37 157.573 397.343 157.307 397.343 157C397.343 156.68 397.37 156.413 397.423 156.2C397.37 155.973 397.343 155.707 397.343 155.4C397.343 155.08 397.37 154.813 397.423 154.6H395.823C395.77 154.373 395.743 154.107 395.743 153.8C395.743 153.48 395.77 153.213 395.823 153H397.423C397.37 152.773 397.343 152.507 397.343 152.2C397.343 151.88 397.37 151.613 397.423 151.4C397.37 151.173 397.343 150.907 397.343 150.6C397.343 150.28 397.37 150.013 397.423 149.8H399.023C399.077 150.013 399.103 150.28 399.103 150.6C399.103 150.907 399.077 151.173 399.023 151.4C399.077 151.613 399.103 151.88 399.103 152.2C399.103 152.507 399.077 152.773 399.023 153H401.423C401.477 153.213 401.503 153.48 401.503 153.8C401.503 154.107 401.477 154.373 401.423 154.6H399.023C399.077 154.813 399.103 155.08 399.103 155.4C399.103 155.707 399.077 155.973 399.023 156.2C399.077 156.413 399.103 156.68 399.103 157C399.103 157.307 399.077 157.573 399.023 157.8C399.077 158.013 399.103 158.28 399.103 158.6C399.103 158.907 399.077 159.173 399.023 159.4H401.423ZM406.111 158.6C406.111 158.907 406.085 159.173 406.031 159.4H408.031C408.085 159.613 408.111 159.88 408.111 160.2C408.111 160.507 408.085 160.773 408.031 161H404.831C404.778 160.773 404.751 160.507 404.751 160.2C404.751 159.88 404.778 159.613 404.831 159.4H403.831C403.778 159.173 403.751 158.907 403.751 158.6C403.751 158.28 403.778 158.013 403.831 157.8C403.778 157.573 403.751 157.307 403.751 157C403.751 156.68 403.778 156.413 403.831 156.2C403.778 155.973 403.751 155.707 403.751 155.4C403.751 155.08 403.778 154.813 403.831 154.6C403.778 154.373 403.751 154.107 403.751 153.8C403.751 153.48 403.778 153.213 403.831 153H405.431C405.485 153.213 405.511 153.48 405.511 153.8C405.511 154.107 405.485 154.373 405.431 154.6C405.485 154.813 405.511 155.08 405.511 155.4C405.511 155.707 405.485 155.973 405.431 156.2C405.485 156.413 405.511 156.68 405.511 157C405.511 157.307 405.485 157.573 405.431 157.8H406.031C406.085 158.013 406.111 158.28 406.111 158.6ZM410.231 154.6C410.285 154.813 410.311 155.08 410.311 155.4C410.311 155.707 410.285 155.973 410.231 156.2C410.285 156.413 410.311 156.68 410.311 157C410.311 157.307 410.285 157.573 410.231 157.8C410.285 158.013 410.311 158.28 410.311 158.6C410.311 158.907 410.285 159.173 410.231 159.4C410.285 159.613 410.311 159.88 410.311 160.2C410.311 160.507 410.285 160.773 410.231 161H408.631C408.578 160.773 408.551 160.507 408.551 160.2C408.551 159.88 408.578 159.613 408.631 159.4H408.031C407.978 159.173 407.951 158.907 407.951 158.6C407.951 158.28 407.978 158.013 408.031 157.8H408.631C408.578 157.573 408.551 157.307 408.551 157C408.551 156.68 408.578 156.413 408.631 156.2C408.578 155.973 408.551 155.707 408.551 155.4C408.551 155.08 408.578 154.813 408.631 154.6C408.578 154.373 408.551 154.107 408.551 153.8C408.551 153.48 408.578 153.213 408.631 153H410.231C410.285 153.213 410.311 153.48 410.311 153.8C410.311 154.107 410.285 154.373 410.231 154.6ZM418.239 154.6C418.292 154.813 418.319 155.08 418.319 155.4C418.319 155.707 418.292 155.973 418.239 156.2H416.639C416.586 155.973 416.559 155.707 416.559 155.4C416.559 155.08 416.586 154.813 416.639 154.6H415.239C415.292 154.813 415.319 155.08 415.319 155.4C415.319 155.707 415.292 155.973 415.239 156.2H414.639C414.692 156.413 414.719 156.68 414.719 157C414.719 157.307 414.692 157.573 414.639 157.8C414.692 158.013 414.719 158.28 414.719 158.6C414.719 158.907 414.692 159.173 414.639 159.4H415.839C415.892 159.613 415.919 159.88 415.919 160.2C415.919 160.507 415.892 160.773 415.839 161H411.839C411.786 160.773 411.759 160.507 411.759 160.2C411.759 159.88 411.786 159.613 411.839 159.4H413.039C412.986 159.173 412.959 158.907 412.959 158.6C412.959 158.28 412.986 158.013 413.039 157.8C412.986 157.573 412.959 157.307 412.959 157C412.959 156.68 412.986 156.413 413.039 156.2C412.986 155.973 412.959 155.707 412.959 155.4C412.959 155.08 412.986 154.813 413.039 154.6H411.839C411.786 154.373 411.759 154.107 411.759 153.8C411.759 153.48 411.786 153.213 411.839 153H413.839C413.892 153.213 413.919 153.48 413.919 153.8C413.919 154.107 413.892 154.373 413.839 154.6H414.639C414.586 154.373 414.559 154.107 414.559 153.8C414.559 153.48 414.586 153.213 414.639 153H417.639C417.692 153.213 417.719 153.48 417.719 153.8C417.719 154.107 417.692 154.373 417.639 154.6H418.239ZM421.327 153.8C421.327 154.107 421.3 154.373 421.247 154.6H422.047C422.1 154.813 422.127 155.08 422.127 155.4C422.127 155.707 422.1 155.973 422.047 156.2H421.447C421.5 156.413 421.527 156.68 421.527 157C421.527 157.307 421.5 157.573 421.447 157.8C421.5 158.013 421.527 158.28 421.527 158.6C421.527 158.907 421.5 159.173 421.447 159.4C421.5 159.613 421.527 159.88 421.527 160.2C421.527 160.507 421.5 160.773 421.447 161H419.847C419.794 160.773 419.767 160.507 419.767 160.2C419.767 159.88 419.794 159.613 419.847 159.4C419.794 159.173 419.767 158.907 419.767 158.6C419.767 158.28 419.794 158.013 419.847 157.8C419.794 157.573 419.767 157.307 419.767 157C419.767 156.68 419.794 156.413 419.847 156.2C419.794 155.973 419.767 155.707 419.767 155.4C419.767 155.08 419.794 154.813 419.847 154.6C419.794 154.373 419.767 154.107 419.767 153.8C419.767 153.48 419.794 153.213 419.847 153H421.247C421.3 153.213 421.327 153.48 421.327 153.8ZM426.247 156.2C426.3 156.413 426.327 156.68 426.327 157C426.327 157.307 426.3 157.573 426.247 157.8C426.3 158.013 426.327 158.28 426.327 158.6C426.327 158.907 426.3 159.173 426.247 159.4C426.3 159.613 426.327 159.88 426.327 160.2C426.327 160.507 426.3 160.773 426.247 161H424.647C424.594 160.773 424.567 160.507 424.567 160.2C424.567 159.88 424.594 159.613 424.647 159.4C424.594 159.173 424.567 158.907 424.567 158.6C424.567 158.28 424.594 158.013 424.647 157.8C424.594 157.573 424.567 157.307 424.567 157C424.567 156.68 424.594 156.413 424.647 156.2C424.594 155.973 424.567 155.707 424.567 155.4C424.567 155.08 424.594 154.813 424.647 154.6H422.047C421.994 154.373 421.967 154.107 421.967 153.8C421.967 153.48 421.994 153.213 422.047 153H425.247C425.3 153.213 425.327 153.48 425.327 153.8C425.327 154.107 425.3 154.373 425.247 154.6H426.247C426.3 154.813 426.327 155.08 426.327 155.4C426.327 155.707 426.3 155.973 426.247 156.2ZM440.143 150.6C440.143 150.907 440.116 151.173 440.062 151.4H438.063C438.009 151.173 437.983 150.907 437.983 150.6C437.983 150.28 438.009 150.013 438.063 149.8H440.062C440.116 150.013 440.143 150.28 440.143 150.6ZM438.063 157.8C438.116 158.013 438.143 158.28 438.143 158.6C438.143 158.907 438.116 159.173 438.063 159.4H437.063C437.009 159.173 436.983 158.907 436.983 158.6C436.983 158.28 437.009 158.013 437.063 157.8H436.463C436.409 157.573 436.382 157.307 436.382 157C436.382 156.68 436.409 156.413 436.463 156.2C436.409 155.973 436.382 155.707 436.382 155.4C436.382 155.08 436.409 154.813 436.463 154.6C436.409 154.373 436.382 154.107 436.382 153.8C436.382 153.48 436.409 153.213 436.463 153H437.063C437.009 152.773 436.983 152.507 436.983 152.2C436.983 151.88 437.009 151.613 437.063 151.4H438.063C438.116 151.613 438.143 151.88 438.143 152.2C438.143 152.507 438.116 152.773 438.063 153C438.116 153.213 438.143 153.48 438.143 153.8C438.143 154.107 438.116 154.373 438.063 154.6C438.116 154.813 438.143 155.08 438.143 155.4C438.143 155.707 438.116 155.973 438.063 156.2C438.116 156.413 438.143 156.68 438.143 157C438.143 157.307 438.116 157.573 438.063 157.8ZM441.663 154.6C441.716 154.813 441.743 155.08 441.743 155.4C441.743 155.707 441.716 155.973 441.663 156.2C441.716 156.413 441.743 156.68 441.743 157C441.743 157.307 441.716 157.573 441.663 157.8H441.063C441.116 158.013 441.143 158.28 441.143 158.6C441.143 158.907 441.116 159.173 441.063 159.4H440.062C440.009 159.173 439.983 158.907 439.983 158.6C439.983 158.28 440.009 158.013 440.062 157.8C440.009 157.573 439.983 157.307 439.983 157C439.983 156.68 440.009 156.413 440.062 156.2C440.009 155.973 439.983 155.707 439.983 155.4C439.983 155.08 440.009 154.813 440.062 154.6C440.009 154.373 439.983 154.107 439.983 153.8C439.983 153.48 440.009 153.213 440.062 153C440.009 152.773 439.983 152.507 439.983 152.2C439.983 151.88 440.009 151.613 440.062 151.4H441.063C441.116 151.613 441.143 151.88 441.143 152.2C441.143 152.507 441.116 152.773 441.063 153H441.663C441.716 153.213 441.743 153.48 441.743 153.8C441.743 154.107 441.716 154.373 441.663 154.6ZM437.983 160.2C437.983 159.88 438.009 159.613 438.063 159.4H440.062C440.116 159.613 440.143 159.88 440.143 160.2C440.143 160.507 440.116 160.773 440.062 161H438.063C438.009 160.773 437.983 160.507 437.983 160.2ZM448.15 152.2C448.15 152.507 448.124 152.773 448.07 153C448.124 153.213 448.15 153.48 448.15 153.8C448.15 154.107 448.124 154.373 448.07 154.6H446.07C446.017 154.373 445.99 154.107 445.99 153.8C445.99 153.48 446.017 153.213 446.07 153C446.017 152.773 445.99 152.507 445.99 152.2C445.99 151.88 446.017 151.613 446.07 151.4H448.07C448.124 151.613 448.15 151.88 448.15 152.2ZM448.07 157.8C448.124 158.013 448.15 158.28 448.15 158.6C448.15 158.907 448.124 159.173 448.07 159.4C448.124 159.613 448.15 159.88 448.15 160.2C448.15 160.507 448.124 160.773 448.07 161C448.124 161.213 448.15 161.48 448.15 161.8C448.15 162.107 448.124 162.373 448.07 162.6H447.27C447.324 162.813 447.35 163.08 447.35 163.4C447.35 163.707 447.324 163.973 447.27 164.2H446.07C446.017 163.973 445.99 163.707 445.99 163.4C445.99 163.08 446.017 162.813 446.07 162.6H446.87C446.817 162.373 446.79 162.107 446.79 161.8C446.79 161.48 446.817 161.213 446.87 161H446.07C446.017 160.773 445.99 160.507 445.99 160.2C445.99 159.88 446.017 159.613 446.07 159.4C446.017 159.173 445.99 158.907 445.99 158.6C445.99 158.28 446.017 158.013 446.07 157.8H448.07ZM377.48 180.4C377.48 180.707 377.453 180.973 377.4 181.2H375.8C375.853 181.413 375.88 181.68 375.88 182C375.88 182.307 375.853 182.573 375.8 182.8C375.853 183.013 375.88 183.28 375.88 183.6C375.88 183.907 375.853 184.173 375.8 184.4C375.853 184.613 375.88 184.88 375.88 185.2C375.88 185.507 375.853 185.773 375.8 186H375C375.053 186.213 375.08 186.48 375.08 186.8C375.08 187.107 375.053 187.373 375 187.6H372.6C372.547 187.373 372.52 187.107 372.52 186.8C372.52 186.48 372.547 186.213 372.6 186H374.2C374.147 185.773 374.12 185.507 374.12 185.2C374.12 184.88 374.147 184.613 374.2 184.4C374.147 184.173 374.12 183.907 374.12 183.6C374.12 183.28 374.147 183.013 374.2 182.8C374.147 182.573 374.12 182.307 374.12 182C374.12 181.68 374.147 181.413 374.2 181.2H375C374.947 180.973 374.92 180.707 374.92 180.4C374.92 180.08 374.947 179.813 375 179.6H374.2C374.147 179.373 374.12 179.107 374.12 178.8C374.12 178.48 374.147 178.213 374.2 178C374.147 177.773 374.12 177.507 374.12 177.2C374.12 176.88 374.147 176.613 374.2 176.4C374.147 176.173 374.12 175.907 374.12 175.6C374.12 175.28 374.147 175.013 374.2 174.8H372.6C372.547 174.573 372.52 174.307 372.52 174C372.52 173.68 372.547 173.413 372.6 173.2H375C375.053 173.413 375.08 173.68 375.08 174C375.08 174.307 375.053 174.573 375 174.8H375.8C375.853 175.013 375.88 175.28 375.88 175.6C375.88 175.907 375.853 176.173 375.8 176.4C375.853 176.613 375.88 176.88 375.88 177.2C375.88 177.507 375.853 177.773 375.8 178C375.853 178.213 375.88 178.48 375.88 178.8C375.88 179.107 375.853 179.373 375.8 179.6H377.4C377.453 179.813 377.48 180.08 377.48 180.4Z" fill="#56B6C2"/>
</svg>
