<svg width="802" height="775" viewBox="0 0 802 775" fill="none" xmlns="http://www.w3.org/2000/svg">
<g filter="url(#filter0_dd_1027_2354)">
<path d="M25 376.844V90.7851V88.3261V22.7538H359.278L368.272 8H419.238H434.228L443.722 22.7538H449.218H778V88.3261V377.664L764 386.5V407.5L778 416.5V685.854V752.246H443.722L434.228 767H368.272L359.278 752.246H352.283H25V685.854V417.5L37.5 410V386.5L25 379.303V376.844Z" fill="#171021" fill-opacity="0.8" shape-rendering="crispEdges"/>
</g>
<mask id="mask0_1027_2354" style="mask-type:alpha" maskUnits="userSpaceOnUse" x="25" y="8" width="753" height="759">
<path d="M25 376.844V90.7851V88.3261L64.9735 22.7538H359.278L368.272 8H419.238H434.228L443.722 22.7538H449.218H737.527L778 88.3261V377.664L764 386.5V407.5L778 416.5V685.854L737.027 752.246H443.722L434.228 767H368.272L359.278 752.246H352.283H65.4731L25 685.854V417.5L37.5 410V386.5L25 379.303V376.844Z" fill="#190336" fill-opacity="0.8"/>
</mask>
<g mask="url(#mask0_1027_2354)">
<path d="M117 144H94L79 159.283V182.717L94 198H117L132 182.717V159.283L117 144Z" stroke="#C66429" stroke-opacity="0.1"/>
<path d="M117 37H94L79 52.283V75.717L94 91H117L132 75.717V52.283L117 37Z" stroke="#C66429" stroke-opacity="0.1"/>
<path d="M117 250H94L79 265.283V288.717L94 304H117L132 288.717V265.283L117 250Z" stroke="#C66429" stroke-opacity="0.1"/>
<path d="M117 357H94L79 372.283V395.717L94 411H117L132 395.717V372.283L117 357Z" stroke="#C66429" stroke-opacity="0.1"/>
<path d="M117 464H94L79 479.283V502.717L94 518H117L132 502.717V479.283L117 464Z" stroke="#C66429" stroke-opacity="0.1"/>
<path d="M117 625H94L79 640.283V663.717L94 679H117L132 663.717V640.283L117 625Z" stroke="#C66429" stroke-opacity="0.1"/>
<path d="M117 571H94L79 586.283V609.717L94 625H117L132 609.717V586.283L117 571Z" stroke="#C66429" stroke-opacity="0.1"/>
<path d="M117 732H94L79 747.283V770.717L94 786H117L132 770.717V747.283L117 732Z" stroke="#C66429" stroke-opacity="0.1"/>
<path d="M761 144H738L723 159.283V182.717L738 198H761L776 182.717V159.283L761 144Z" stroke="#C66429" stroke-opacity="0.1"/>
<path d="M761 37H738L723 52.283V75.717L738 91H761L776 75.717V52.283L761 37Z" stroke="#C66429" stroke-opacity="0.1"/>
<path d="M761 250H738L723 265.283V288.717L738 304H761L776 288.717V265.283L761 250Z" stroke="#C66429" stroke-opacity="0.1"/>
<path d="M761 357H738L723 372.283V395.717L738 411H761L776 395.717V372.283L761 357Z" stroke="#C66429" stroke-opacity="0.1"/>
<path d="M761 464H738L723 479.283V502.717L738 518H761L776 502.717V479.283L761 464Z" stroke="#C66429" stroke-opacity="0.1"/>
<path d="M761 625H738L723 640.283V663.717L738 679H761L776 663.717V640.283L761 625Z" stroke="#C66429" stroke-opacity="0.1"/>
<path d="M761 571H738L723 586.283V609.717L738 625H761L776 609.717V586.283L761 571Z" stroke="#C66429" stroke-opacity="0.1"/>
<path d="M761 732H738L723 747.283V770.717L738 786H761L776 770.717V747.283L761 732Z" stroke="#C66429" stroke-opacity="0.1"/>
<path d="M439 144H416L401 159.283V182.717L416 198H439L454 182.717V159.283L439 144Z" stroke="#C66429" stroke-opacity="0.1"/>
<path d="M439 37H416L401 52.283V75.717L416 91H439L454 75.717V52.283L439 37Z" stroke="#C66429" stroke-opacity="0.1"/>
<path d="M439 250H416L401 265.283V288.717L416 304H439L454 288.717V265.283L439 250Z" stroke="#C66429" stroke-opacity="0.1"/>
<path d="M439 357H416L401 372.283V395.717L416 411H439L454 395.717V372.283L439 357Z" stroke="#C66429" stroke-opacity="0.1"/>
<path d="M439 464H416L401 479.283V502.717L416 518H439L454 502.717V479.283L439 464Z" stroke="#C66429" stroke-opacity="0.1"/>
<path d="M439 625H416L401 640.283V663.717L416 679H439L454 663.717V640.283L439 625Z" stroke="#C66429" stroke-opacity="0.1"/>
<path d="M439 571H416L401 586.283V609.717L416 625H439L454 609.717V586.283L439 571Z" stroke="#C66429" stroke-opacity="0.1"/>
<path d="M439 732H416L401 747.283V770.717L416 786H439L454 770.717V747.283L439 732Z" stroke="#C66429" stroke-opacity="0.1"/>
<path d="M278 144H255L240 159.283V182.717L255 198H278L293 182.717V159.283L278 144Z" stroke="#C66429" stroke-opacity="0.1"/>
<path d="M278 37H255L240 52.283V75.717L255 91H278L293 75.717V52.283L278 37Z" stroke="#C66429" stroke-opacity="0.1"/>
<path d="M278 250H255L240 265.283V288.717L255 304H278L293 288.717V265.283L278 250Z" stroke="#C66429" stroke-opacity="0.1"/>
<path d="M278 357H255L240 372.283V395.717L255 411H278L293 395.717V372.283L278 357Z" stroke="#C66429" stroke-opacity="0.1"/>
<path d="M278 464H255L240 479.283V502.717L255 518H278L293 502.717V479.283L278 464Z" stroke="#C66429" stroke-opacity="0.1"/>
<path d="M278 625H255L240 640.283V663.717L255 679H278L293 663.717V640.283L278 625Z" stroke="#C66429" stroke-opacity="0.1"/>
<path d="M278 571H255L240 586.283V609.717L255 625H278L293 609.717V586.283L278 571Z" stroke="#C66429" stroke-opacity="0.1"/>
<path d="M278 732H255L240 747.283V770.717L255 786H278L293 770.717V747.283L278 732Z" stroke="#C66429" stroke-opacity="0.1"/>
<path d="M600 144H577L562 159.283V182.717L577 198H600L615 182.717V159.283L600 144Z" stroke="#C66429" stroke-opacity="0.1"/>
<path d="M600 37H577L562 52.283V75.717L577 91H600L615 75.717V52.283L600 37Z" stroke="#C66429" stroke-opacity="0.1"/>
<path d="M600 250H577L562 265.283V288.717L577 304H600L615 288.717V265.283L600 250Z" stroke="#C66429" stroke-opacity="0.1"/>
<path d="M600 357H577L562 372.283V395.717L577 411H600L615 395.717V372.283L600 357Z" stroke="#C66429" stroke-opacity="0.1"/>
<path d="M600 464H577L562 479.283V502.717L577 518H600L615 502.717V479.283L600 464Z" stroke="#C66429" stroke-opacity="0.1"/>
<path d="M600 625H577L562 640.283V663.717L577 679H600L615 663.717V640.283L600 625Z" stroke="#C66429" stroke-opacity="0.1"/>
<path d="M600 571H577L562 586.283V609.717L577 625H600L615 609.717V586.283L600 571Z" stroke="#C66429" stroke-opacity="0.1"/>
<path d="M600 732H577L562 747.283V770.717L577 786H600L615 770.717V747.283L600 732Z" stroke="#C66429" stroke-opacity="0.1"/>
<path d="M117 91H94L79 106V129L94 144H117L132 129V106L117 91Z" stroke="#C66429" stroke-opacity="0.1"/>
<path d="M117 -16H94L79 -1V22L94 37H117L132 22V-1L117 -16Z" stroke="#C66429" stroke-opacity="0.1"/>
<path d="M117 197H94L79 212V235L94 250H117L132 235V212L117 197Z" stroke="#C66429" stroke-opacity="0.1"/>
<path d="M117 304H94L79 319V342L94 357H117L132 342V319L117 304Z" stroke="#C66429" stroke-opacity="0.1"/>
<path d="M117 411H94L79 426V449L94 464H117L132 449V426L117 411Z" stroke="#C66429" stroke-opacity="0.1"/>
<path d="M117 518H94L79 533V556L94 571H117L132 556V533L117 518Z" stroke="#C66429" stroke-opacity="0.1"/>
<path d="M117 679H94L79 694V717L94 732H117L132 717V694L117 679Z" stroke="#C66429" stroke-opacity="0.1"/>
<path d="M761 91H738L723 106V129L738 144H761L776 129V106L761 91Z" stroke="#C66429" stroke-opacity="0.1"/>
<path d="M761 -16H738L723 -1V22L738 37H761L776 22V-1L761 -16Z" stroke="#C66429" stroke-opacity="0.1"/>
<path d="M761 197H738L723 212V235L738 250H761L776 235V212L761 197Z" stroke="#C66429" stroke-opacity="0.1"/>
<path d="M761 304H738L723 319V342L738 357H761L776 342V319L761 304Z" stroke="#C66429" stroke-opacity="0.1"/>
<path d="M761 411H738L723 426V449L738 464H761L776 449V426L761 411Z" stroke="#C66429" stroke-opacity="0.1"/>
<path d="M761 518H738L723 533V556L738 571H761L776 556V533L761 518Z" stroke="#C66429" stroke-opacity="0.1"/>
<path d="M761 679H738L723 694V717L738 732H761L776 717V694L761 679Z" stroke="#C66429" stroke-opacity="0.1"/>
<path d="M439 91H416L401 106V129L416 144H439L454 129V106L439 91Z" stroke="#C66429" stroke-opacity="0.1"/>
<path d="M439 -16H416L401 -1V22L416 37H439L454 22V-1L439 -16Z" stroke="#C66429" stroke-opacity="0.1"/>
<path d="M439 197H416L401 212V235L416 250H439L454 235V212L439 197Z" stroke="#C66429" stroke-opacity="0.1"/>
<path d="M439 304H416L401 319V342L416 357H439L454 342V319L439 304Z" stroke="#C66429" stroke-opacity="0.1"/>
<path d="M439 411H416L401 426V449L416 464H439L454 449V426L439 411Z" stroke="#C66429" stroke-opacity="0.1"/>
<path d="M439 518H416L401 533V556L416 571H439L454 556V533L439 518Z" stroke="#C66429" stroke-opacity="0.1"/>
<path d="M439 679H416L401 694V717L416 732H439L454 717V694L439 679Z" stroke="#C66429" stroke-opacity="0.1"/>
<path d="M278 91H255L240 106V129L255 144H278L293 129V106L278 91Z" stroke="#C66429" stroke-opacity="0.1"/>
<path d="M278 -16H255L240 -1V22L255 37H278L293 22V-1L278 -16Z" stroke="#C66429" stroke-opacity="0.1"/>
<path d="M278 197H255L240 212V235L255 250H278L293 235V212L278 197Z" stroke="#C66429" stroke-opacity="0.1"/>
<path d="M278 304H255L240 319V342L255 357H278L293 342V319L278 304Z" stroke="#C66429" stroke-opacity="0.1"/>
<path d="M278 411H255L240 426V449L255 464H278L293 449V426L278 411Z" stroke="#C66429" stroke-opacity="0.1"/>
<path d="M278 518H255L240 533V556L255 571H278L293 556V533L278 518Z" stroke="#C66429" stroke-opacity="0.1"/>
<path d="M278 679H255L240 694V717L255 732H278L293 717V694L278 679Z" stroke="#C66429" stroke-opacity="0.1"/>
<path d="M600 91H577L562 106V129L577 144H600L615 129V106L600 91Z" stroke="#C66429" stroke-opacity="0.1"/>
<path d="M600 -16H577L562 -1V22L577 37H600L615 22V-1L600 -16Z" stroke="#C66429" stroke-opacity="0.1"/>
<path d="M600 197H577L562 212V235L577 250H600L615 235V212L600 197Z" stroke="#C66429" stroke-opacity="0.1"/>
<path d="M600 304H577L562 319V342L577 357H600L615 342V319L600 304Z" stroke="#C66429" stroke-opacity="0.1"/>
<path d="M600 411H577L562 426V449L577 464H600L615 449V426L600 411Z" stroke="#C66429" stroke-opacity="0.1"/>
<path d="M600 518H577L562 533V556L577 571H600L615 556V533L600 518Z" stroke="#C66429" stroke-opacity="0.1"/>
<path d="M600 679H577L562 694V717L577 732H600L615 717V694L600 679Z" stroke="#C66429" stroke-opacity="0.1"/>
<path d="M63.717 144H40.283L25 159.283V182.717L40.283 198H63.717L79 182.717V159.283L63.717 144Z" stroke="#C66429" stroke-opacity="0.1"/>
<path d="M63.717 37H40.283L25 52.283V75.717L40.283 91H63.717L79 75.717V52.283L63.717 37Z" stroke="#C66429" stroke-opacity="0.1"/>
<path d="M63.717 250H40.283L25 265.283V288.717L40.283 304H63.717L79 288.717V265.283L63.717 250Z" stroke="#C66429" stroke-opacity="0.1"/>
<path d="M63.717 357H40.283L25 372.283V395.717L40.283 411H63.717L79 395.717V372.283L63.717 357Z" stroke="#C66429" stroke-opacity="0.1"/>
<path d="M63.717 464H40.283L25 479.283V502.717L40.283 518H63.717L79 502.717V479.283L63.717 464Z" stroke="#C66429" stroke-opacity="0.1"/>
<path d="M63.717 625H40.283L25 640.283V663.717L40.283 679H63.717L79 663.717V640.283L63.717 625Z" stroke="#C66429" stroke-opacity="0.1"/>
<path d="M63.717 571H40.283L25 586.283V609.717L40.283 625H63.717L79 609.717V586.283L63.717 571Z" stroke="#C66429" stroke-opacity="0.1"/>
<path d="M63.717 732H40.283L25 747.283V770.717L40.283 786H63.717L79 770.717V747.283L63.717 732Z" stroke="#C66429" stroke-opacity="0.1"/>
<path d="M707.717 144H684.283L669 159.283V182.717L684.283 198H707.717L723 182.717V159.283L707.717 144Z" stroke="#C66429" stroke-opacity="0.1"/>
<path d="M707.717 37H684.283L669 52.283V75.717L684.283 91H707.717L723 75.717V52.283L707.717 37Z" stroke="#C66429" stroke-opacity="0.1"/>
<path d="M707.717 250H684.283L669 265.283V288.717L684.283 304H707.717L723 288.717V265.283L707.717 250Z" stroke="#C66429" stroke-opacity="0.1"/>
<path d="M707.717 357H684.283L669 372.283V395.717L684.283 411H707.717L723 395.717V372.283L707.717 357Z" stroke="#C66429" stroke-opacity="0.1"/>
<path d="M707.717 464H684.283L669 479.283V502.717L684.283 518H707.717L723 502.717V479.283L707.717 464Z" stroke="#C66429" stroke-opacity="0.1"/>
<path d="M707.717 625H684.283L669 640.283V663.717L684.283 679H707.717L723 663.717V640.283L707.717 625Z" stroke="#C66429" stroke-opacity="0.1"/>
<path d="M707.717 571H684.283L669 586.283V609.717L684.283 625H707.717L723 609.717V586.283L707.717 571Z" stroke="#C66429" stroke-opacity="0.1"/>
<path d="M707.717 732H684.283L669 747.283V770.717L684.283 786H707.717L723 770.717V747.283L707.717 732Z" stroke="#C66429" stroke-opacity="0.1"/>
<path d="M385.717 144H362.283L347 159.283V182.717L362.283 198H385.717L401 182.717V159.283L385.717 144Z" stroke="#C66429" stroke-opacity="0.1"/>
<path d="M385.717 37H362.283L347 52.283V75.717L362.283 91H385.717L401 75.717V52.283L385.717 37Z" stroke="#C66429" stroke-opacity="0.1"/>
<path d="M385.717 250H362.283L347 265.283V288.717L362.283 304H385.717L401 288.717V265.283L385.717 250Z" stroke="#C66429" stroke-opacity="0.1"/>
<path d="M385.717 357H362.283L347 372.283V395.717L362.283 411H385.717L401 395.717V372.283L385.717 357Z" stroke="#C66429" stroke-opacity="0.1"/>
<path d="M385.717 464H362.283L347 479.283V502.717L362.283 518H385.717L401 502.717V479.283L385.717 464Z" stroke="#C66429" stroke-opacity="0.1"/>
<path d="M385.717 625H362.283L347 640.283V663.717L362.283 679H385.717L401 663.717V640.283L385.717 625Z" stroke="#C66429" stroke-opacity="0.1"/>
<path d="M385.717 571H362.283L347 586.283V609.717L362.283 625H385.717L401 609.717V586.283L385.717 571Z" stroke="#C66429" stroke-opacity="0.1"/>
<path d="M385.717 732H362.283L347 747.283V770.717L362.283 786H385.717L401 770.717V747.283L385.717 732Z" stroke="#C66429" stroke-opacity="0.1"/>
<path d="M224.717 144H201.283L186 159.283V182.717L201.283 198H224.717L240 182.717V159.283L224.717 144Z" stroke="#C66429" stroke-opacity="0.1"/>
<path d="M224.717 37H201.283L186 52.283V75.717L201.283 91H224.717L240 75.717V52.283L224.717 37Z" stroke="#C66429" stroke-opacity="0.1"/>
<path d="M224.717 250H201.283L186 265.283V288.717L201.283 304H224.717L240 288.717V265.283L224.717 250Z" stroke="#C66429" stroke-opacity="0.1"/>
<path d="M224.717 357H201.283L186 372.283V395.717L201.283 411H224.717L240 395.717V372.283L224.717 357Z" stroke="#C66429" stroke-opacity="0.1"/>
<path d="M224.717 464H201.283L186 479.283V502.717L201.283 518H224.717L240 502.717V479.283L224.717 464Z" stroke="#C66429" stroke-opacity="0.1"/>
<path d="M224.717 625H201.283L186 640.283V663.717L201.283 679H224.717L240 663.717V640.283L224.717 625Z" stroke="#C66429" stroke-opacity="0.1"/>
<path d="M224.717 571H201.283L186 586.283V609.717L201.283 625H224.717L240 609.717V586.283L224.717 571Z" stroke="#C66429" stroke-opacity="0.1"/>
<path d="M224.717 732H201.283L186 747.283V770.717L201.283 786H224.717L240 770.717V747.283L224.717 732Z" stroke="#C66429" stroke-opacity="0.1"/>
<path d="M546.717 144H523.283L508 159.283V182.717L523.283 198H546.717L562 182.717V159.283L546.717 144Z" stroke="#C66429" stroke-opacity="0.1"/>
<path d="M546.717 37H523.283L508 52.283V75.717L523.283 91H546.717L562 75.717V52.283L546.717 37Z" stroke="#C66429" stroke-opacity="0.1"/>
<path d="M546.717 250H523.283L508 265.283V288.717L523.283 304H546.717L562 288.717V265.283L546.717 250Z" stroke="#C66429" stroke-opacity="0.1"/>
<path d="M546.717 357H523.283L508 372.283V395.717L523.283 411H546.717L562 395.717V372.283L546.717 357Z" stroke="#C66429" stroke-opacity="0.1"/>
<path d="M546.717 464H523.283L508 479.283V502.717L523.283 518H546.717L562 502.717V479.283L546.717 464Z" stroke="#C66429" stroke-opacity="0.1"/>
<path d="M546.717 625H523.283L508 640.283V663.717L523.283 679H546.717L562 663.717V640.283L546.717 625Z" stroke="#C66429" stroke-opacity="0.1"/>
<path d="M546.717 571H523.283L508 586.283V609.717L523.283 625H546.717L562 609.717V586.283L546.717 571Z" stroke="#C66429" stroke-opacity="0.1"/>
<path d="M546.717 732H523.283L508 747.283V770.717L523.283 786H546.717L562 770.717V747.283L546.717 732Z" stroke="#C66429" stroke-opacity="0.1"/>
<path d="M63.717 91H40.283L25 106V129L40.283 144H63.717L79 129V106L63.717 91Z" stroke="#C66429" stroke-opacity="0.1"/>
<path d="M63.717 -16H40.283L25 -1V22L40.283 37H63.717L79 22V-1L63.717 -16Z" stroke="#C66429" stroke-opacity="0.1"/>
<path d="M63.717 197H40.283L25 212V235L40.283 250H63.717L79 235V212L63.717 197Z" stroke="#C66429" stroke-opacity="0.1"/>
<path d="M63.717 304H40.283L25 319V342L40.283 357H63.717L79 342V319L63.717 304Z" stroke="#C66429" stroke-opacity="0.1"/>
<path d="M63.717 411H40.283L25 426V449L40.283 464H63.717L79 449V426L63.717 411Z" stroke="#C66429" stroke-opacity="0.1"/>
<path d="M63.717 518H40.283L25 533V556L40.283 571H63.717L79 556V533L63.717 518Z" stroke="#C66429" stroke-opacity="0.1"/>
<path d="M63.717 679H40.283L25 694V717L40.283 732H63.717L79 717V694L63.717 679Z" stroke="#C66429" stroke-opacity="0.1"/>
<path d="M707.717 91H684.283L669 106V129L684.283 144H707.717L723 129V106L707.717 91Z" stroke="#C66429" stroke-opacity="0.1"/>
<path d="M707.717 -16H684.283L669 -1V22L684.283 37H707.717L723 22V-1L707.717 -16Z" stroke="#C66429" stroke-opacity="0.1"/>
<path d="M707.717 197H684.283L669 212V235L684.283 250H707.717L723 235V212L707.717 197Z" stroke="#C66429" stroke-opacity="0.1"/>
<path d="M707.717 304H684.283L669 319V342L684.283 357H707.717L723 342V319L707.717 304Z" stroke="#C66429" stroke-opacity="0.1"/>
<path d="M707.717 411H684.283L669 426V449L684.283 464H707.717L723 449V426L707.717 411Z" stroke="#C66429" stroke-opacity="0.1"/>
<path d="M707.717 518H684.283L669 533V556L684.283 571H707.717L723 556V533L707.717 518Z" stroke="#C66429" stroke-opacity="0.1"/>
<path d="M707.717 679H684.283L669 694V717L684.283 732H707.717L723 717V694L707.717 679Z" stroke="#C66429" stroke-opacity="0.1"/>
<path d="M385.717 91H362.283L347 106V129L362.283 144H385.717L401 129V106L385.717 91Z" stroke="#C66429" stroke-opacity="0.1"/>
<path d="M385.717 -16H362.283L347 -1V22L362.283 37H385.717L401 22V-1L385.717 -16Z" stroke="#C66429" stroke-opacity="0.1"/>
<path d="M385.717 197H362.283L347 212V235L362.283 250H385.717L401 235V212L385.717 197Z" stroke="#C66429" stroke-opacity="0.1"/>
<path d="M385.717 304H362.283L347 319V342L362.283 357H385.717L401 342V319L385.717 304Z" stroke="#C66429" stroke-opacity="0.1"/>
<path d="M385.717 411H362.283L347 426V449L362.283 464H385.717L401 449V426L385.717 411Z" stroke="#C66429" stroke-opacity="0.1"/>
<path d="M385.717 518H362.283L347 533V556L362.283 571H385.717L401 556V533L385.717 518Z" stroke="#C66429" stroke-opacity="0.1"/>
<path d="M385.717 679H362.283L347 694V717L362.283 732H385.717L401 717V694L385.717 679Z" stroke="#C66429" stroke-opacity="0.1"/>
<path d="M224.717 91H201.283L186 106V129L201.283 144H224.717L240 129V106L224.717 91Z" stroke="#C66429" stroke-opacity="0.1"/>
<path d="M224.717 -16H201.283L186 -1V22L201.283 37H224.717L240 22V-1L224.717 -16Z" stroke="#C66429" stroke-opacity="0.1"/>
<path d="M224.717 197H201.283L186 212V235L201.283 250H224.717L240 235V212L224.717 197Z" stroke="#C66429" stroke-opacity="0.1"/>
<path d="M224.717 304H201.283L186 319V342L201.283 357H224.717L240 342V319L224.717 304Z" stroke="#C66429" stroke-opacity="0.1"/>
<path d="M224.717 411H201.283L186 426V449L201.283 464H224.717L240 449V426L224.717 411Z" stroke="#C66429" stroke-opacity="0.1"/>
<path d="M224.717 518H201.283L186 533V556L201.283 571H224.717L240 556V533L224.717 518Z" stroke="#C66429" stroke-opacity="0.1"/>
<path d="M224.717 679H201.283L186 694V717L201.283 732H224.717L240 717V694L224.717 679Z" stroke="#C66429" stroke-opacity="0.1"/>
<path d="M546.717 91H523.283L508 106V129L523.283 144H546.717L562 129V106L546.717 91Z" stroke="#C66429" stroke-opacity="0.1"/>
<path d="M546.717 -16H523.283L508 -1V22L523.283 37H546.717L562 22V-1L546.717 -16Z" stroke="#C66429" stroke-opacity="0.1"/>
<path d="M546.717 197H523.283L508 212V235L523.283 250H546.717L562 235V212L546.717 197Z" stroke="#C66429" stroke-opacity="0.1"/>
<path d="M546.717 304H523.283L508 319V342L523.283 357H546.717L562 342V319L546.717 304Z" stroke="#C66429" stroke-opacity="0.1"/>
<path d="M546.717 411H523.283L508 426V449L523.283 464H546.717L562 449V426L546.717 411Z" stroke="#C66429" stroke-opacity="0.1"/>
<path d="M546.717 518H523.283L508 533V556L523.283 571H546.717L562 556V533L546.717 518Z" stroke="#C66429" stroke-opacity="0.1"/>
<path d="M546.717 679H523.283L508 694V717L523.283 732H546.717L562 717V694L546.717 679Z" stroke="#C66429" stroke-opacity="0.1"/>
<path d="M170.717 144H147.283L132 159.283V182.717L147.283 198H170.717L186 182.717V159.283L170.717 144Z" stroke="#C66429" stroke-opacity="0.1"/>
<path d="M170.717 37H147.283L132 52.283V75.717L147.283 91H170.717L186 75.717V52.283L170.717 37Z" stroke="#C66429" stroke-opacity="0.1"/>
<path d="M170.717 250H147.283L132 265.283V288.717L147.283 304H170.717L186 288.717V265.283L170.717 250Z" stroke="#C66429" stroke-opacity="0.1"/>
<path d="M170.717 357H147.283L132 372.283V395.717L147.283 411H170.717L186 395.717V372.283L170.717 357Z" stroke="#C66429" stroke-opacity="0.1"/>
<path d="M170.717 464H147.283L132 479.283V502.717L147.283 518H170.717L186 502.717V479.283L170.717 464Z" stroke="#C66429" stroke-opacity="0.1"/>
<path d="M170.717 625H147.283L132 640.283V663.717L147.283 679H170.717L186 663.717V640.283L170.717 625Z" stroke="#C66429" stroke-opacity="0.1"/>
<path d="M170.717 571H147.283L132 586.283V609.717L147.283 625H170.717L186 609.717V586.283L170.717 571Z" stroke="#C66429" stroke-opacity="0.1"/>
<path d="M170.717 732H147.283L132 747.283V770.717L147.283 786H170.717L186 770.717V747.283L170.717 732Z" stroke="#C66429" stroke-opacity="0.1"/>
<path d="M492.717 144H469.283L454 159.283V182.717L469.283 198H492.717L508 182.717V159.283L492.717 144Z" stroke="#C66429" stroke-opacity="0.1"/>
<path d="M492.717 37H469.283L454 52.283V75.717L469.283 91H492.717L508 75.717V52.283L492.717 37Z" stroke="#C66429" stroke-opacity="0.1"/>
<path d="M492.717 250H469.283L454 265.283V288.717L469.283 304H492.717L508 288.717V265.283L492.717 250Z" stroke="#C66429" stroke-opacity="0.1"/>
<path d="M492.717 357H469.283L454 372.283V395.717L469.283 411H492.717L508 395.717V372.283L492.717 357Z" stroke="#C66429" stroke-opacity="0.1"/>
<path d="M492.717 464H469.283L454 479.283V502.717L469.283 518H492.717L508 502.717V479.283L492.717 464Z" stroke="#C66429" stroke-opacity="0.1"/>
<path d="M492.717 625H469.283L454 640.283V663.717L469.283 679H492.717L508 663.717V640.283L492.717 625Z" stroke="#C66429" stroke-opacity="0.1"/>
<path d="M492.717 571H469.283L454 586.283V609.717L469.283 625H492.717L508 609.717V586.283L492.717 571Z" stroke="#C66429" stroke-opacity="0.1"/>
<path d="M492.717 732H469.283L454 747.283V770.717L469.283 786H492.717L508 770.717V747.283L492.717 732Z" stroke="#C66429" stroke-opacity="0.1"/>
<path d="M331.717 144H308.283L293 159.283V182.717L308.283 198H331.717L347 182.717V159.283L331.717 144Z" stroke="#C66429" stroke-opacity="0.1"/>
<path d="M331.717 37H308.283L293 52.283V75.717L308.283 91H331.717L347 75.717V52.283L331.717 37Z" stroke="#C66429" stroke-opacity="0.1"/>
<path d="M331.717 250H308.283L293 265.283V288.717L308.283 304H331.717L347 288.717V265.283L331.717 250Z" stroke="#C66429" stroke-opacity="0.1"/>
<path d="M331.717 357H308.283L293 372.283V395.717L308.283 411H331.717L347 395.717V372.283L331.717 357Z" stroke="#C66429" stroke-opacity="0.1"/>
<path d="M331.717 464H308.283L293 479.283V502.717L308.283 518H331.717L347 502.717V479.283L331.717 464Z" stroke="#C66429" stroke-opacity="0.1"/>
<path d="M331.717 625H308.283L293 640.283V663.717L308.283 679H331.717L347 663.717V640.283L331.717 625Z" stroke="#C66429" stroke-opacity="0.1"/>
<path d="M331.717 571H308.283L293 586.283V609.717L308.283 625H331.717L347 609.717V586.283L331.717 571Z" stroke="#C66429" stroke-opacity="0.1"/>
<path d="M331.717 732H308.283L293 747.283V770.717L308.283 786H331.717L347 770.717V747.283L331.717 732Z" stroke="#C66429" stroke-opacity="0.1"/>
<path d="M653.717 144H630.283L615 159.283V182.717L630.283 198H653.717L669 182.717V159.283L653.717 144Z" stroke="#C66429" stroke-opacity="0.1"/>
<path d="M653.717 37H630.283L615 52.283V75.717L630.283 91H653.717L669 75.717V52.283L653.717 37Z" stroke="#C66429" stroke-opacity="0.1"/>
<path d="M653.717 250H630.283L615 265.283V288.717L630.283 304H653.717L669 288.717V265.283L653.717 250Z" stroke="#C66429" stroke-opacity="0.1"/>
<path d="M653.717 357H630.283L615 372.283V395.717L630.283 411H653.717L669 395.717V372.283L653.717 357Z" stroke="#C66429" stroke-opacity="0.1"/>
<path d="M653.717 464H630.283L615 479.283V502.717L630.283 518H653.717L669 502.717V479.283L653.717 464Z" stroke="#C66429" stroke-opacity="0.1"/>
<path d="M653.717 625H630.283L615 640.283V663.717L630.283 679H653.717L669 663.717V640.283L653.717 625Z" stroke="#C66429" stroke-opacity="0.1"/>
<path d="M653.717 571H630.283L615 586.283V609.717L630.283 625H653.717L669 609.717V586.283L653.717 571Z" stroke="#C66429" stroke-opacity="0.1"/>
<path d="M653.717 732H630.283L615 747.283V770.717L630.283 786H653.717L669 770.717V747.283L653.717 732Z" stroke="#C66429" stroke-opacity="0.1"/>
<path d="M170.717 91H147.283L132 106V129L147.283 144H170.717L186 129V106L170.717 91Z" stroke="#C66429" stroke-opacity="0.1"/>
<path d="M170.717 -16H147.283L132 -1V22L147.283 37H170.717L186 22V-1L170.717 -16Z" stroke="#C66429" stroke-opacity="0.1"/>
<path d="M170.717 197H147.283L132 212V235L147.283 250H170.717L186 235V212L170.717 197Z" stroke="#C66429" stroke-opacity="0.1"/>
<path d="M170.717 304H147.283L132 319V342L147.283 357H170.717L186 342V319L170.717 304Z" stroke="#C66429" stroke-opacity="0.1"/>
<path d="M170.717 411H147.283L132 426V449L147.283 464H170.717L186 449V426L170.717 411Z" stroke="#C66429" stroke-opacity="0.1"/>
<path d="M170.717 518H147.283L132 533V556L147.283 571H170.717L186 556V533L170.717 518Z" stroke="#C66429" stroke-opacity="0.1"/>
<path d="M170.717 679H147.283L132 694V717L147.283 732H170.717L186 717V694L170.717 679Z" stroke="#C66429" stroke-opacity="0.1"/>
<path d="M492.717 91H469.283L454 106V129L469.283 144H492.717L508 129V106L492.717 91Z" stroke="#C66429" stroke-opacity="0.1"/>
<path d="M492.717 -16H469.283L454 -1V22L469.283 37H492.717L508 22V-1L492.717 -16Z" stroke="#C66429" stroke-opacity="0.1"/>
<path d="M492.717 197H469.283L454 212V235L469.283 250H492.717L508 235V212L492.717 197Z" stroke="#C66429" stroke-opacity="0.1"/>
<path d="M492.717 304H469.283L454 319V342L469.283 357H492.717L508 342V319L492.717 304Z" stroke="#C66429" stroke-opacity="0.1"/>
<path d="M492.717 411H469.283L454 426V449L469.283 464H492.717L508 449V426L492.717 411Z" stroke="#C66429" stroke-opacity="0.1"/>
<path d="M492.717 518H469.283L454 533V556L469.283 571H492.717L508 556V533L492.717 518Z" stroke="#C66429" stroke-opacity="0.1"/>
<path d="M492.717 679H469.283L454 694V717L469.283 732H492.717L508 717V694L492.717 679Z" stroke="#C66429" stroke-opacity="0.1"/>
<path d="M331.717 91H308.283L293 106V129L308.283 144H331.717L347 129V106L331.717 91Z" stroke="#C66429" stroke-opacity="0.1"/>
<path d="M331.717 -16H308.283L293 -1V22L308.283 37H331.717L347 22V-1L331.717 -16Z" stroke="#C66429" stroke-opacity="0.1"/>
<path d="M331.717 197H308.283L293 212V235L308.283 250H331.717L347 235V212L331.717 197Z" stroke="#C66429" stroke-opacity="0.1"/>
<path d="M331.717 304H308.283L293 319V342L308.283 357H331.717L347 342V319L331.717 304Z" stroke="#C66429" stroke-opacity="0.1"/>
<path d="M331.717 411H308.283L293 426V449L308.283 464H331.717L347 449V426L331.717 411Z" stroke="#C66429" stroke-opacity="0.1"/>
<path d="M331.717 518H308.283L293 533V556L308.283 571H331.717L347 556V533L331.717 518Z" stroke="#C66429" stroke-opacity="0.1"/>
<path d="M331.717 679H308.283L293 694V717L308.283 732H331.717L347 717V694L331.717 679Z" stroke="#C66429" stroke-opacity="0.1"/>
<path d="M653.717 91H630.283L615 106V129L630.283 144H653.717L669 129V106L653.717 91Z" stroke="#C66429" stroke-opacity="0.1"/>
<path d="M653.717 -16H630.283L615 -1V22L630.283 37H653.717L669 22V-1L653.717 -16Z" stroke="#C66429" stroke-opacity="0.1"/>
<path d="M653.717 197H630.283L615 212V235L630.283 250H653.717L669 235V212L653.717 197Z" stroke="#C66429" stroke-opacity="0.1"/>
<path d="M653.717 304H630.283L615 319V342L630.283 357H653.717L669 342V319L653.717 304Z" stroke="#C66429" stroke-opacity="0.1"/>
<path d="M653.717 411H630.283L615 426V449L630.283 464H653.717L669 449V426L653.717 411Z" stroke="#C66429" stroke-opacity="0.1"/>
<path d="M653.717 518H630.283L615 533V556L630.283 571H653.717L669 556V533L653.717 518Z" stroke="#C66429" stroke-opacity="0.1"/>
<path d="M653.717 679H630.283L615 694V717L630.283 732H653.717L669 717V694L653.717 679Z" stroke="#C66429" stroke-opacity="0.1"/>
</g>
<path d="M24 447V685.589V752H353" stroke="#5DC9E1" stroke-width="2"/>
<path d="M24 327V88.4113V22H353" stroke="#5DC9E1" stroke-width="2"/>
<path d="M778 447V685.589V752H449" stroke="#5DC9E1" stroke-width="2"/>
<path d="M778 327V88.4113V22H449" stroke="#5DC9E1" stroke-width="2"/>
<path d="M800 373.5L784 364V371.5L800 381.5V373.5Z" fill="#E9820A"/>
<path d="M2 374.5L18 365V372.5L2 382.5V374.5Z" fill="#E9820A"/>
<path d="M800 421.5L784 431V423.5L800 413.5V421.5Z" fill="#E9820A"/>
<path d="M2 422.5L18 432V424.5L2 414.5V422.5Z" fill="#E9820A"/>
<path d="M800 362L784 352.5V360L800 370V362Z" fill="#E9820A"/>
<path d="M2 363L18 353.5V361L2 371V363Z" fill="#E9820A"/>
<path d="M800 433L784 442.5V435L800 425V433Z" fill="#E9820A"/>
<path d="M2 434L18 443.5V436L2 426V434Z" fill="#E9820A"/>
<path d="M800 350L784 340.5V348L800 358V350Z" fill="#E9820A"/>
<path d="M2 351L18 341.5V349L2 359V351Z" fill="#E9820A"/>
<path d="M800 445L784 454.5V447L800 437V445Z" fill="#E9820A"/>
<path d="M2 446L18 455.5V448L2 438V446Z" fill="#E9820A"/>
<path d="M800 338L784 328.5V336L800 346V338Z" fill="#E9820A"/>
<path d="M2 339L18 329.5V337L2 347V339Z" fill="#E9820A"/>
<path d="M800 457L784 466.5V459L800 449V457Z" fill="#E9820A"/>
<path d="M2 458L18 467.5V460L2 450V458Z" fill="#E9820A"/>
<path d="M800 326L784 316.5V324L800 334V326Z" fill="#E9820A"/>
<path d="M2 327L18 317.5V325L2 335V327Z" fill="#E9820A"/>
<path d="M800 469L784 478.5V471L800 461V469Z" fill="#E9820A"/>
<path d="M2 470L18 479.5V472L2 462V470Z" fill="#E9820A"/>
<path d="M800 315L784 305.5V313L800 323V315Z" fill="#E9820A"/>
<path d="M2 316L18 306.5V314L2 324V316Z" fill="#E9820A"/>
<path d="M800 480L784 489.5V482L800 472V480Z" fill="#E9820A"/>
<path d="M2 481L18 490.5V483L2 473V481Z" fill="#E9820A"/>
<path d="M800 304L784 294.5V302L800 312V304Z" fill="#E9820A"/>
<path d="M2 305L18 295.5V303L2 313V305Z" fill="#E9820A"/>
<path d="M800 491L784 500.5V493L800 483V491Z" fill="#E9820A"/>
<path d="M2 492L18 501.5V494L2 484V492Z" fill="#E9820A"/>
<path d="M800 293L784 283.5V291L800 301V293Z" fill="#E9820A"/>
<path d="M2 294L18 284.5V292L2 302V294Z" fill="#E9820A"/>
<path d="M800 502L784 511.5V504L800 494V502Z" fill="#E9820A"/>
<path d="M2 503L18 512.5V505L2 495V503Z" fill="#E9820A"/>
<path d="M780 372.5H781.5V353H780V372.5Z" fill="#5DC9E1"/>
<path d="M788 281L781.5 277V353M781.5 353V372.5H780V353H781.5Z" stroke="#5DC9E1" stroke-linejoin="round"/>
<path d="M22 373.5H20.5V354H22V373.5Z" fill="#5DC9E1"/>
<path d="M14 282L20.5 278V354M20.5 354V373.5H22V354H20.5Z" stroke="#5DC9E1" stroke-linejoin="round"/>
<path d="M780 422.5H781.5V442H780V422.5Z" fill="#5DC9E1"/>
<path d="M788 514L781.5 518V442M781.5 442V422.5H780V442H781.5Z" stroke="#5DC9E1" stroke-linejoin="round"/>
<path d="M22 423.5H20.5V443H22V423.5Z" fill="#5DC9E1"/>
<path d="M14 515L20.5 519V443M20.5 443V423.5H22V443H20.5Z" stroke="#5DC9E1" stroke-linejoin="round"/>
<path d="M782.5 390.5L776.871 393.75V400.25L782.5 403.5L788.129 400.25V393.75L782.5 390.5Z" fill="#5DC9E1"/>
<path d="M19.5 391.5L25.1292 394.75V401.25L19.5 404.5L13.8708 401.25V394.75L19.5 391.5Z" fill="#5DC9E1"/>
<path d="M798.887 387.539L782.5 378.077L766.113 387.539V406.461L782.5 415.923L798.887 406.461V387.539Z" stroke="#5DC9E1"/>
<path d="M3.1125 388.539L19.5 379.077L35.8875 388.539V407.461L19.5 416.923L3.1125 407.461V388.539Z" stroke="#5DC9E1"/>
<path d="M166 732L172.014 741.767H262.471M384 767H368.464L353.931 743.395M262.471 741.767H352.929L353.931 743.395M262.471 741.767V743.395H353.931" stroke="#5DC9E1" stroke-linejoin="round"/>
<path d="M166 42L172.014 32.2326H262.471M384 7H368.464L353.931 30.6047M262.471 32.2326H352.929L353.931 30.6047M262.471 32.2326V30.6047H353.931" stroke="#5DC9E1" stroke-linejoin="round"/>
<path d="M636 732L630.014 741.767H539.971M419 767H434.464L448.931 743.395M539.971 741.767H449.929L448.931 743.395M539.971 741.767V743.395H448.931" stroke="#5DC9E1" stroke-linejoin="round"/>
<path d="M636 42L630.014 32.2326H539.971M419 7H434.464L448.931 30.6047M539.971 32.2326H449.929L448.931 30.6047M539.971 32.2326V30.6047H448.931" stroke="#5DC9E1" stroke-linejoin="round"/>
<line x1="55.5" y1="203" x2="55.5" y2="570" stroke="#5DC9E1"/>
<line x1="741.5" y1="203" x2="741.5" y2="570" stroke="#5DC9E1"/>
<circle cx="55" cy="203" r="2" fill="#5DC9E1"/>
<circle cx="741" cy="203" r="2" fill="#5DC9E1"/>
<circle cx="55" cy="244" r="2" fill="#5DC9E1"/>
<circle cx="741" cy="244" r="2" fill="#5DC9E1"/>
<circle cx="55" cy="285" r="2" fill="#5DC9E1"/>
<circle cx="741" cy="285" r="2" fill="#5DC9E1"/>
<circle cx="55" cy="326" r="2" fill="#5DC9E1"/>
<circle cx="741" cy="326" r="2" fill="#5DC9E1"/>
<circle cx="55" cy="367" r="2" fill="#5DC9E1"/>
<circle cx="741" cy="367" r="2" fill="#5DC9E1"/>
<circle cx="55" cy="408" r="2" fill="#5DC9E1"/>
<circle cx="741" cy="408" r="2" fill="#5DC9E1"/>
<circle cx="55" cy="449" r="2" fill="#5DC9E1"/>
<circle cx="741" cy="449" r="2" fill="#5DC9E1"/>
<circle cx="55" cy="490" r="2" fill="#5DC9E1"/>
<circle cx="741" cy="490" r="2" fill="#5DC9E1"/>
<circle cx="55" cy="531" r="2" fill="#5DC9E1"/>
<circle cx="741" cy="531" r="2" fill="#5DC9E1"/>
<circle cx="55" cy="572" r="2" fill="#5DC9E1"/>
<circle cx="741" cy="572" r="2" fill="#5DC9E1"/>
<defs>
<filter id="filter0_dd_1027_2354" x="17" y="0" width="769" height="775" filterUnits="userSpaceOnUse" color-interpolation-filters="sRGB">
<feFlood flood-opacity="0" result="BackgroundImageFix"/>
<feColorMatrix in="SourceAlpha" type="matrix" values="0 0 0 0 0 0 0 0 0 0 0 0 0 0 0 0 0 0 127 0" result="hardAlpha"/>
<feOffset dx="-4" dy="-4"/>
<feGaussianBlur stdDeviation="2"/>
<feComposite in2="hardAlpha" operator="out"/>
<feColorMatrix type="matrix" values="0 0 0 0 0.364706 0 0 0 0 0.788235 0 0 0 0 0.882353 0 0 0 1 0"/>
<feBlend mode="normal" in2="BackgroundImageFix" result="effect1_dropShadow_1027_2354"/>
<feColorMatrix in="SourceAlpha" type="matrix" values="0 0 0 0 0 0 0 0 0 0 0 0 0 0 0 0 0 0 127 0" result="hardAlpha"/>
<feOffset dx="4" dy="4"/>
<feGaussianBlur stdDeviation="2"/>
<feComposite in2="hardAlpha" operator="out"/>
<feColorMatrix type="matrix" values="0 0 0 0 0.364706 0 0 0 0 0.788235 0 0 0 0 0.882353 0 0 0 1 0"/>
<feBlend mode="normal" in2="effect1_dropShadow_1027_2354" result="effect2_dropShadow_1027_2354"/>
<feBlend mode="normal" in="SourceGraphic" in2="effect2_dropShadow_1027_2354" result="shape"/>
</filter>
</defs>
</svg>
