<svg width="610" height="692" viewBox="0 0 610 692" fill="none" xmlns="http://www.w3.org/2000/svg">
<mask id="mask0_1016_552" style="mask-type:alpha" maskUnits="userSpaceOnUse" x="30" y="0" width="550" height="692">
<path d="M267 0.5L250.5 11H53.5L42 22L30 34V339.5L35.5 343V363L30 366.5V658L42 670L53.5 681H250.5L267 691.5H342.5L359 681H553.5L567.5 670L579.5 658V366.5L574 363V343L579.5 339.5V34L567.5 22L553.5 11H359L342.5 0.5H267Z" fill="#303030" fill-opacity="0.8"/>
</mask>
<g mask="url(#mask0_1016_552)">
<path d="M47 -3V698" stroke="#E9820A" stroke-opacity="0.61"/>
<path d="M90 -3V698" stroke="#E9820A" stroke-opacity="0.61"/>
<path d="M133 -3V698" stroke="#E9820A" stroke-opacity="0.61"/>
<path d="M176 -3V698" stroke="#E9820A" stroke-opacity="0.61"/>
<path d="M219 -3V698" stroke="#E9820A" stroke-opacity="0.61"/>
<path d="M262 -3V698" stroke="#E9820A" stroke-opacity="0.61"/>
<path d="M305 -3V698" stroke="#E9820A" stroke-opacity="0.61"/>
<path d="M348 -3V698" stroke="#E9820A" stroke-opacity="0.61"/>
<path d="M391 -3V698" stroke="#E9820A" stroke-opacity="0.61"/>
<path d="M434 -3V698" stroke="#E9820A" stroke-opacity="0.61"/>
<path d="M477 -3V698" stroke="#E9820A" stroke-opacity="0.61"/>
<path d="M520 -3V698" stroke="#E9820A" stroke-opacity="0.61"/>
<path d="M563 -3V698" stroke="#E9820A" stroke-opacity="0.61"/>
<path d="M-46 517H655" stroke="#E9820A" stroke-opacity="0.61"/>
<path d="M-46 474L655 474" stroke="#E9820A" stroke-opacity="0.61"/>
<path d="M-46 431L655 431" stroke="#E9820A" stroke-opacity="0.61"/>
<path d="M-46 388L655 388" stroke="#E9820A" stroke-opacity="0.61"/>
<path d="M-46 345L655 345" stroke="#E9820A" stroke-opacity="0.61"/>
<path d="M-46 689H655" stroke="#E9820A" stroke-opacity="0.61"/>
<path d="M-46 302L655 302" stroke="#E9820A" stroke-opacity="0.61"/>
<path d="M-46 646H655" stroke="#E9820A" stroke-opacity="0.61"/>
<path d="M-46 259L655 259" stroke="#E9820A" stroke-opacity="0.61"/>
<path d="M-46 603H655" stroke="#E9820A" stroke-opacity="0.61"/>
<path d="M-46 216L655 216" stroke="#E9820A" stroke-opacity="0.61"/>
<path d="M-46 560H655" stroke="#E9820A" stroke-opacity="0.61"/>
<path d="M-46 173L655 173" stroke="#E9820A" stroke-opacity="0.61"/>
<path d="M-46 130L655 130" stroke="#E9820A" stroke-opacity="0.61"/>
<path d="M-46 87L655 87" stroke="#E9820A" stroke-opacity="0.61"/>
<path d="M-46 44L655 44" stroke="#E9820A" stroke-opacity="0.61"/>
<path d="M-46 1L655 1" stroke="#E9820A" stroke-opacity="0.61"/>
</g>
<path d="M267.5 0.5L251 11H54L42.5 22L30.5 34V339.5L36 343V363L30.5 366.5V658L42.5 670L54 681H251L267.5 691.5H343L359.5 681H554L568 670L580 658V366.5L574.5 363V343L580 339.5V34L568 22L554 11H359.5L343 0.5H267.5Z" fill="#303030" fill-opacity="0.8"/>
<path d="M2 329L18 319.5V327L2 337V329Z" fill="#E9820A"/>
<path d="M608 329L592 319.5V327L608 337V329Z" fill="#E9820A"/>
<path d="M2 377L18 386.5V379L2 369V377Z" fill="#E9820A"/>
<path d="M608 377L592 386.5V379L608 369V377Z" fill="#E9820A"/>
<path d="M2 317.5L18 308V315.5L2 325.5V317.5Z" fill="#E9820A"/>
<path d="M608 317.5L592 308V315.5L608 325.5V317.5Z" fill="#E9820A"/>
<path d="M2 388.5L18 398V390.5L2 380.5V388.5Z" fill="#E9820A"/>
<path d="M608 388.5L592 398V390.5L608 380.5V388.5Z" fill="#E9820A"/>
<path d="M2 305.5L18 296V303.5L2 313.5V305.5Z" fill="#E9820A"/>
<path d="M608 305.5L592 296V303.5L608 313.5V305.5Z" fill="#E9820A"/>
<path d="M2 400.5L18 410V402.5L2 392.5V400.5Z" fill="#E9820A"/>
<path d="M608 400.5L592 410V402.5L608 392.5V400.5Z" fill="#E9820A"/>
<path d="M2 293.5L18 284V291.5L2 301.5V293.5Z" fill="#E9820A"/>
<path d="M608 293.5L592 284V291.5L608 301.5V293.5Z" fill="#E9820A"/>
<path d="M2 412.5L18 422V414.5L2 404.5V412.5Z" fill="#E9820A"/>
<path d="M608 412.5L592 422V414.5L608 404.5V412.5Z" fill="#E9820A"/>
<path d="M2 281.5L18 272V279.5L2 289.5V281.5Z" fill="#E9820A"/>
<path d="M608 281.5L592 272V279.5L608 289.5V281.5Z" fill="#E9820A"/>
<path d="M2 424.5L18 434V426.5L2 416.5V424.5Z" fill="#E9820A"/>
<path d="M608 424.5L592 434V426.5L608 416.5V424.5Z" fill="#E9820A"/>
<path d="M2 270.5L18 261V268.5L2 278.5V270.5Z" fill="#E9820A"/>
<path d="M608 270.5L592 261V268.5L608 278.5V270.5Z" fill="#E9820A"/>
<path d="M2 435.5L18 445V437.5L2 427.5V435.5Z" fill="#E9820A"/>
<path d="M608 435.5L592 445V437.5L608 427.5V435.5Z" fill="#E9820A"/>
<path d="M2 259.5L18 250V257.5L2 267.5V259.5Z" fill="#E9820A"/>
<path d="M608 259.5L592 250V257.5L608 267.5V259.5Z" fill="#E9820A"/>
<path d="M2 446.5L18 456V448.5L2 438.5V446.5Z" fill="#E9820A"/>
<path d="M608 446.5L592 456V448.5L608 438.5V446.5Z" fill="#E9820A"/>
<path d="M2 248.5L18 239V246.5L2 256.5V248.5Z" fill="#E9820A"/>
<path d="M608 248.5L592 239V246.5L608 256.5V248.5Z" fill="#E9820A"/>
<path d="M2 457.5L18 467V459.5L2 449.5V457.5Z" fill="#E9820A"/>
<path d="M608 457.5L592 467V459.5L608 449.5V457.5Z" fill="#E9820A"/>
<path d="M22 328H20.5V308.5H22V328Z" fill="white"/>
<path d="M14 236.5L20.5 232.5V308.5M20.5 308.5V328H22V308.5H20.5Z" stroke="white" stroke-linejoin="round"/>
<path d="M588 328H589.5V308.5H588V328Z" fill="white"/>
<path d="M596 236.5L589.5 232.5V308.5M589.5 308.5V328H588V308.5H589.5Z" stroke="white" stroke-linejoin="round"/>
<path d="M22 378H20.5V397.5H22V378Z" fill="white"/>
<path d="M14 469.5L20.5 473.5V397.5M20.5 397.5V378H22V397.5H20.5Z" stroke="white" stroke-linejoin="round"/>
<path d="M588 378H589.5V397.5H588V378Z" fill="white"/>
<path d="M596 469.5L589.5 473.5V397.5M589.5 397.5V378H588V397.5H589.5Z" stroke="white" stroke-linejoin="round"/>
<path d="M19.5 346L25.1292 349.25V355.75L19.5 359L13.8708 355.75V349.25L19.5 346Z" fill="white"/>
<path d="M590.5 346L584.871 349.25V355.75L590.5 359L596.129 355.75V349.25L590.5 346Z" fill="white"/>
<path d="M3.1125 343.039L19.5 333.577L35.8875 343.039V361.961L19.5 371.423L3.1125 361.961V343.039Z" stroke="white"/>
<path d="M606.887 343.039L590.5 333.577L574.113 343.039V361.961L590.5 371.423L606.887 361.961V343.039Z" stroke="white"/>
<line x1="46.5" y1="165" x2="46.5" y2="532" stroke="white"/>
<circle cx="46" cy="165" r="2" fill="white"/>
<circle cx="46" cy="206" r="2" fill="white"/>
<circle cx="46" cy="247" r="2" fill="white"/>
<circle cx="46" cy="288" r="2" fill="white"/>
<circle cx="46" cy="329" r="2" fill="white"/>
<circle cx="46" cy="370" r="2" fill="white"/>
<circle cx="46" cy="411" r="2" fill="white"/>
<circle cx="46" cy="452" r="2" fill="white"/>
<circle cx="46" cy="493" r="2" fill="white"/>
<circle cx="46" cy="534" r="2" fill="white"/>
<line y1="-0.5" x2="367" y2="-0.5" transform="matrix(4.37114e-08 1 1 -4.37114e-08 564 165)" stroke="white"/>
<circle cx="2" cy="2" r="2" transform="matrix(-1 0 0 1 566 163)" fill="white"/>
<circle cx="2" cy="2" r="2" transform="matrix(-1 0 0 1 566 204)" fill="white"/>
<circle cx="2" cy="2" r="2" transform="matrix(-1 0 0 1 566 245)" fill="white"/>
<circle cx="2" cy="2" r="2" transform="matrix(-1 0 0 1 566 286)" fill="white"/>
<circle cx="2" cy="2" r="2" transform="matrix(-1 0 0 1 566 327)" fill="white"/>
<circle cx="2" cy="2" r="2" transform="matrix(-1 0 0 1 566 368)" fill="white"/>
<circle cx="2" cy="2" r="2" transform="matrix(-1 0 0 1 566 409)" fill="white"/>
<circle cx="2" cy="2" r="2" transform="matrix(-1 0 0 1 566 450)" fill="white"/>
<circle cx="2" cy="2" r="2" transform="matrix(-1 0 0 1 566 491)" fill="white"/>
<circle cx="2" cy="2" r="2" transform="matrix(-1 0 0 1 566 532)" fill="white"/>
<path d="M57 22.5L63 16.5H153.25M282 1H266.5L244.5 15.5M153.25 16.5H243.5L244.5 15.5M153.25 16.5V15.5H244.5" stroke="white" stroke-linejoin="round"/>
<path d="M553 22.5L547 16.5H456.75M328 1H343.5L365.5 15.5M456.75 16.5H366.5L365.5 15.5M456.75 16.5V15.5H365.5" stroke="white" stroke-linejoin="round"/>
<path d="M57 670L63 676H153.25M282 691.5H266.5L244.5 677M153.25 676H243.5L244.5 677M153.25 676V677H244.5" stroke="white" stroke-linejoin="round"/>
<path d="M553 670L547 676H456.75M328 691.5H343.5L365.5 677M456.75 676H366.5L365.5 677M456.75 676V677H365.5" stroke="white" stroke-linejoin="round"/>
<path d="M240.5 11H54L30.5 34.5V339.5L35.5 343V362L30.5 365V657.5L54 681H239.5" stroke="white"/>
<path d="M369.5 11H556L579.5 34.5V339.5L574.5 343V362L579.5 365V657.5L556 681H370.5" stroke="white"/>
</svg>
