<svg width="485" height="415" viewBox="0 0 485 415" fill="none" xmlns="http://www.w3.org/2000/svg">
<mask id="mask0_1016_553" style="mask-type:alpha" maskUnits="userSpaceOnUse" x="23" y="1" width="438" height="413">
<path d="M212.287 1L199.168 7.27569H42.5368L33.3934 13.8502L23.8524 21.0224V203.615L28.2254 205.707V217.661L23.8524 219.753V393.978L33.3934 401.15L42.5368 407.724H199.168L212.287 414H272.316L285.434 407.724H440.078L451.209 401.15L460.75 393.978V219.753L456.377 217.661V205.707L460.75 203.615V21.0224L451.209 13.8502L440.078 7.27569H285.434L272.316 1H212.287Z" fill="#303030" fill-opacity="0.8"/>
</mask>
<g mask="url(#mask0_1016_553)">
<path d="M37.3689 -1.0918V417.885" stroke="#E9820A" stroke-opacity="0.61"/>
<path d="M71.5574 -1.0918V417.885" stroke="#E9820A" stroke-opacity="0.61"/>
<path d="M105.746 -1.0918V417.885" stroke="#E9820A" stroke-opacity="0.61"/>
<path d="M139.934 -1.0918V417.885" stroke="#E9820A" stroke-opacity="0.61"/>
<path d="M174.123 -1.0918V417.885" stroke="#E9820A" stroke-opacity="0.61"/>
<path d="M208.312 -1.0918V417.885" stroke="#E9820A" stroke-opacity="0.61"/>
<path d="M242.5 -1.0918V417.885" stroke="#E9820A" stroke-opacity="0.61"/>
<path d="M276.688 -1.0918V417.885" stroke="#E9820A" stroke-opacity="0.61"/>
<path d="M310.877 -1.0918V417.885" stroke="#E9820A" stroke-opacity="0.61"/>
<path d="M345.066 -1.0918V417.885" stroke="#E9820A" stroke-opacity="0.61"/>
<path d="M379.254 -1.0918V417.885" stroke="#E9820A" stroke-opacity="0.61"/>
<path d="M413.443 -1.0918V417.885" stroke="#E9820A" stroke-opacity="0.61"/>
<path d="M447.631 -1.0918V417.885" stroke="#E9820A" stroke-opacity="0.61"/>
<path d="M-36.5737 309.704H520.779" stroke="#E9820A" stroke-opacity="0.61"/>
<path d="M-36.5737 284.003H520.779" stroke="#E9820A" stroke-opacity="0.61"/>
<path d="M-36.5737 258.303H520.779" stroke="#E9820A" stroke-opacity="0.61"/>
<path d="M-36.5737 232.603L520.779 232.603" stroke="#E9820A" stroke-opacity="0.61"/>
<path d="M-36.5737 206.902L520.779 206.902" stroke="#E9820A" stroke-opacity="0.61"/>
<path d="M-36.5737 412.506H520.779" stroke="#E9820A" stroke-opacity="0.61"/>
<path d="M-36.5737 181.202L520.779 181.202" stroke="#E9820A" stroke-opacity="0.61"/>
<path d="M-36.5737 386.805H520.779" stroke="#E9820A" stroke-opacity="0.61"/>
<path d="M-36.5737 155.501L520.779 155.501" stroke="#E9820A" stroke-opacity="0.61"/>
<path d="M-36.5737 361.105H520.779" stroke="#E9820A" stroke-opacity="0.61"/>
<path d="M-36.5737 129.801L520.779 129.801" stroke="#E9820A" stroke-opacity="0.61"/>
<path d="M-36.5737 335.404H520.779" stroke="#E9820A" stroke-opacity="0.61"/>
<path d="M-36.5737 104.101L520.779 104.101" stroke="#E9820A" stroke-opacity="0.61"/>
<path d="M-36.5737 78.4001L520.779 78.4001" stroke="#E9820A" stroke-opacity="0.61"/>
<path d="M-36.5737 52.6995L520.779 52.6995" stroke="#E9820A" stroke-opacity="0.61"/>
<path d="M-36.5737 26.9993L520.779 26.9993" stroke="#E9820A" stroke-opacity="0.61"/>
<path d="M-36.5737 1.29883L520.779 1.29883" stroke="#E9820A" stroke-opacity="0.61"/>
</g>
<path d="M212.684 1L199.566 7.27569H42.9344L33.791 13.8502L24.25 21.0224V203.615L28.623 205.707V217.661L24.25 219.753V393.978L33.791 401.15L42.9344 407.724H199.566L212.684 414H272.713L285.832 407.724H440.475L451.607 401.15L461.148 393.978V219.753L456.775 217.661V205.707L461.148 203.615V21.0224L451.607 13.8502L440.475 7.27569H285.832L272.713 1H212.684Z" fill="#303030" fill-opacity="0.8"/>
<path d="M1.59021 197.339L14.3115 191.661V196.144L1.59021 202.121V197.339Z" fill="#E9820A"/>
<path d="M483.41 197.339L470.688 191.661V196.144L483.41 202.121V197.339Z" fill="#E9820A"/>
<path d="M1.59021 226.028L14.3115 231.706V227.223L1.59021 221.247V226.028Z" fill="#E9820A"/>
<path d="M483.41 226.028L470.688 231.706V227.223L483.41 221.247V226.028Z" fill="#E9820A"/>
<path d="M1.59021 190.466L14.3115 184.788V189.271L1.59021 195.248V190.466Z" fill="#E9820A"/>
<path d="M483.41 190.466L470.688 184.788V189.271L483.41 195.248V190.466Z" fill="#E9820A"/>
<path d="M1.59021 232.902L14.3115 238.58V234.097L1.59021 228.12V232.902Z" fill="#E9820A"/>
<path d="M483.41 232.902L470.688 238.58V234.097L483.41 228.12V232.902Z" fill="#E9820A"/>
<path d="M1.59021 183.294L14.3115 177.616V182.098L1.59021 188.075V183.294Z" fill="#E9820A"/>
<path d="M483.41 183.294L470.688 177.616V182.098L483.41 188.075V183.294Z" fill="#E9820A"/>
<path d="M1.59021 240.074L14.3115 245.752V241.269L1.59021 235.292V240.074Z" fill="#E9820A"/>
<path d="M483.41 240.074L470.688 245.752V241.269L483.41 235.292V240.074Z" fill="#E9820A"/>
<path d="M1.59021 176.121L14.3115 170.443V174.926L1.59021 180.903V176.121Z" fill="#E9820A"/>
<path d="M483.41 176.121L470.688 170.443V174.926L483.41 180.903V176.121Z" fill="#E9820A"/>
<path d="M1.59021 247.246L14.3115 252.924V248.441L1.59021 242.464V247.246Z" fill="#E9820A"/>
<path d="M483.41 247.246L470.688 252.924V248.441L483.41 242.464V247.246Z" fill="#E9820A"/>
<path d="M1.59021 168.949L14.3115 163.271V167.754L1.59021 173.731V168.949Z" fill="#E9820A"/>
<path d="M483.41 168.949L470.688 163.271V167.754L483.41 173.731V168.949Z" fill="#E9820A"/>
<path d="M1.59021 254.418L14.3115 260.096V255.614L1.59021 249.637V254.418Z" fill="#E9820A"/>
<path d="M483.41 254.418L470.688 260.096V255.614L483.41 249.637V254.418Z" fill="#E9820A"/>
<path d="M1.59021 162.375L14.3115 156.697V161.179L1.59021 167.156V162.375Z" fill="#E9820A"/>
<path d="M483.41 162.375L470.688 156.697V161.179L483.41 167.156V162.375Z" fill="#E9820A"/>
<path d="M1.59021 260.992L14.3115 266.67V262.188L1.59021 256.211V260.992Z" fill="#E9820A"/>
<path d="M483.41 260.992L470.688 266.67V262.188L483.41 256.211V260.992Z" fill="#E9820A"/>
<path d="M1.59021 155.801L14.3115 150.123V154.605L1.59021 160.582V155.801Z" fill="#E9820A"/>
<path d="M483.41 155.801L470.688 150.123V154.605L483.41 160.582V155.801Z" fill="#E9820A"/>
<path d="M1.59021 267.567L14.3115 273.245V268.762L1.59021 262.786V267.567Z" fill="#E9820A"/>
<path d="M483.41 267.567L470.688 273.245V268.762L483.41 262.786V267.567Z" fill="#E9820A"/>
<path d="M1.59021 149.226L14.3115 143.548V148.03L1.59021 154.007V149.226Z" fill="#E9820A"/>
<path d="M483.41 149.226L470.688 143.548V148.03L483.41 154.007V149.226Z" fill="#E9820A"/>
<path d="M1.59021 274.142L14.3115 279.82V275.337L1.59021 269.36V274.142Z" fill="#E9820A"/>
<path d="M483.41 274.142L470.688 279.82V275.337L483.41 269.36V274.142Z" fill="#E9820A"/>
<path d="M17.4918 196.742H16.2991V185.087H17.4918V196.742Z" fill="white"/>
<path d="M11.1311 142.054L16.2991 139.663V185.087M16.2991 185.087V196.742H17.4918V185.087H16.2991Z" stroke="white" stroke-linejoin="round"/>
<path d="M467.508 196.742H468.701V185.087H467.508V196.742Z" fill="white"/>
<path d="M473.869 142.054L468.701 139.663V185.087M468.701 185.087V196.742H467.508V185.087H468.701Z" stroke="white" stroke-linejoin="round"/>
<path d="M17.4918 226.626H16.2991V238.281H17.4918V226.626Z" fill="white"/>
<path d="M11.1311 281.314L16.2991 283.705V238.281M16.2991 238.281V226.626H17.4918V238.281H16.2991Z" stroke="white" stroke-linejoin="round"/>
<path d="M467.508 226.626H468.701V238.281H467.508V226.626Z" fill="white"/>
<path d="M473.869 281.314L468.701 283.705V238.281M468.701 238.281V226.626H467.508V238.281H468.701Z" stroke="white" stroke-linejoin="round"/>
<path d="M15.5041 207.5L19.9797 209.442V213.327L15.5041 215.27L11.0284 213.327V209.442L15.5041 207.5Z" fill="white"/>
<path d="M469.496 207.5L465.02 209.442V213.327L469.496 215.27L473.972 213.327V209.442L469.496 207.5Z" fill="white"/>
<path d="M2.57716 205.886L15.5041 200.275L28.431 205.886V216.884L15.5041 222.495L2.57716 216.884V205.886Z" stroke="white"/>
<path d="M482.423 205.886L469.496 200.275L456.569 205.886V216.884L469.496 222.495L482.423 216.884V205.886Z" stroke="white"/>
<line x1="37.0737" y1="99.3188" x2="37.0737" y2="318.669" stroke="white"/>
<ellipse cx="36.5737" cy="99.3191" rx="1.59016" ry="1.19537" fill="white"/>
<ellipse cx="36.5737" cy="123.824" rx="1.59016" ry="1.19537" fill="white"/>
<ellipse cx="36.5737" cy="148.329" rx="1.59016" ry="1.19537" fill="white"/>
<ellipse cx="36.5737" cy="172.834" rx="1.59016" ry="1.19537" fill="white"/>
<ellipse cx="36.5737" cy="197.339" rx="1.59016" ry="1.19537" fill="white"/>
<ellipse cx="36.5737" cy="221.844" rx="1.59016" ry="1.19537" fill="white"/>
<ellipse cx="36.5737" cy="246.349" rx="1.59016" ry="1.19537" fill="white"/>
<ellipse cx="36.5737" cy="270.854" rx="1.59016" ry="1.19537" fill="white"/>
<ellipse cx="36.5737" cy="295.359" rx="1.59016" ry="1.19537" fill="white"/>
<ellipse cx="36.5737" cy="319.865" rx="1.59016" ry="1.19537" fill="white"/>
<line y1="-0.5" x2="219.35" y2="-0.5" transform="matrix(5.8148e-08 1 1 -3.2859e-08 448.426 99.3188)" stroke="white"/>
<ellipse cx="1.59016" cy="1.19537" rx="1.59016" ry="1.19537" transform="matrix(-1 0 0 1 450.016 98.1238)" fill="white"/>
<ellipse cx="1.59016" cy="1.19537" rx="1.59016" ry="1.19537" transform="matrix(-1 0 0 1 450.016 122.629)" fill="white"/>
<ellipse cx="1.59016" cy="1.19537" rx="1.59016" ry="1.19537" transform="matrix(-1 0 0 1 450.016 147.134)" fill="white"/>
<ellipse cx="1.59016" cy="1.19537" rx="1.59016" ry="1.19537" transform="matrix(-1 0 0 1 450.016 171.639)" fill="white"/>
<ellipse cx="1.59016" cy="1.19537" rx="1.59016" ry="1.19537" transform="matrix(-1 0 0 1 450.016 196.144)" fill="white"/>
<ellipse cx="1.59016" cy="1.19537" rx="1.59016" ry="1.19537" transform="matrix(-1 0 0 1 450.016 220.649)" fill="white"/>
<ellipse cx="1.59016" cy="1.19537" rx="1.59016" ry="1.19537" transform="matrix(-1 0 0 1 450.016 245.154)" fill="white"/>
<ellipse cx="1.59016" cy="1.19537" rx="1.59016" ry="1.19537" transform="matrix(-1 0 0 1 450.016 269.659)" fill="white"/>
<ellipse cx="1.59016" cy="1.19537" rx="1.59016" ry="1.19537" transform="matrix(-1 0 0 1 450.016 294.164)" fill="white"/>
<ellipse cx="1.59016" cy="1.19537" rx="1.59016" ry="1.19537" transform="matrix(-1 0 0 1 450.016 318.669)" fill="white"/>
<path d="M45.3197 14.149L50.0902 10.5629H121.846M224.213 1.29883H211.889L194.398 9.96525M121.846 10.5629H193.602L194.398 9.96525M121.846 10.5629V9.96525H194.398" stroke="white" stroke-linejoin="round"/>
<path d="M439.68 14.149L434.91 10.5629H363.154M260.787 1.29883H273.111L290.603 9.96525M363.154 10.5629H291.398L290.603 9.96525M363.154 10.5629V9.96525H290.603" stroke="white" stroke-linejoin="round"/>
<path d="M45.3197 401.15L50.0902 404.736H121.846M224.213 414H211.889L194.398 405.334M121.846 404.736H193.602L194.398 405.334M121.846 404.736V405.334H194.398" stroke="white" stroke-linejoin="round"/>
<path d="M439.68 401.15L434.91 404.736H363.154M260.787 414H273.111L290.603 405.334M363.154 404.736H291.398L290.603 405.334M363.154 404.736V405.334H290.603" stroke="white" stroke-linejoin="round"/>
<path d="M191.217 7.27563H42.9344L24.25 21.3212V203.615L28.2254 205.707V217.063L24.25 218.856V393.679L42.9344 407.724H190.422" stroke="white"/>
<path d="M293.783 7.27563H442.066L460.75 21.3212V203.615L456.775 205.707V217.063L460.75 218.856V393.679L442.066 407.724H294.578" stroke="white"/>
</svg>
